%TF.GenerationSoftware,KiCad,Pcbnew,9.0.5*%
%TF.CreationDate,2026-03-31T15:11:01+02:00*%
%TF.ProjectId,0511,30353131-2e6b-4696-9361-645f70636258,rev?*%
%TF.SameCoordinates,Original*%
%TF.FileFunction,Paste,Top*%
%TF.FilePolarity,Positive*%
%FSLAX46Y46*%
G04 Gerber Fmt 4.6, Leading zero omitted, Abs format (unit mm)*
G04 Created by KiCad (PCBNEW 9.0.5) date 2026-03-31 15:11:01*
%MOMM*%
%LPD*%
G01*
G04 APERTURE LIST*
G04 Aperture macros list*
%AMRoundRect*
0 Rectangle with rounded corners*
0 $1 Rounding radius*
0 $2 $3 $4 $5 $6 $7 $8 $9 X,Y pos of 4 corners*
0 Add a 4 corners polygon primitive as box body*
4,1,4,$2,$3,$4,$5,$6,$7,$8,$9,$2,$3,0*
0 Add four circle primitives for the rounded corners*
1,1,$1+$1,$2,$3*
1,1,$1+$1,$4,$5*
1,1,$1+$1,$6,$7*
1,1,$1+$1,$8,$9*
0 Add four rect primitives between the rounded corners*
20,1,$1+$1,$2,$3,$4,$5,0*
20,1,$1+$1,$4,$5,$6,$7,0*
20,1,$1+$1,$6,$7,$8,$9,0*
20,1,$1+$1,$8,$9,$2,$3,0*%
G04 Aperture macros list end*
%ADD10C,0.000000*%
%ADD11RoundRect,0.200000X-0.275000X0.200000X-0.275000X-0.200000X0.275000X-0.200000X0.275000X0.200000X0*%
%ADD12RoundRect,0.200000X0.275000X-0.200000X0.275000X0.200000X-0.275000X0.200000X-0.275000X-0.200000X0*%
%ADD13RoundRect,0.225000X0.375000X-0.225000X0.375000X0.225000X-0.375000X0.225000X-0.375000X-0.225000X0*%
%ADD14R,1.371600X0.482600*%
%ADD15RoundRect,0.225000X-0.250000X0.225000X-0.250000X-0.225000X0.250000X-0.225000X0.250000X0.225000X0*%
%ADD16R,1.700000X1.000000*%
%ADD17RoundRect,0.225000X0.250000X-0.225000X0.250000X0.225000X-0.250000X0.225000X-0.250000X-0.225000X0*%
%ADD18RoundRect,0.225000X0.225000X0.250000X-0.225000X0.250000X-0.225000X-0.250000X0.225000X-0.250000X0*%
%ADD19RoundRect,0.200000X-0.200000X-0.275000X0.200000X-0.275000X0.200000X0.275000X-0.200000X0.275000X0*%
%ADD20RoundRect,0.150000X0.150000X-0.875000X0.150000X0.875000X-0.150000X0.875000X-0.150000X-0.875000X0*%
%ADD21RoundRect,0.225000X-0.225000X-0.250000X0.225000X-0.250000X0.225000X0.250000X-0.225000X0.250000X0*%
%ADD22RoundRect,0.200000X0.200000X0.275000X-0.200000X0.275000X-0.200000X-0.275000X0.200000X-0.275000X0*%
%ADD23RoundRect,0.218750X0.218750X0.256250X-0.218750X0.256250X-0.218750X-0.256250X0.218750X-0.256250X0*%
%ADD24R,0.300000X0.870000*%
%ADD25R,0.200000X0.940000*%
%ADD26RoundRect,0.250000X-0.250000X-2.500000X0.250000X-2.500000X0.250000X2.500000X-0.250000X2.500000X0*%
%ADD27RoundRect,0.250000X-0.550000X-1.250000X0.550000X-1.250000X0.550000X1.250000X-0.550000X1.250000X0*%
%ADD28RoundRect,0.225000X0.225000X0.375000X-0.225000X0.375000X-0.225000X-0.375000X0.225000X-0.375000X0*%
%ADD29RoundRect,0.075000X-0.700000X-0.075000X0.700000X-0.075000X0.700000X0.075000X-0.700000X0.075000X0*%
%ADD30RoundRect,0.075000X-0.075000X-0.700000X0.075000X-0.700000X0.075000X0.700000X-0.075000X0.700000X0*%
%ADD31R,1.000000X1.700000*%
%ADD32R,1.168400X0.457200*%
%ADD33RoundRect,0.250000X-0.945000X0.785000X-0.945000X-0.785000X0.945000X-0.785000X0.945000X0.785000X0*%
%ADD34RoundRect,0.225000X-0.375000X0.225000X-0.375000X-0.225000X0.375000X-0.225000X0.375000X0.225000X0*%
%ADD35R,2.100000X5.600000*%
%ADD36R,1.300000X1.900000*%
%ADD37C,0.125000*%
%ADD38C,0.050000*%
%ADD39C,0.200000*%
%ADD40C,0.300000*%
G04 APERTURE END LIST*
D10*
%TO.C,U3*%
G36*
X162906500Y-35100000D02*
G01*
X160693500Y-35100000D01*
X160693500Y-33699800D01*
X162906500Y-33699800D01*
X162906500Y-35100000D01*
G37*
G36*
X162906500Y-36700200D02*
G01*
X160693500Y-36700200D01*
X160693500Y-35300000D01*
X162906500Y-35300000D01*
X162906500Y-36700200D01*
G37*
%TD*%
D11*
%TO.C,A0_20_R1*%
X33000000Y-91175000D03*
X33000000Y-92825000D03*
%TD*%
%TO.C,A0_21_R2*%
X178000000Y-197450000D03*
X178000000Y-199100000D03*
%TD*%
D12*
%TO.C,RESET_PULLUP_23*%
X213750000Y-176575000D03*
X213750000Y-174925000D03*
%TD*%
D13*
%TO.C,B5_21_D1*%
X33000000Y-250050000D03*
X33000000Y-246750000D03*
%TD*%
%TO.C,A7_22_D1*%
X71100000Y-269100000D03*
X71100000Y-265800000D03*
%TD*%
D11*
%TO.C,B0_22_R1*%
X90150000Y-253100000D03*
X90150000Y-254750000D03*
%TD*%
D14*
%TO.C,U3*%
X164467000Y-37105000D03*
X164467000Y-35835000D03*
X164467000Y-34565000D03*
X164467000Y-33295000D03*
X159133000Y-33295000D03*
X159133000Y-34565000D03*
X159133000Y-35835000D03*
X159133000Y-37105000D03*
%TD*%
D15*
%TO.C,B0_23_C1*%
X194285000Y-197900000D03*
X194285000Y-199450000D03*
%TD*%
D11*
%TO.C,B0_23_R1*%
X286050000Y-210125000D03*
X286050000Y-211775000D03*
%TD*%
D13*
%TO.C,A4_20_D1*%
X71100000Y-97650000D03*
X71100000Y-94350000D03*
%TD*%
D12*
%TO.C,PULLUP_INTB_21*%
X175000000Y-206600000D03*
X175000000Y-204950000D03*
%TD*%
D16*
%TO.C,BTN_REGLAGE_PB5*%
X187050000Y-37800000D03*
X180750000Y-37800000D03*
X187050000Y-34000000D03*
X180750000Y-34000000D03*
%TD*%
D17*
%TO.C,A3_21_C1*%
X169000000Y-199050000D03*
X169000000Y-197500000D03*
%TD*%
D11*
%TO.C,A4_21_R2*%
X164000000Y-197450000D03*
X164000000Y-199100000D03*
%TD*%
D15*
%TO.C,B6_20_C1*%
X175671600Y-163970816D03*
X175671600Y-165520816D03*
%TD*%
D11*
%TO.C,A3_22_R2*%
X169305000Y-251325000D03*
X169305000Y-252975000D03*
%TD*%
%TO.C,A2_20_R1*%
X33000000Y-110225000D03*
X33000000Y-111875000D03*
%TD*%
D17*
%TO.C,A5_21_C1*%
X162000000Y-199050000D03*
X162000000Y-197500000D03*
%TD*%
%TO.C,A0_23_C1*%
X217285000Y-168450000D03*
X217285000Y-166900000D03*
%TD*%
D12*
%TO.C,PULLUP_INT_21*%
X171135000Y-206825000D03*
X171135000Y-205175000D03*
%TD*%
D13*
%TO.C,B1_21_D1*%
X33000000Y-231000000D03*
X33000000Y-227700000D03*
%TD*%
D11*
%TO.C,A7_21_R2*%
X153500000Y-197450000D03*
X153500000Y-199100000D03*
%TD*%
D13*
%TO.C,A1_22_D1*%
X33000000Y-269100000D03*
X33000000Y-265800000D03*
%TD*%
%TO.C,A4_21_D1*%
X90150000Y-164325000D03*
X90150000Y-161025000D03*
%TD*%
%TO.C,A1_20_D1*%
X52050000Y-88125000D03*
X52050000Y-84825000D03*
%TD*%
D11*
%TO.C,B3_22_R1*%
X90150000Y-272150000D03*
X90150000Y-273800000D03*
%TD*%
D17*
%TO.C,A7_21_C1*%
X155000000Y-199050000D03*
X155000000Y-197500000D03*
%TD*%
D11*
%TO.C,B1_21_R1*%
X33000000Y-224525000D03*
X33000000Y-226175000D03*
%TD*%
D17*
%TO.C,A7_22_C1*%
X155000000Y-253025000D03*
X155000000Y-251475000D03*
%TD*%
D13*
%TO.C,B7_21_D1*%
X71100000Y-231000000D03*
X71100000Y-227700000D03*
%TD*%
D11*
%TO.C,B4_21_R1*%
X90150000Y-195950000D03*
X90150000Y-197600000D03*
%TD*%
D18*
%TO.C,C65*%
X124175000Y-66700000D03*
X122625000Y-66700000D03*
%TD*%
D12*
%TO.C,B2_22_R2*%
X166805000Y-283975000D03*
X166805000Y-282325000D03*
%TD*%
D18*
%TO.C,C67*%
X143900000Y-65900000D03*
X142350000Y-65900000D03*
%TD*%
D11*
%TO.C,A1_23_R2*%
X212285000Y-166850000D03*
X212285000Y-168500000D03*
%TD*%
%TO.C,B1_22_R1*%
X52000000Y-290425000D03*
X52000000Y-292075000D03*
%TD*%
%TO.C,A5_23_R2*%
X198285000Y-166850000D03*
X198285000Y-168500000D03*
%TD*%
%TO.C,A4_23_R1*%
X286050000Y-133925000D03*
X286050000Y-135575000D03*
%TD*%
D13*
%TO.C,B7_23_D1*%
X267000000Y-179500000D03*
X267000000Y-176200000D03*
%TD*%
D11*
%TO.C,B6_23_R1*%
X286050000Y-172025000D03*
X286050000Y-173675000D03*
%TD*%
D17*
%TO.C,A5_22_C1*%
X163805000Y-252925000D03*
X163805000Y-251375000D03*
%TD*%
D15*
%TO.C,C72*%
X144500000Y-81300000D03*
X144500000Y-82850000D03*
%TD*%
%TO.C,B7_23_C1*%
X220515000Y-197950000D03*
X220515000Y-199500000D03*
%TD*%
D13*
%TO.C,B3_20_D1*%
X71100000Y-135750000D03*
X71100000Y-132450000D03*
%TD*%
D11*
%TO.C,A1_20_R1*%
X52050000Y-81650000D03*
X52050000Y-83300000D03*
%TD*%
D13*
%TO.C,A3_21_D1*%
X71100000Y-173850000D03*
X71100000Y-170550000D03*
%TD*%
%TO.C,A7_21_D1*%
X71100000Y-192900000D03*
X71100000Y-189600000D03*
%TD*%
%TO.C,A4_23_D1*%
X286050000Y-141400000D03*
X286050000Y-138100000D03*
%TD*%
D15*
%TO.C,B2_22_C1*%
X165305000Y-282375000D03*
X165305000Y-283925000D03*
%TD*%
D13*
%TO.C,A3_23_D1*%
X305100000Y-141400000D03*
X305100000Y-138100000D03*
%TD*%
D17*
%TO.C,A3_22_C1*%
X170805000Y-252925000D03*
X170805000Y-251375000D03*
%TD*%
D19*
%TO.C,RPC10*%
X176875000Y-45500000D03*
X178525000Y-45500000D03*
%TD*%
D17*
%TO.C,A6_23_C1*%
X196285000Y-168450000D03*
X196285000Y-166900000D03*
%TD*%
D13*
%TO.C,A6_20_D1*%
X52050000Y-126225000D03*
X52050000Y-122925000D03*
%TD*%
D17*
%TO.C,A4_21_C1*%
X165500000Y-199050000D03*
X165500000Y-197500000D03*
%TD*%
D13*
%TO.C,A3_20_D1*%
X52050000Y-107175000D03*
X52050000Y-103875000D03*
%TD*%
D12*
%TO.C,B6_23_R2*%
X216785000Y-199500000D03*
X216785000Y-197850000D03*
%TD*%
D20*
%TO.C,MCP23017_AD23*%
X200495000Y-188400000D03*
X201765000Y-188400000D03*
X203035000Y-188400000D03*
X204305000Y-188400000D03*
X205575000Y-188400000D03*
X206845000Y-188400000D03*
X208115000Y-188400000D03*
X209385000Y-188400000D03*
X210655000Y-188400000D03*
X211925000Y-188400000D03*
X213195000Y-188400000D03*
X214465000Y-188400000D03*
X215735000Y-188400000D03*
X217005000Y-188400000D03*
X217005000Y-179100000D03*
X215735000Y-179100000D03*
X214465000Y-179100000D03*
X213195000Y-179100000D03*
X211925000Y-179100000D03*
X210655000Y-179100000D03*
X209385000Y-179100000D03*
X208115000Y-179100000D03*
X206845000Y-179100000D03*
X205575000Y-179100000D03*
X204305000Y-179100000D03*
X203035000Y-179100000D03*
X201765000Y-179100000D03*
X200495000Y-179100000D03*
%TD*%
D18*
%TO.C,C77*%
X152725000Y-40100000D03*
X151175000Y-40100000D03*
%TD*%
D12*
%TO.C,B6_20_R2*%
X177171600Y-165570816D03*
X177171600Y-163920816D03*
%TD*%
D11*
%TO.C,A3_20_R2*%
X165671600Y-132920816D03*
X165671600Y-134570816D03*
%TD*%
D21*
%TO.C,C_DECOUPLAGE_22*%
X169225000Y-274250000D03*
X170775000Y-274250000D03*
%TD*%
D11*
%TO.C,A6_20_R2*%
X155171600Y-132920816D03*
X155171600Y-134570816D03*
%TD*%
%TO.C,B3_21_R1*%
X71100000Y-205475000D03*
X71100000Y-207125000D03*
%TD*%
%TO.C,A7_20_R2*%
X151671600Y-132920816D03*
X151671600Y-134570816D03*
%TD*%
D12*
%TO.C,B0_20_R2*%
X156171600Y-165570816D03*
X156171600Y-163920816D03*
%TD*%
D17*
%TO.C,A0_22_C1*%
X181305000Y-252925000D03*
X181305000Y-251375000D03*
%TD*%
D15*
%TO.C,B3_22_C1*%
X168805000Y-282375000D03*
X168805000Y-283925000D03*
%TD*%
%TO.C,B0_22_C1*%
X158305000Y-282375000D03*
X158305000Y-283925000D03*
%TD*%
%TO.C,B1_22_C1*%
X161805000Y-282375000D03*
X161805000Y-283925000D03*
%TD*%
D17*
%TO.C,C74*%
X149100000Y-43050000D03*
X149100000Y-41500000D03*
%TD*%
D11*
%TO.C,A6_21_R1*%
X52050000Y-195950000D03*
X52050000Y-197600000D03*
%TD*%
D17*
%TO.C,A3_23_C1*%
X206785000Y-168450000D03*
X206785000Y-166900000D03*
%TD*%
D15*
%TO.C,LDOCout1*%
X166400000Y-35025000D03*
X166400000Y-36575000D03*
%TD*%
D13*
%TO.C,B1_22_D1*%
X52000000Y-297650000D03*
X52000000Y-294350000D03*
%TD*%
D15*
%TO.C,B6_23_C1*%
X215285000Y-197900000D03*
X215285000Y-199450000D03*
%TD*%
%TO.C,B6_21_C1*%
X177500000Y-228500000D03*
X177500000Y-230050000D03*
%TD*%
D11*
%TO.C,A0_22_R2*%
X179805000Y-251325000D03*
X179805000Y-252975000D03*
%TD*%
D22*
%TO.C,A7_23_R1*%
X100825000Y-53350000D03*
X99175000Y-53350000D03*
%TD*%
D15*
%TO.C,B6_22_C1*%
X179305000Y-282375000D03*
X179305000Y-283925000D03*
%TD*%
D13*
%TO.C,A2_23_D1*%
X267000000Y-160450000D03*
X267000000Y-157150000D03*
%TD*%
D12*
%TO.C,B4_23_R2*%
X209785000Y-199500000D03*
X209785000Y-197850000D03*
%TD*%
D11*
%TO.C,A4_22_R2*%
X165805000Y-251325000D03*
X165805000Y-252975000D03*
%TD*%
D20*
%TO.C,MCP23017_ADD22*%
X158495000Y-272150000D03*
X159765000Y-272150000D03*
X161035000Y-272150000D03*
X162305000Y-272150000D03*
X163575000Y-272150000D03*
X164845000Y-272150000D03*
X166115000Y-272150000D03*
X167385000Y-272150000D03*
X168655000Y-272150000D03*
X169925000Y-272150000D03*
X171195000Y-272150000D03*
X172465000Y-272150000D03*
X173735000Y-272150000D03*
X175005000Y-272150000D03*
X175005000Y-262850000D03*
X173735000Y-262850000D03*
X172465000Y-262850000D03*
X171195000Y-262850000D03*
X169925000Y-262850000D03*
X168655000Y-262850000D03*
X167385000Y-262850000D03*
X166115000Y-262850000D03*
X164845000Y-262850000D03*
X163575000Y-262850000D03*
X162305000Y-262850000D03*
X161035000Y-262850000D03*
X159765000Y-262850000D03*
X158495000Y-262850000D03*
%TD*%
D11*
%TO.C,A4_21_R1*%
X90150000Y-157850000D03*
X90150000Y-159500000D03*
%TD*%
%TO.C,A1_22_R1*%
X33000000Y-262625000D03*
X33000000Y-264275000D03*
%TD*%
D13*
%TO.C,B4_22_D1*%
X305100000Y-236650000D03*
X305100000Y-233350000D03*
%TD*%
D23*
%TO.C,FB1*%
X139287500Y-77900000D03*
X137712500Y-77900000D03*
%TD*%
D12*
%TO.C,B4_20_R2*%
X170171600Y-165570816D03*
X170171600Y-163920816D03*
%TD*%
%TO.C,B3_21_R2*%
X168500000Y-230100000D03*
X168500000Y-228450000D03*
%TD*%
D18*
%TO.C,C71*%
X135575000Y-77100000D03*
X134025000Y-77100000D03*
%TD*%
D12*
%TO.C,PULLUP_INT_22*%
X169940000Y-260525000D03*
X169940000Y-258875000D03*
%TD*%
D13*
%TO.C,A1_21_D1*%
X33000000Y-192900000D03*
X33000000Y-189600000D03*
%TD*%
D12*
%TO.C,R131*%
X146800000Y-42950000D03*
X146800000Y-41300000D03*
%TD*%
D11*
%TO.C,A5_21_R1*%
X33000000Y-205475000D03*
X33000000Y-207125000D03*
%TD*%
%TO.C,B5_20_R1*%
X33000000Y-167375000D03*
X33000000Y-169025000D03*
%TD*%
%TO.C,B3_20_R1*%
X71100000Y-129275000D03*
X71100000Y-130925000D03*
%TD*%
D12*
%TO.C,B5_21_R2*%
X175500000Y-230100000D03*
X175500000Y-228450000D03*
%TD*%
D13*
%TO.C,A6_21_D1*%
X52050000Y-202425000D03*
X52050000Y-199125000D03*
%TD*%
%TO.C,A5_20_D1*%
X33000000Y-135750000D03*
X33000000Y-132450000D03*
%TD*%
D11*
%TO.C,B2_20_R1*%
X52050000Y-138800000D03*
X52050000Y-140450000D03*
%TD*%
%TO.C,A7_21_R1*%
X71100000Y-186425000D03*
X71100000Y-188075000D03*
%TD*%
D24*
%TO.C,J1*%
X144325000Y-34170000D03*
X145825000Y-34170000D03*
X146325000Y-34170000D03*
X146825000Y-34170000D03*
X147325000Y-34170000D03*
X147825000Y-34170000D03*
X148325000Y-34170000D03*
X149825000Y-34170000D03*
X149825000Y-35900000D03*
X148325000Y-35900000D03*
X147825000Y-35900000D03*
X147325000Y-35900000D03*
X146825000Y-35900000D03*
X146325000Y-35900000D03*
X145825000Y-35900000D03*
X144325000Y-35900000D03*
%TD*%
D12*
%TO.C,B3_22_R2*%
X170305000Y-283975000D03*
X170305000Y-282325000D03*
%TD*%
%TO.C,B7_21_R2*%
X182500000Y-230100000D03*
X182500000Y-228450000D03*
%TD*%
D13*
%TO.C,A5_21_D1*%
X33000000Y-211950000D03*
X33000000Y-208650000D03*
%TD*%
D25*
%TO.C,D58*%
X152400000Y-35760000D03*
X152400000Y-34600000D03*
%TD*%
D15*
%TO.C,B3_21_C1*%
X167000000Y-228500000D03*
X167000000Y-230050000D03*
%TD*%
D11*
%TO.C,A1_23_R1*%
X286050000Y-152975000D03*
X286050000Y-154625000D03*
%TD*%
D26*
%TO.C,JST_PH_FEMAILE_PUSH_BUTTON1*%
X102400000Y-42000000D03*
X104400000Y-42000000D03*
D27*
X100000000Y-39750000D03*
X106800000Y-39750000D03*
%TD*%
D13*
%TO.C,B5_23_D1*%
X305000000Y-179150000D03*
X305000000Y-175850000D03*
%TD*%
%TO.C,B4_20_D1*%
X90150000Y-126225000D03*
X90150000Y-122925000D03*
%TD*%
D12*
%TO.C,B4_22_R2*%
X173805000Y-283975000D03*
X173805000Y-282325000D03*
%TD*%
%TO.C,PULLUP_INTB_23*%
X212000000Y-176575000D03*
X212000000Y-174925000D03*
%TD*%
%TO.C,PULLUP_INT_23*%
X210250000Y-176575000D03*
X210250000Y-174925000D03*
%TD*%
D15*
%TO.C,B3_23_C1*%
X204785000Y-197900000D03*
X204785000Y-199450000D03*
%TD*%
D17*
%TO.C,A3_20_C1*%
X167171600Y-134520816D03*
X167171600Y-132970816D03*
%TD*%
D11*
%TO.C,A0_22_R1*%
X90150000Y-215000000D03*
X90150000Y-216650000D03*
%TD*%
D28*
%TO.C,A7_23_D1*%
X107050000Y-53400000D03*
X103750000Y-53400000D03*
%TD*%
D11*
%TO.C,B2_21_R1*%
X52050000Y-215000000D03*
X52050000Y-216650000D03*
%TD*%
D15*
%TO.C,B1_21_C1*%
X160000000Y-228500000D03*
X160000000Y-230050000D03*
%TD*%
D17*
%TO.C,A1_21_C1*%
X176000000Y-199050000D03*
X176000000Y-197500000D03*
%TD*%
D12*
%TO.C,RESET_PULLUP_21*%
X172635000Y-206475000D03*
X172635000Y-204825000D03*
%TD*%
D29*
%TO.C,U2*%
X141525000Y-69650000D03*
X141525000Y-70150000D03*
X141525000Y-70650000D03*
X141525000Y-71150000D03*
X141525000Y-71650000D03*
X141525000Y-72150000D03*
X141525000Y-72650000D03*
X141525000Y-73150000D03*
X141525000Y-73650000D03*
X141525000Y-74150000D03*
X141525000Y-74650000D03*
X141525000Y-75150000D03*
X141525000Y-75650000D03*
X141525000Y-76150000D03*
X141525000Y-76650000D03*
X141525000Y-77150000D03*
D30*
X143450000Y-79075000D03*
X143950000Y-79075000D03*
X144450000Y-79075000D03*
X144950000Y-79075000D03*
X145450000Y-79075000D03*
X145950000Y-79075000D03*
X146450000Y-79075000D03*
X146950000Y-79075000D03*
X147450000Y-79075000D03*
X147950000Y-79075000D03*
X148450000Y-79075000D03*
X148950000Y-79075000D03*
X149450000Y-79075000D03*
X149950000Y-79075000D03*
X150450000Y-79075000D03*
X150950000Y-79075000D03*
D29*
X152875000Y-77150000D03*
X152875000Y-76650000D03*
X152875000Y-76150000D03*
X152875000Y-75650000D03*
X152875000Y-75150000D03*
X152875000Y-74650000D03*
X152875000Y-74150000D03*
X152875000Y-73650000D03*
X152875000Y-73150000D03*
X152875000Y-72650000D03*
X152875000Y-72150000D03*
X152875000Y-71650000D03*
X152875000Y-71150000D03*
X152875000Y-70650000D03*
X152875000Y-70150000D03*
X152875000Y-69650000D03*
D30*
X150950000Y-67725000D03*
X150450000Y-67725000D03*
X149950000Y-67725000D03*
X149450000Y-67725000D03*
X148950000Y-67725000D03*
X148450000Y-67725000D03*
X147950000Y-67725000D03*
X147450000Y-67725000D03*
X146950000Y-67725000D03*
X146450000Y-67725000D03*
X145950000Y-67725000D03*
X145450000Y-67725000D03*
X144950000Y-67725000D03*
X144450000Y-67725000D03*
X143950000Y-67725000D03*
X143450000Y-67725000D03*
%TD*%
D13*
%TO.C,B5_22_D1*%
X286050000Y-236650000D03*
X286050000Y-233350000D03*
%TD*%
%TO.C,B0_21_D1*%
X90150000Y-183375000D03*
X90150000Y-180075000D03*
%TD*%
D17*
%TO.C,A2_22_C1*%
X174305000Y-252925000D03*
X174305000Y-251375000D03*
%TD*%
D20*
%TO.C,MCP23017_ADD20*%
X158781600Y-153245816D03*
X160051600Y-153245816D03*
X161321600Y-153245816D03*
X162591600Y-153245816D03*
X163861600Y-153245816D03*
X165131600Y-153245816D03*
X166401600Y-153245816D03*
X167671600Y-153245816D03*
X168941600Y-153245816D03*
X170211600Y-153245816D03*
X171481600Y-153245816D03*
X172751600Y-153245816D03*
X174021600Y-153245816D03*
X175291600Y-153245816D03*
X175291600Y-143945816D03*
X174021600Y-143945816D03*
X172751600Y-143945816D03*
X171481600Y-143945816D03*
X170211600Y-143945816D03*
X168941600Y-143945816D03*
X167671600Y-143945816D03*
X166401600Y-143945816D03*
X165131600Y-143945816D03*
X163861600Y-143945816D03*
X162591600Y-143945816D03*
X161321600Y-143945816D03*
X160051600Y-143945816D03*
X158781600Y-143945816D03*
%TD*%
D21*
%TO.C,C_DECOUPLAGE_21*%
X169975000Y-220750000D03*
X171525000Y-220750000D03*
%TD*%
D17*
%TO.C,A2_20_C1*%
X170671600Y-134520816D03*
X170671600Y-132970816D03*
%TD*%
D21*
%TO.C,C_DECOUPLAGE_20*%
X168975000Y-155250000D03*
X170525000Y-155250000D03*
%TD*%
D17*
%TO.C,A0_20_C1*%
X177671600Y-134520816D03*
X177671600Y-132970816D03*
%TD*%
%TO.C,C1*%
X139500000Y-76375000D03*
X139500000Y-74825000D03*
%TD*%
D15*
%TO.C,B7_21_C1*%
X181000000Y-228500000D03*
X181000000Y-230050000D03*
%TD*%
D13*
%TO.C,B6_21_D1*%
X52050000Y-240525000D03*
X52050000Y-237225000D03*
%TD*%
D15*
%TO.C,B2_23_C1*%
X201285000Y-197900000D03*
X201285000Y-199450000D03*
%TD*%
D12*
%TO.C,B3_20_R2*%
X166671600Y-165570816D03*
X166671600Y-163920816D03*
%TD*%
D11*
%TO.C,A2_22_R2*%
X172805000Y-251325000D03*
X172805000Y-252975000D03*
%TD*%
D12*
%TO.C,B0_23_R2*%
X195785000Y-199500000D03*
X195785000Y-197850000D03*
%TD*%
D11*
%TO.C,A1_21_R2*%
X174500000Y-197450000D03*
X174500000Y-199100000D03*
%TD*%
D13*
%TO.C,B6_20_D1*%
X52050000Y-164325000D03*
X52050000Y-161025000D03*
%TD*%
D15*
%TO.C,B5_22_C1*%
X175805000Y-282375000D03*
X175805000Y-283925000D03*
%TD*%
D11*
%TO.C,A3_22_R1*%
X71100000Y-243575000D03*
X71100000Y-245225000D03*
%TD*%
D13*
%TO.C,B1_20_D1*%
X33000000Y-154800000D03*
X33000000Y-151500000D03*
%TD*%
D17*
%TO.C,A2_23_C1*%
X210285000Y-168450000D03*
X210285000Y-166900000D03*
%TD*%
D15*
%TO.C,B2_20_C1*%
X161671600Y-163970816D03*
X161671600Y-165520816D03*
%TD*%
D11*
%TO.C,B7_22_R1*%
X305100000Y-210125000D03*
X305100000Y-211775000D03*
%TD*%
D18*
%TO.C,VBUS_C1*%
X143100000Y-39900000D03*
X141550000Y-39900000D03*
%TD*%
%TO.C,C66*%
X152675000Y-81100000D03*
X151125000Y-81100000D03*
%TD*%
D11*
%TO.C,A1_22_R2*%
X176305000Y-251325000D03*
X176305000Y-252975000D03*
%TD*%
D13*
%TO.C,B6_23_D1*%
X286050000Y-179500000D03*
X286050000Y-176200000D03*
%TD*%
%TO.C,A3_22_D1*%
X71100000Y-250050000D03*
X71100000Y-246750000D03*
%TD*%
D17*
%TO.C,A6_21_C1*%
X158500000Y-199050000D03*
X158500000Y-197500000D03*
%TD*%
D12*
%TO.C,B2_23_R2*%
X202785000Y-199500000D03*
X202785000Y-197850000D03*
%TD*%
D11*
%TO.C,A2_20_R2*%
X169171600Y-132920816D03*
X169171600Y-134570816D03*
%TD*%
D17*
%TO.C,A0_21_C1*%
X179500000Y-199050000D03*
X179500000Y-197500000D03*
%TD*%
D15*
%TO.C,B7_20_C1*%
X179171600Y-163970816D03*
X179171600Y-165520816D03*
%TD*%
D11*
%TO.C,A0_23_R1*%
X305100000Y-152975000D03*
X305100000Y-154625000D03*
%TD*%
D13*
%TO.C,B0_22_D1*%
X90150000Y-259575000D03*
X90150000Y-256275000D03*
%TD*%
D12*
%TO.C,B1_21_R2*%
X161500000Y-230100000D03*
X161500000Y-228450000D03*
%TD*%
D13*
%TO.C,B4_21_D1*%
X90150000Y-202425000D03*
X90150000Y-199125000D03*
%TD*%
%TO.C,B2_20_D1*%
X52050000Y-145275000D03*
X52050000Y-141975000D03*
%TD*%
D17*
%TO.C,A4_23_C1*%
X203285000Y-168450000D03*
X203285000Y-166900000D03*
%TD*%
D13*
%TO.C,B7_22_D1*%
X305100000Y-217600000D03*
X305100000Y-214300000D03*
%TD*%
D15*
%TO.C,B4_22_C1*%
X172305000Y-282375000D03*
X172305000Y-283925000D03*
%TD*%
%TO.C,B0_20_C1*%
X154671600Y-163970816D03*
X154671600Y-165520816D03*
%TD*%
D12*
%TO.C,R6*%
X172671600Y-157070816D03*
X172671600Y-155420816D03*
%TD*%
D16*
%TO.C,BTN_REGLAGE_PC10*%
X180650000Y-45400000D03*
X186950000Y-45400000D03*
X180650000Y-49200000D03*
X186950000Y-49200000D03*
%TD*%
D13*
%TO.C,A5_23_D1*%
X267000000Y-141400000D03*
X267000000Y-138100000D03*
%TD*%
D19*
%TO.C,A7_23_R2*%
X99175000Y-51550000D03*
X100825000Y-51550000D03*
%TD*%
D11*
%TO.C,A2_22_R1*%
X52050000Y-253100000D03*
X52050000Y-254750000D03*
%TD*%
%TO.C,A5_20_R1*%
X33000000Y-129275000D03*
X33000000Y-130925000D03*
%TD*%
D13*
%TO.C,A2_20_D1*%
X33000000Y-116700000D03*
X33000000Y-113400000D03*
%TD*%
D12*
%TO.C,B0_21_R2*%
X158000000Y-230100000D03*
X158000000Y-228450000D03*
%TD*%
%TO.C,B2_20_R2*%
X163171600Y-165570816D03*
X163171600Y-163920816D03*
%TD*%
D31*
%TO.C,BTN_NRST_STM1*%
X145435000Y-52080000D03*
X145435000Y-58380000D03*
X141635000Y-52080000D03*
X141635000Y-58380000D03*
%TD*%
D11*
%TO.C,B5_21_R1*%
X33000000Y-243575000D03*
X33000000Y-245225000D03*
%TD*%
D13*
%TO.C,A0_21_D1*%
X90150000Y-145275000D03*
X90150000Y-141975000D03*
%TD*%
D11*
%TO.C,A3_21_R2*%
X167500000Y-197450000D03*
X167500000Y-199100000D03*
%TD*%
%TO.C,B2_22_R1*%
X71100000Y-281675000D03*
X71100000Y-283325000D03*
%TD*%
D32*
%TO.C,CR1*%
X141194700Y-42500000D03*
X143455300Y-42500000D03*
%TD*%
D12*
%TO.C,B7_20_R2*%
X181000000Y-165825000D03*
X181000000Y-164175000D03*
%TD*%
D11*
%TO.C,A2_21_R1*%
X52050000Y-176900000D03*
X52050000Y-178550000D03*
%TD*%
D13*
%TO.C,A0_20_D1*%
X33000000Y-97650000D03*
X33000000Y-94350000D03*
%TD*%
D17*
%TO.C,A6_22_C1*%
X160305000Y-252925000D03*
X160305000Y-251375000D03*
%TD*%
%TO.C,A5_23_C1*%
X199785000Y-168450000D03*
X199785000Y-166900000D03*
%TD*%
D33*
%TO.C,C_Polarized1*%
X150300000Y-84430000D03*
X150300000Y-89370000D03*
%TD*%
D12*
%TO.C,B7_22_R2*%
X184500000Y-284000000D03*
X184500000Y-282350000D03*
%TD*%
D11*
%TO.C,A5_23_R1*%
X267000000Y-133925000D03*
X267000000Y-135575000D03*
%TD*%
D12*
%TO.C,B6_22_R2*%
X180805000Y-283975000D03*
X180805000Y-282325000D03*
%TD*%
D11*
%TO.C,A5_21_R2*%
X160500000Y-197450000D03*
X160500000Y-199100000D03*
%TD*%
D34*
%TO.C,A6_23_D1*%
X221400000Y-61550000D03*
X221400000Y-64850000D03*
%TD*%
D12*
%TO.C,B4_21_R2*%
X172000000Y-230100000D03*
X172000000Y-228450000D03*
%TD*%
D22*
%TO.C,R133*%
X152775000Y-41900000D03*
X151125000Y-41900000D03*
%TD*%
D13*
%TO.C,B0_23_D1*%
X286050000Y-217600000D03*
X286050000Y-214300000D03*
%TD*%
D19*
%TO.C,RPB5*%
X176950000Y-34100000D03*
X178600000Y-34100000D03*
%TD*%
D12*
%TO.C,B1_20_R2*%
X159671600Y-165570816D03*
X159671600Y-163920816D03*
%TD*%
D11*
%TO.C,A0_23_R2*%
X215785000Y-166850000D03*
X215785000Y-168500000D03*
%TD*%
%TO.C,A5_20_R2*%
X158671600Y-132920816D03*
X158671600Y-134570816D03*
%TD*%
D26*
%TO.C,JST_PH_FEMALE_FSR1*%
X124200000Y-42200000D03*
X126200000Y-42200000D03*
D27*
X121800000Y-39950000D03*
X128600000Y-39950000D03*
%TD*%
D13*
%TO.C,B6_22_D1*%
X267000000Y-236650000D03*
X267000000Y-233350000D03*
%TD*%
%TO.C,B1_23_D1*%
X267000000Y-217600000D03*
X267000000Y-214300000D03*
%TD*%
%TO.C,A0_22_D1*%
X90150000Y-221475000D03*
X90150000Y-218175000D03*
%TD*%
D11*
%TO.C,B5_23_R1*%
X305100000Y-172025000D03*
X305100000Y-173675000D03*
%TD*%
D15*
%TO.C,B5_21_C1*%
X174000000Y-228500000D03*
X174000000Y-230050000D03*
%TD*%
D17*
%TO.C,A4_20_C1*%
X163671600Y-134520816D03*
X163671600Y-132970816D03*
%TD*%
D15*
%TO.C,B4_20_C1*%
X168671600Y-163970816D03*
X168671600Y-165520816D03*
%TD*%
D12*
%TO.C,PULLUP_INTB_20*%
X172671600Y-141570816D03*
X172671600Y-139920816D03*
%TD*%
D11*
%TO.C,A4_20_R2*%
X162171600Y-132920816D03*
X162171600Y-134570816D03*
%TD*%
D12*
%TO.C,B6_21_R2*%
X179000000Y-230100000D03*
X179000000Y-228450000D03*
%TD*%
D13*
%TO.C,A4_22_D1*%
X90150000Y-240525000D03*
X90150000Y-237225000D03*
%TD*%
D21*
%TO.C,C62*%
X136125000Y-74400000D03*
X137675000Y-74400000D03*
%TD*%
D11*
%TO.C,B4_20_R1*%
X90150000Y-119750000D03*
X90150000Y-121400000D03*
%TD*%
D15*
%TO.C,B0_21_C1*%
X156500000Y-228500000D03*
X156500000Y-230050000D03*
%TD*%
D13*
%TO.C,A0_23_D1*%
X305100000Y-160450000D03*
X305100000Y-157150000D03*
%TD*%
%TO.C,B5_20_D1*%
X33000000Y-173850000D03*
X33000000Y-170550000D03*
%TD*%
D11*
%TO.C,A6_22_R2*%
X158805000Y-251325000D03*
X158805000Y-252975000D03*
%TD*%
D13*
%TO.C,B3_21_D1*%
X71100000Y-211950000D03*
X71100000Y-208650000D03*
%TD*%
D17*
%TO.C,A2_21_C1*%
X172500000Y-199050000D03*
X172500000Y-197500000D03*
%TD*%
%TO.C,C69*%
X155100000Y-70650000D03*
X155100000Y-69100000D03*
%TD*%
D15*
%TO.C,C70*%
X140400000Y-64325000D03*
X140400000Y-65875000D03*
%TD*%
%TO.C,B5_23_C1*%
X211785000Y-197900000D03*
X211785000Y-199450000D03*
%TD*%
D11*
%TO.C,B0_20_R1*%
X90150000Y-100700000D03*
X90150000Y-102350000D03*
%TD*%
D35*
%TO.C,Y2*%
X127600000Y-66450000D03*
X127600000Y-75950000D03*
%TD*%
D11*
%TO.C,A4_23_R2*%
X201785000Y-166850000D03*
X201785000Y-168500000D03*
%TD*%
D20*
%TO.C,MCP23017_ADD21*%
X159880000Y-218475000D03*
X161150000Y-218475000D03*
X162420000Y-218475000D03*
X163690000Y-218475000D03*
X164960000Y-218475000D03*
X166230000Y-218475000D03*
X167500000Y-218475000D03*
X168770000Y-218475000D03*
X170040000Y-218475000D03*
X171310000Y-218475000D03*
X172580000Y-218475000D03*
X173850000Y-218475000D03*
X175120000Y-218475000D03*
X176390000Y-218475000D03*
X176390000Y-209175000D03*
X175120000Y-209175000D03*
X173850000Y-209175000D03*
X172580000Y-209175000D03*
X171310000Y-209175000D03*
X170040000Y-209175000D03*
X168770000Y-209175000D03*
X167500000Y-209175000D03*
X166230000Y-209175000D03*
X164960000Y-209175000D03*
X163690000Y-209175000D03*
X162420000Y-209175000D03*
X161150000Y-209175000D03*
X159880000Y-209175000D03*
%TD*%
D15*
%TO.C,C73*%
X158700000Y-38700000D03*
X158700000Y-40250000D03*
%TD*%
D11*
%TO.C,A2_21_R2*%
X171000000Y-197450000D03*
X171000000Y-199100000D03*
%TD*%
D15*
%TO.C,B7_22_C1*%
X182805000Y-282375000D03*
X182805000Y-283925000D03*
%TD*%
D12*
%TO.C,RESET_PULLUP_20*%
X174500000Y-141570816D03*
X174500000Y-139920816D03*
%TD*%
D11*
%TO.C,A1_20_R2*%
X172671600Y-132920816D03*
X172671600Y-134570816D03*
%TD*%
D15*
%TO.C,B1_20_C1*%
X158171600Y-163970816D03*
X158171600Y-165520816D03*
%TD*%
D12*
%TO.C,B5_23_R2*%
X213285000Y-199500000D03*
X213285000Y-197850000D03*
%TD*%
D11*
%TO.C,R17*%
X126100000Y-48275000D03*
X126100000Y-49925000D03*
%TD*%
%TO.C,B6_21_R1*%
X52050000Y-234050000D03*
X52050000Y-235700000D03*
%TD*%
D17*
%TO.C,A1_20_C1*%
X174171600Y-134520816D03*
X174171600Y-132970816D03*
%TD*%
D13*
%TO.C,A7_20_D1*%
X71100000Y-116700000D03*
X71100000Y-113400000D03*
%TD*%
D11*
%TO.C,B0_21_R1*%
X90150000Y-176900000D03*
X90150000Y-178550000D03*
%TD*%
%TO.C,B1_23_R1*%
X267000000Y-210125000D03*
X267000000Y-211775000D03*
%TD*%
D15*
%TO.C,B5_20_C1*%
X172171600Y-163970816D03*
X172171600Y-165520816D03*
%TD*%
D11*
%TO.C,A7_22_R2*%
X157250000Y-251350000D03*
X157250000Y-253000000D03*
%TD*%
D12*
%TO.C,B5_22_R2*%
X177305000Y-283975000D03*
X177305000Y-282325000D03*
%TD*%
D13*
%TO.C,B0_20_D1*%
X90150000Y-107175000D03*
X90150000Y-103875000D03*
%TD*%
D12*
%TO.C,A6_23_R1*%
X221400000Y-68600000D03*
X221400000Y-66950000D03*
%TD*%
D11*
%TO.C,A6_23_R2*%
X194785000Y-166850000D03*
X194785000Y-168500000D03*
%TD*%
%TO.C,A0_20_R2*%
X176171600Y-132920816D03*
X176171600Y-134570816D03*
%TD*%
%TO.C,B4_22_R1*%
X305100000Y-229175000D03*
X305100000Y-230825000D03*
%TD*%
%TO.C,B3_23_R1*%
X286050000Y-191075000D03*
X286050000Y-192725000D03*
%TD*%
D15*
%TO.C,B3_20_C1*%
X165171600Y-163970816D03*
X165171600Y-165520816D03*
%TD*%
D12*
%TO.C,R130*%
X145500000Y-65125000D03*
X145500000Y-63475000D03*
%TD*%
%TO.C,B7_23_R2*%
X219035000Y-199475000D03*
X219035000Y-197825000D03*
%TD*%
D17*
%TO.C,A7_20_C1*%
X153171600Y-134520816D03*
X153171600Y-132970816D03*
%TD*%
D25*
%TO.C,D59*%
X148200000Y-39960000D03*
X148200000Y-38800000D03*
%TD*%
D11*
%TO.C,B7_21_R1*%
X71100000Y-224525000D03*
X71100000Y-226175000D03*
%TD*%
D21*
%TO.C,C64*%
X122625000Y-75400000D03*
X124175000Y-75400000D03*
%TD*%
D11*
%TO.C,A4_20_R1*%
X71100000Y-91175000D03*
X71100000Y-92825000D03*
%TD*%
%TO.C,B5_22_R1*%
X286050000Y-229175000D03*
X286050000Y-230825000D03*
%TD*%
D36*
%TO.C,Y1*%
X137400000Y-69100000D03*
X131900000Y-69100000D03*
X131900000Y-72300000D03*
X137400000Y-72300000D03*
%TD*%
D11*
%TO.C,B6_22_R1*%
X267000000Y-229175000D03*
X267000000Y-230825000D03*
%TD*%
%TO.C,A2_23_R2*%
X208785000Y-166850000D03*
X208785000Y-168500000D03*
%TD*%
%TO.C,A6_20_R1*%
X52050000Y-119750000D03*
X52050000Y-121400000D03*
%TD*%
D12*
%TO.C,B1_22_R2*%
X163305000Y-283975000D03*
X163305000Y-282325000D03*
%TD*%
D15*
%TO.C,B4_23_C1*%
X208285000Y-197900000D03*
X208285000Y-199450000D03*
%TD*%
D11*
%TO.C,A6_21_R2*%
X157000000Y-197450000D03*
X157000000Y-199100000D03*
%TD*%
D13*
%TO.C,A2_21_D1*%
X52050000Y-183375000D03*
X52050000Y-180075000D03*
%TD*%
D12*
%TO.C,R7*%
X174171600Y-157070816D03*
X174171600Y-155420816D03*
%TD*%
D11*
%TO.C,B6_20_R1*%
X52050000Y-157850000D03*
X52050000Y-159500000D03*
%TD*%
%TO.C,A5_22_R2*%
X162305000Y-251325000D03*
X162305000Y-252975000D03*
%TD*%
%TO.C,A3_23_R1*%
X305100000Y-133925000D03*
X305100000Y-135575000D03*
%TD*%
D13*
%TO.C,B7_20_D1*%
X71100000Y-154800000D03*
X71100000Y-151500000D03*
%TD*%
D11*
%TO.C,B4_23_R1*%
X267000000Y-191075000D03*
X267000000Y-192725000D03*
%TD*%
%TO.C,B7_23_R1*%
X267000000Y-172025000D03*
X267000000Y-173675000D03*
%TD*%
D12*
%TO.C,PULLUP_INT_20*%
X170671600Y-141570816D03*
X170671600Y-139920816D03*
%TD*%
D18*
%TO.C,A7_23_C1*%
X100775000Y-49750000D03*
X99225000Y-49750000D03*
%TD*%
D13*
%TO.C,A1_23_D1*%
X286050000Y-160450000D03*
X286050000Y-157150000D03*
%TD*%
D12*
%TO.C,B1_23_R2*%
X199285000Y-199500000D03*
X199285000Y-197850000D03*
%TD*%
D13*
%TO.C,A2_22_D1*%
X52050000Y-259575000D03*
X52050000Y-256275000D03*
%TD*%
%TO.C,A5_22_D1*%
X33000000Y-288150000D03*
X33000000Y-284850000D03*
%TD*%
%TO.C,B2_22_D1*%
X71100000Y-288150000D03*
X71100000Y-284850000D03*
%TD*%
D11*
%TO.C,A4_22_R1*%
X90150000Y-234050000D03*
X90150000Y-235700000D03*
%TD*%
D17*
%TO.C,A1_23_C1*%
X213785000Y-168450000D03*
X213785000Y-166900000D03*
%TD*%
D15*
%TO.C,B4_21_C1*%
X170500000Y-228500000D03*
X170500000Y-230050000D03*
%TD*%
D17*
%TO.C,A1_22_C1*%
X177805000Y-252925000D03*
X177805000Y-251375000D03*
%TD*%
D18*
%TO.C,C63*%
X137575000Y-66800000D03*
X136025000Y-66800000D03*
%TD*%
D12*
%TO.C,B3_23_R2*%
X206285000Y-199500000D03*
X206285000Y-197850000D03*
%TD*%
%TO.C,B5_20_R2*%
X173671600Y-165570816D03*
X173671600Y-163920816D03*
%TD*%
%TO.C,PULLUP_INTB_22*%
X171440000Y-260525000D03*
X171440000Y-258875000D03*
%TD*%
D13*
%TO.C,B3_22_D1*%
X90150000Y-278625000D03*
X90150000Y-275325000D03*
%TD*%
D11*
%TO.C,A7_20_R1*%
X71100000Y-110225000D03*
X71100000Y-111875000D03*
%TD*%
D12*
%TO.C,B0_22_R2*%
X159805000Y-283975000D03*
X159805000Y-282325000D03*
%TD*%
D11*
%TO.C,B2_23_R1*%
X305100000Y-191075000D03*
X305100000Y-192725000D03*
%TD*%
%TO.C,B7_20_R1*%
X71100000Y-148325000D03*
X71100000Y-149975000D03*
%TD*%
D21*
%TO.C,C_DECOUPLAGE_23*%
X210825000Y-190600000D03*
X212375000Y-190600000D03*
%TD*%
D11*
%TO.C,A5_22_R1*%
X33000000Y-281675000D03*
X33000000Y-283325000D03*
%TD*%
D17*
%TO.C,A4_22_C1*%
X167305000Y-252925000D03*
X167305000Y-251375000D03*
%TD*%
D15*
%TO.C,B2_21_C1*%
X163500000Y-228500000D03*
X163500000Y-230050000D03*
%TD*%
D11*
%TO.C,A7_22_R1*%
X71100000Y-262625000D03*
X71100000Y-264275000D03*
%TD*%
%TO.C,A3_20_R1*%
X52050000Y-100700000D03*
X52050000Y-102350000D03*
%TD*%
D13*
%TO.C,B3_23_D1*%
X286050000Y-198550000D03*
X286050000Y-195250000D03*
%TD*%
%TO.C,B2_23_D1*%
X305100000Y-198550000D03*
X305100000Y-195250000D03*
%TD*%
%TO.C,A6_22_D1*%
X52050000Y-278625000D03*
X52050000Y-275325000D03*
%TD*%
%TO.C,B2_21_D1*%
X52050000Y-221475000D03*
X52050000Y-218175000D03*
%TD*%
D11*
%TO.C,A6_22_R1*%
X52050000Y-272150000D03*
X52050000Y-273800000D03*
%TD*%
%TO.C,RESET_PULLUP_22*%
X173600000Y-258775000D03*
X173600000Y-260425000D03*
%TD*%
D18*
%TO.C,C76*%
X141575000Y-34340000D03*
X140025000Y-34340000D03*
%TD*%
D11*
%TO.C,A3_23_R2*%
X205285000Y-166850000D03*
X205285000Y-168500000D03*
%TD*%
%TO.C,A1_21_R1*%
X33000000Y-186425000D03*
X33000000Y-188075000D03*
%TD*%
D22*
%TO.C,R132*%
X141700000Y-36040000D03*
X140050000Y-36040000D03*
%TD*%
D17*
%TO.C,A5_20_C1*%
X160171600Y-134520816D03*
X160171600Y-132970816D03*
%TD*%
D11*
%TO.C,B1_20_R1*%
X33000000Y-148325000D03*
X33000000Y-149975000D03*
%TD*%
%TO.C,A2_23_R1*%
X267000000Y-152975000D03*
X267000000Y-154625000D03*
%TD*%
D12*
%TO.C,B2_21_R2*%
X165000000Y-230100000D03*
X165000000Y-228450000D03*
%TD*%
D17*
%TO.C,A6_20_C1*%
X156671600Y-134520816D03*
X156671600Y-132970816D03*
%TD*%
D11*
%TO.C,A0_21_R1*%
X90150000Y-138800000D03*
X90150000Y-140450000D03*
%TD*%
D13*
%TO.C,B4_23_D1*%
X267000000Y-198550000D03*
X267000000Y-195250000D03*
%TD*%
D11*
%TO.C,A3_21_R1*%
X71100000Y-167375000D03*
X71100000Y-169025000D03*
%TD*%
D15*
%TO.C,B1_23_C1*%
X197785000Y-197900000D03*
X197785000Y-199450000D03*
%TD*%
D37*
X153798716Y-75332309D02*
X153798716Y-74832309D01*
X153798716Y-74832309D02*
X153608240Y-74832309D01*
X153608240Y-74832309D02*
X153560621Y-74856119D01*
X153560621Y-74856119D02*
X153536811Y-74879928D01*
X153536811Y-74879928D02*
X153513002Y-74927547D01*
X153513002Y-74927547D02*
X153513002Y-74998976D01*
X153513002Y-74998976D02*
X153536811Y-75046595D01*
X153536811Y-75046595D02*
X153560621Y-75070404D01*
X153560621Y-75070404D02*
X153608240Y-75094214D01*
X153608240Y-75094214D02*
X153798716Y-75094214D01*
X153132049Y-75070404D02*
X153060621Y-75094214D01*
X153060621Y-75094214D02*
X153036811Y-75118023D01*
X153036811Y-75118023D02*
X153013002Y-75165642D01*
X153013002Y-75165642D02*
X153013002Y-75237071D01*
X153013002Y-75237071D02*
X153036811Y-75284690D01*
X153036811Y-75284690D02*
X153060621Y-75308500D01*
X153060621Y-75308500D02*
X153108240Y-75332309D01*
X153108240Y-75332309D02*
X153298716Y-75332309D01*
X153298716Y-75332309D02*
X153298716Y-74832309D01*
X153298716Y-74832309D02*
X153132049Y-74832309D01*
X153132049Y-74832309D02*
X153084430Y-74856119D01*
X153084430Y-74856119D02*
X153060621Y-74879928D01*
X153060621Y-74879928D02*
X153036811Y-74927547D01*
X153036811Y-74927547D02*
X153036811Y-74975166D01*
X153036811Y-74975166D02*
X153060621Y-75022785D01*
X153060621Y-75022785D02*
X153084430Y-75046595D01*
X153084430Y-75046595D02*
X153132049Y-75070404D01*
X153132049Y-75070404D02*
X153298716Y-75070404D01*
X152536811Y-75332309D02*
X152822525Y-75332309D01*
X152679668Y-75332309D02*
X152679668Y-74832309D01*
X152679668Y-74832309D02*
X152727287Y-74903738D01*
X152727287Y-74903738D02*
X152774906Y-74951357D01*
X152774906Y-74951357D02*
X152822525Y-74975166D01*
X152084431Y-74832309D02*
X152322526Y-74832309D01*
X152322526Y-74832309D02*
X152346335Y-75070404D01*
X152346335Y-75070404D02*
X152322526Y-75046595D01*
X152322526Y-75046595D02*
X152274907Y-75022785D01*
X152274907Y-75022785D02*
X152155859Y-75022785D01*
X152155859Y-75022785D02*
X152108240Y-75046595D01*
X152108240Y-75046595D02*
X152084431Y-75070404D01*
X152084431Y-75070404D02*
X152060621Y-75118023D01*
X152060621Y-75118023D02*
X152060621Y-75237071D01*
X152060621Y-75237071D02*
X152084431Y-75284690D01*
X152084431Y-75284690D02*
X152108240Y-75308500D01*
X152108240Y-75308500D02*
X152155859Y-75332309D01*
X152155859Y-75332309D02*
X152274907Y-75332309D01*
X152274907Y-75332309D02*
X152322526Y-75308500D01*
X152322526Y-75308500D02*
X152346335Y-75284690D01*
X147698716Y-64032309D02*
X147698716Y-63532309D01*
X147698716Y-63532309D02*
X147508240Y-63532309D01*
X147508240Y-63532309D02*
X147460621Y-63556119D01*
X147460621Y-63556119D02*
X147436811Y-63579928D01*
X147436811Y-63579928D02*
X147413002Y-63627547D01*
X147413002Y-63627547D02*
X147413002Y-63698976D01*
X147413002Y-63698976D02*
X147436811Y-63746595D01*
X147436811Y-63746595D02*
X147460621Y-63770404D01*
X147460621Y-63770404D02*
X147508240Y-63794214D01*
X147508240Y-63794214D02*
X147698716Y-63794214D01*
X147032049Y-63770404D02*
X146960621Y-63794214D01*
X146960621Y-63794214D02*
X146936811Y-63818023D01*
X146936811Y-63818023D02*
X146913002Y-63865642D01*
X146913002Y-63865642D02*
X146913002Y-63937071D01*
X146913002Y-63937071D02*
X146936811Y-63984690D01*
X146936811Y-63984690D02*
X146960621Y-64008500D01*
X146960621Y-64008500D02*
X147008240Y-64032309D01*
X147008240Y-64032309D02*
X147198716Y-64032309D01*
X147198716Y-64032309D02*
X147198716Y-63532309D01*
X147198716Y-63532309D02*
X147032049Y-63532309D01*
X147032049Y-63532309D02*
X146984430Y-63556119D01*
X146984430Y-63556119D02*
X146960621Y-63579928D01*
X146960621Y-63579928D02*
X146936811Y-63627547D01*
X146936811Y-63627547D02*
X146936811Y-63675166D01*
X146936811Y-63675166D02*
X146960621Y-63722785D01*
X146960621Y-63722785D02*
X146984430Y-63746595D01*
X146984430Y-63746595D02*
X147032049Y-63770404D01*
X147032049Y-63770404D02*
X147198716Y-63770404D01*
X146746335Y-63532309D02*
X146413002Y-63532309D01*
X146413002Y-63532309D02*
X146627287Y-64032309D01*
D38*
X149419486Y-81372923D02*
X149419486Y-81172923D01*
X149419486Y-81172923D02*
X149343296Y-81172923D01*
X149343296Y-81172923D02*
X149324248Y-81182447D01*
X149324248Y-81182447D02*
X149314725Y-81191971D01*
X149314725Y-81191971D02*
X149305201Y-81211019D01*
X149305201Y-81211019D02*
X149305201Y-81239590D01*
X149305201Y-81239590D02*
X149314725Y-81258638D01*
X149314725Y-81258638D02*
X149324248Y-81268161D01*
X149324248Y-81268161D02*
X149343296Y-81277685D01*
X149343296Y-81277685D02*
X149419486Y-81277685D01*
X149152820Y-81268161D02*
X149124248Y-81277685D01*
X149124248Y-81277685D02*
X149114725Y-81287209D01*
X149114725Y-81287209D02*
X149105201Y-81306257D01*
X149105201Y-81306257D02*
X149105201Y-81334828D01*
X149105201Y-81334828D02*
X149114725Y-81353876D01*
X149114725Y-81353876D02*
X149124248Y-81363400D01*
X149124248Y-81363400D02*
X149143296Y-81372923D01*
X149143296Y-81372923D02*
X149219486Y-81372923D01*
X149219486Y-81372923D02*
X149219486Y-81172923D01*
X149219486Y-81172923D02*
X149152820Y-81172923D01*
X149152820Y-81172923D02*
X149133772Y-81182447D01*
X149133772Y-81182447D02*
X149124248Y-81191971D01*
X149124248Y-81191971D02*
X149114725Y-81211019D01*
X149114725Y-81211019D02*
X149114725Y-81230066D01*
X149114725Y-81230066D02*
X149124248Y-81249114D01*
X149124248Y-81249114D02*
X149133772Y-81258638D01*
X149133772Y-81258638D02*
X149152820Y-81268161D01*
X149152820Y-81268161D02*
X149219486Y-81268161D01*
X148914725Y-81372923D02*
X149029010Y-81372923D01*
X148971867Y-81372923D02*
X148971867Y-81172923D01*
X148971867Y-81172923D02*
X148990915Y-81201495D01*
X148990915Y-81201495D02*
X149009963Y-81220542D01*
X149009963Y-81220542D02*
X149029010Y-81230066D01*
X148790915Y-81172923D02*
X148771868Y-81172923D01*
X148771868Y-81172923D02*
X148752820Y-81182447D01*
X148752820Y-81182447D02*
X148743296Y-81191971D01*
X148743296Y-81191971D02*
X148733772Y-81211019D01*
X148733772Y-81211019D02*
X148724249Y-81249114D01*
X148724249Y-81249114D02*
X148724249Y-81296733D01*
X148724249Y-81296733D02*
X148733772Y-81334828D01*
X148733772Y-81334828D02*
X148743296Y-81353876D01*
X148743296Y-81353876D02*
X148752820Y-81363400D01*
X148752820Y-81363400D02*
X148771868Y-81372923D01*
X148771868Y-81372923D02*
X148790915Y-81372923D01*
X148790915Y-81372923D02*
X148809963Y-81363400D01*
X148809963Y-81363400D02*
X148819487Y-81353876D01*
X148819487Y-81353876D02*
X148829010Y-81334828D01*
X148829010Y-81334828D02*
X148838534Y-81296733D01*
X148838534Y-81296733D02*
X148838534Y-81249114D01*
X148838534Y-81249114D02*
X148829010Y-81211019D01*
X148829010Y-81211019D02*
X148819487Y-81191971D01*
X148819487Y-81191971D02*
X148809963Y-81182447D01*
X148809963Y-81182447D02*
X148790915Y-81172923D01*
D39*
X161416041Y-93853600D02*
X161301755Y-93891695D01*
X161301755Y-93891695D02*
X161111279Y-93891695D01*
X161111279Y-93891695D02*
X161035088Y-93853600D01*
X161035088Y-93853600D02*
X160996993Y-93815504D01*
X160996993Y-93815504D02*
X160958898Y-93739314D01*
X160958898Y-93739314D02*
X160958898Y-93663123D01*
X160958898Y-93663123D02*
X160996993Y-93586933D01*
X160996993Y-93586933D02*
X161035088Y-93548838D01*
X161035088Y-93548838D02*
X161111279Y-93510742D01*
X161111279Y-93510742D02*
X161263660Y-93472647D01*
X161263660Y-93472647D02*
X161339850Y-93434552D01*
X161339850Y-93434552D02*
X161377945Y-93396457D01*
X161377945Y-93396457D02*
X161416041Y-93320266D01*
X161416041Y-93320266D02*
X161416041Y-93244076D01*
X161416041Y-93244076D02*
X161377945Y-93167885D01*
X161377945Y-93167885D02*
X161339850Y-93129790D01*
X161339850Y-93129790D02*
X161263660Y-93091695D01*
X161263660Y-93091695D02*
X161073183Y-93091695D01*
X161073183Y-93091695D02*
X160958898Y-93129790D01*
X160158897Y-93815504D02*
X160196993Y-93853600D01*
X160196993Y-93853600D02*
X160311278Y-93891695D01*
X160311278Y-93891695D02*
X160387469Y-93891695D01*
X160387469Y-93891695D02*
X160501755Y-93853600D01*
X160501755Y-93853600D02*
X160577945Y-93777409D01*
X160577945Y-93777409D02*
X160616040Y-93701219D01*
X160616040Y-93701219D02*
X160654136Y-93548838D01*
X160654136Y-93548838D02*
X160654136Y-93434552D01*
X160654136Y-93434552D02*
X160616040Y-93282171D01*
X160616040Y-93282171D02*
X160577945Y-93205980D01*
X160577945Y-93205980D02*
X160501755Y-93129790D01*
X160501755Y-93129790D02*
X160387469Y-93091695D01*
X160387469Y-93091695D02*
X160311278Y-93091695D01*
X160311278Y-93091695D02*
X160196993Y-93129790D01*
X160196993Y-93129790D02*
X160158897Y-93167885D01*
X159435088Y-93891695D02*
X159816040Y-93891695D01*
X159816040Y-93891695D02*
X159816040Y-93091695D01*
D40*
X81888346Y-64200828D02*
X81531203Y-65700828D01*
X81531203Y-65700828D02*
X81245489Y-64629400D01*
X81245489Y-64629400D02*
X80959774Y-65700828D01*
X80959774Y-65700828D02*
X80602632Y-64200828D01*
X80102631Y-65629400D02*
X79888346Y-65700828D01*
X79888346Y-65700828D02*
X79531203Y-65700828D01*
X79531203Y-65700828D02*
X79388346Y-65629400D01*
X79388346Y-65629400D02*
X79316917Y-65557971D01*
X79316917Y-65557971D02*
X79245488Y-65415114D01*
X79245488Y-65415114D02*
X79245488Y-65272257D01*
X79245488Y-65272257D02*
X79316917Y-65129400D01*
X79316917Y-65129400D02*
X79388346Y-65057971D01*
X79388346Y-65057971D02*
X79531203Y-64986542D01*
X79531203Y-64986542D02*
X79816917Y-64915114D01*
X79816917Y-64915114D02*
X79959774Y-64843685D01*
X79959774Y-64843685D02*
X80031203Y-64772257D01*
X80031203Y-64772257D02*
X80102631Y-64629400D01*
X80102631Y-64629400D02*
X80102631Y-64486542D01*
X80102631Y-64486542D02*
X80031203Y-64343685D01*
X80031203Y-64343685D02*
X79959774Y-64272257D01*
X79959774Y-64272257D02*
X79816917Y-64200828D01*
X79816917Y-64200828D02*
X79459774Y-64200828D01*
X79459774Y-64200828D02*
X79245488Y-64272257D01*
X78602632Y-64915114D02*
X78102632Y-64915114D01*
X77888346Y-65700828D02*
X78602632Y-65700828D01*
X78602632Y-65700828D02*
X78602632Y-64200828D01*
X78602632Y-64200828D02*
X77888346Y-64200828D01*
X76531203Y-65700828D02*
X77245489Y-65700828D01*
X77245489Y-65700828D02*
X77245489Y-64200828D01*
X68145489Y-66400828D02*
X68145489Y-64900828D01*
X68145489Y-64900828D02*
X67645489Y-65972257D01*
X67645489Y-65972257D02*
X67145489Y-64900828D01*
X67145489Y-64900828D02*
X67145489Y-66400828D01*
X66145488Y-64900828D02*
X65859774Y-64900828D01*
X65859774Y-64900828D02*
X65716917Y-64972257D01*
X65716917Y-64972257D02*
X65574060Y-65115114D01*
X65574060Y-65115114D02*
X65502631Y-65400828D01*
X65502631Y-65400828D02*
X65502631Y-65900828D01*
X65502631Y-65900828D02*
X65574060Y-66186542D01*
X65574060Y-66186542D02*
X65716917Y-66329400D01*
X65716917Y-66329400D02*
X65859774Y-66400828D01*
X65859774Y-66400828D02*
X66145488Y-66400828D01*
X66145488Y-66400828D02*
X66288346Y-66329400D01*
X66288346Y-66329400D02*
X66431203Y-66186542D01*
X66431203Y-66186542D02*
X66502631Y-65900828D01*
X66502631Y-65900828D02*
X66502631Y-65400828D01*
X66502631Y-65400828D02*
X66431203Y-65115114D01*
X66431203Y-65115114D02*
X66288346Y-64972257D01*
X66288346Y-64972257D02*
X66145488Y-64900828D01*
X64931202Y-66329400D02*
X64716917Y-66400828D01*
X64716917Y-66400828D02*
X64359774Y-66400828D01*
X64359774Y-66400828D02*
X64216917Y-66329400D01*
X64216917Y-66329400D02*
X64145488Y-66257971D01*
X64145488Y-66257971D02*
X64074059Y-66115114D01*
X64074059Y-66115114D02*
X64074059Y-65972257D01*
X64074059Y-65972257D02*
X64145488Y-65829400D01*
X64145488Y-65829400D02*
X64216917Y-65757971D01*
X64216917Y-65757971D02*
X64359774Y-65686542D01*
X64359774Y-65686542D02*
X64645488Y-65615114D01*
X64645488Y-65615114D02*
X64788345Y-65543685D01*
X64788345Y-65543685D02*
X64859774Y-65472257D01*
X64859774Y-65472257D02*
X64931202Y-65329400D01*
X64931202Y-65329400D02*
X64931202Y-65186542D01*
X64931202Y-65186542D02*
X64859774Y-65043685D01*
X64859774Y-65043685D02*
X64788345Y-64972257D01*
X64788345Y-64972257D02*
X64645488Y-64900828D01*
X64645488Y-64900828D02*
X64288345Y-64900828D01*
X64288345Y-64900828D02*
X64074059Y-64972257D01*
X63431203Y-66400828D02*
X63431203Y-64900828D01*
X134559774Y-58572257D02*
X134702632Y-58500828D01*
X134702632Y-58500828D02*
X134916917Y-58500828D01*
X134916917Y-58500828D02*
X135131203Y-58572257D01*
X135131203Y-58572257D02*
X135274060Y-58715114D01*
X135274060Y-58715114D02*
X135345489Y-58857971D01*
X135345489Y-58857971D02*
X135416917Y-59143685D01*
X135416917Y-59143685D02*
X135416917Y-59357971D01*
X135416917Y-59357971D02*
X135345489Y-59643685D01*
X135345489Y-59643685D02*
X135274060Y-59786542D01*
X135274060Y-59786542D02*
X135131203Y-59929400D01*
X135131203Y-59929400D02*
X134916917Y-60000828D01*
X134916917Y-60000828D02*
X134774060Y-60000828D01*
X134774060Y-60000828D02*
X134559774Y-59929400D01*
X134559774Y-59929400D02*
X134488346Y-59857971D01*
X134488346Y-59857971D02*
X134488346Y-59357971D01*
X134488346Y-59357971D02*
X134774060Y-59357971D01*
X133845489Y-60000828D02*
X133845489Y-58500828D01*
X133845489Y-58500828D02*
X132988346Y-60000828D01*
X132988346Y-60000828D02*
X132988346Y-58500828D01*
X132274060Y-60000828D02*
X132274060Y-58500828D01*
X132274060Y-58500828D02*
X131916917Y-58500828D01*
X131916917Y-58500828D02*
X131702631Y-58572257D01*
X131702631Y-58572257D02*
X131559774Y-58715114D01*
X131559774Y-58715114D02*
X131488345Y-58857971D01*
X131488345Y-58857971D02*
X131416917Y-59143685D01*
X131416917Y-59143685D02*
X131416917Y-59357971D01*
X131416917Y-59357971D02*
X131488345Y-59643685D01*
X131488345Y-59643685D02*
X131559774Y-59786542D01*
X131559774Y-59786542D02*
X131702631Y-59929400D01*
X131702631Y-59929400D02*
X131916917Y-60000828D01*
X131916917Y-60000828D02*
X132274060Y-60000828D01*
D39*
X171754136Y-37891695D02*
X171258898Y-37891695D01*
X171258898Y-37891695D02*
X171525564Y-38196457D01*
X171525564Y-38196457D02*
X171411279Y-38196457D01*
X171411279Y-38196457D02*
X171335088Y-38234552D01*
X171335088Y-38234552D02*
X171296993Y-38272647D01*
X171296993Y-38272647D02*
X171258898Y-38348838D01*
X171258898Y-38348838D02*
X171258898Y-38539314D01*
X171258898Y-38539314D02*
X171296993Y-38615504D01*
X171296993Y-38615504D02*
X171335088Y-38653600D01*
X171335088Y-38653600D02*
X171411279Y-38691695D01*
X171411279Y-38691695D02*
X171639850Y-38691695D01*
X171639850Y-38691695D02*
X171716041Y-38653600D01*
X171716041Y-38653600D02*
X171754136Y-38615504D01*
X170916040Y-38615504D02*
X170877945Y-38653600D01*
X170877945Y-38653600D02*
X170916040Y-38691695D01*
X170916040Y-38691695D02*
X170954136Y-38653600D01*
X170954136Y-38653600D02*
X170916040Y-38615504D01*
X170916040Y-38615504D02*
X170916040Y-38691695D01*
X170611279Y-37891695D02*
X170116041Y-37891695D01*
X170116041Y-37891695D02*
X170382707Y-38196457D01*
X170382707Y-38196457D02*
X170268422Y-38196457D01*
X170268422Y-38196457D02*
X170192231Y-38234552D01*
X170192231Y-38234552D02*
X170154136Y-38272647D01*
X170154136Y-38272647D02*
X170116041Y-38348838D01*
X170116041Y-38348838D02*
X170116041Y-38539314D01*
X170116041Y-38539314D02*
X170154136Y-38615504D01*
X170154136Y-38615504D02*
X170192231Y-38653600D01*
X170192231Y-38653600D02*
X170268422Y-38691695D01*
X170268422Y-38691695D02*
X170496993Y-38691695D01*
X170496993Y-38691695D02*
X170573184Y-38653600D01*
X170573184Y-38653600D02*
X170611279Y-38615504D01*
X169887469Y-37891695D02*
X169620802Y-38691695D01*
X169620802Y-38691695D02*
X169354136Y-37891695D01*
X159416041Y-84853600D02*
X159301755Y-84891695D01*
X159301755Y-84891695D02*
X159111279Y-84891695D01*
X159111279Y-84891695D02*
X159035088Y-84853600D01*
X159035088Y-84853600D02*
X158996993Y-84815504D01*
X158996993Y-84815504D02*
X158958898Y-84739314D01*
X158958898Y-84739314D02*
X158958898Y-84663123D01*
X158958898Y-84663123D02*
X158996993Y-84586933D01*
X158996993Y-84586933D02*
X159035088Y-84548838D01*
X159035088Y-84548838D02*
X159111279Y-84510742D01*
X159111279Y-84510742D02*
X159263660Y-84472647D01*
X159263660Y-84472647D02*
X159339850Y-84434552D01*
X159339850Y-84434552D02*
X159377945Y-84396457D01*
X159377945Y-84396457D02*
X159416041Y-84320266D01*
X159416041Y-84320266D02*
X159416041Y-84244076D01*
X159416041Y-84244076D02*
X159377945Y-84167885D01*
X159377945Y-84167885D02*
X159339850Y-84129790D01*
X159339850Y-84129790D02*
X159263660Y-84091695D01*
X159263660Y-84091695D02*
X159073183Y-84091695D01*
X159073183Y-84091695D02*
X158958898Y-84129790D01*
X158616040Y-84891695D02*
X158616040Y-84091695D01*
X158616040Y-84091695D02*
X158425564Y-84091695D01*
X158425564Y-84091695D02*
X158311278Y-84129790D01*
X158311278Y-84129790D02*
X158235088Y-84205980D01*
X158235088Y-84205980D02*
X158196993Y-84282171D01*
X158196993Y-84282171D02*
X158158897Y-84434552D01*
X158158897Y-84434552D02*
X158158897Y-84548838D01*
X158158897Y-84548838D02*
X158196993Y-84701219D01*
X158196993Y-84701219D02*
X158235088Y-84777409D01*
X158235088Y-84777409D02*
X158311278Y-84853600D01*
X158311278Y-84853600D02*
X158425564Y-84891695D01*
X158425564Y-84891695D02*
X158616040Y-84891695D01*
X157854136Y-84663123D02*
X157473183Y-84663123D01*
X157930326Y-84891695D02*
X157663659Y-84091695D01*
X157663659Y-84091695D02*
X157396993Y-84891695D01*
M02*
