M48
; DRILL file {KiCad 9.0.5} date 2026-03-31T15:22:02+0200
; FORMAT={-:-/ absolute / metric / decimal}
; #@! TF.CreationDate,2026-03-31T15:22:02+02:00
; #@! TF.GenerationSoftware,Kicad,Pcbnew,9.0.5
; #@! TF.FileFunction,Plated,1,2,PTH
FMAT,2
METRIC
; #@! TA.AperFunction,Plated,PTH,ViaDrill
T1C0.300
; #@! TA.AperFunction,Plated,PTH,ViaDrill
T2C0.400
; #@! TA.AperFunction,Plated,PTH,ComponentDrill
T3C0.600
; #@! TA.AperFunction,Plated,PTH,ComponentDrill
T4C1.000
; #@! TA.AperFunction,Plated,PTH,ComponentDrill
T5C1.500
; #@! TA.AperFunction,Plated,PTH,ComponentDrill
T6C2.500
%
G90
G05
T1
X29.281Y-105.435
X29.283Y-166.155
X29.309Y-308.595
X29.315Y-313.276
X29.317Y-305.9
X29.317Y-249.965
X29.321Y-290.243
X29.323Y-133.032
X29.328Y-74.658
X29.332Y-145.592
X29.342Y-62.221
X29.348Y-135.573
X29.369Y-97.46
X29.372Y-153.656
X29.374Y-112.865
X29.377Y-148.256
X29.386Y-262.635
X29.404Y-99.925
X29.411Y-191.384
X29.414Y-277.929
X29.424Y-115.243
X29.425Y-71.795
X29.426Y-295.268
X29.433Y-48.991
X29.454Y-163.59
X29.457Y-269.936
X29.476Y-285.101
X29.477Y-137.907
X29.48Y-102.487
X29.482Y-247.106
X29.487Y-82.404
X29.494Y-92.496
X29.498Y-140.622
X29.5Y-227.182
X29.505Y-242.555
X29.515Y-41.881
X29.519Y-203.815
X29.52Y-77.524
X29.522Y-224.843
X29.552Y-301.004
X29.555Y-245.049
X29.558Y-59.331
X29.559Y-171.348
X29.567Y-89.54
X29.57Y-56.638
X29.572Y-107.608
X29.58Y-150.657
X29.586Y-217.039
X29.599Y-128.277
X29.601Y-219.306
X29.602Y-109.862
X29.61Y-142.972
X29.612Y-64.8
X29.613Y-211.772
X29.62Y-234.769
X29.621Y-161.168
X29.631Y-79.671
X29.633Y-260.291
X29.634Y-272.591
X29.638Y-275.061
X29.639Y-196.668
X29.641Y-34.108
X29.658Y-298.341
X29.689Y-282.879
X29.7Y-315.783
X29.705Y-199.045
X29.711Y-252.414
X29.721Y-214.284
X29.723Y-292.879
X29.726Y-209.175
X29.73Y-221.81
X29.731Y-66.873
X29.731Y-229.757
X29.737Y-201.507
X29.738Y-156.174
X29.753Y-189.247
X29.772Y-178.562
X29.773Y-158.334
X29.776Y-120.182
X29.781Y-267.813
X29.792Y-85.143
X29.794Y-38.729
X29.795Y-310.539
X29.796Y-303.503
X29.802Y-43.864
X29.803Y-54.29
X29.809Y-173.516
X29.822Y-51.587
X29.831Y-254.976
X29.833Y-239.622
X29.834Y-117.646
X29.855Y-125.572
X29.863Y-257.23
X29.869Y-168.896
X29.88Y-207.056
X29.881Y-46.449
X29.885Y-280.345
X29.885Y-87.54
X29.889Y-94.813
X29.891Y-130.803
X29.891Y-36.842
X29.893Y-181.373
X29.894Y-288.179
X29.898Y-237.305
X29.913Y-194.033
X29.924Y-176.202
X29.928Y-186.524
X29.936Y-183.642
X29.941Y-265.069
X29.964Y-122.566
X29.981Y-69.731
X29.984Y-231.848
X31.827Y-315.695
X31.832Y-305.778
X31.833Y-237.342
X31.846Y-100.293
X31.849Y-222.187
X31.85Y-153.114
X31.862Y-252.653
X31.873Y-163.379
X31.876Y-254.941
X31.888Y-184.172
X31.891Y-66.697
X31.894Y-87.487
X31.894Y-79.686
X31.916Y-303.157
X31.921Y-275.02
X31.923Y-77.054
X31.934Y-292.971
X31.939Y-84.542
X31.945Y-239.63
X31.953Y-46.503
X31.966Y-59.527
X31.966Y-140.506
X31.983Y-143.467
X32.017Y-54.549
X32.051Y-176.499
X32.052Y-297.874
X32.058Y-257.687
X32.06Y-278.144
X32.08Y-69.763
X32.086Y-72.066
X32.102Y-216.608
X32.114Y-313.098
X32.116Y-219.562
X32.135Y-122.693
X32.145Y-295.469
X32.149Y-74.315
X32.151Y-36.379
X32.153Y-39.148
X32.16Y-229.236
X32.161Y-191.208
X32.193Y-267.727
X32.199Y-214.501
X32.209Y-272.403
X32.218Y-308.02
X32.226Y-64.611
X32.233Y-138.353
X32.233Y-56.891
X32.254Y-160.949
X32.262Y-199.348
X32.266Y-115.001
X32.296Y-145.986
X32.299Y-196.72
X32.319Y-104.987
X32.342Y-33.899
X32.363Y-300.421
X32.376Y-62.078
X32.381Y-44.215
X32.406Y-234.915
X32.412Y-290.663
X32.413Y-178.47
X32.416Y-201.68
X32.417Y-310.903
X32.433Y-181.261
X32.461Y-120.24
X32.462Y-102.841
X32.465Y-125.291
X32.511Y-81.924
X32.522Y-158.217
X33.0Y-89.5
X33.0Y-128.0
X33.0Y-147.5
X33.0Y-166.25
X33.0Y-185.5
X33.0Y-204.5
X33.0Y-223.5
X33.0Y-261.0
X33.0Y-280.0
X33.25Y-108.75
X33.25Y-242.5
X34.348Y-155.868
X34.358Y-265.225
X34.36Y-150.949
X34.365Y-188.663
X34.374Y-34.245
X34.375Y-59.344
X34.378Y-181.633
X34.386Y-49.254
X34.387Y-247.44
X34.396Y-214.254
X34.407Y-43.886
X34.411Y-221.787
X34.412Y-316.053
X34.415Y-168.614
X34.416Y-54.558
X34.42Y-257.629
X34.429Y-74.761
X34.432Y-191.708
X34.432Y-160.771
X34.439Y-275.105
X34.445Y-132.865
X34.46Y-216.913
X34.466Y-51.928
X34.475Y-292.889
X34.495Y-201.836
X34.53Y-196.431
X34.532Y-117.836
X34.544Y-236.9
X34.547Y-179.025
X34.553Y-145.846
X34.562Y-57.198
X34.566Y-303.407
X34.573Y-87.424
X34.593Y-300.588
X34.632Y-270.252
X34.641Y-272.714
X34.643Y-77.258
X34.648Y-219.474
X34.654Y-64.705
X34.659Y-41.657
X34.664Y-199.312
X34.666Y-252.258
X34.678Y-295.499
X34.682Y-39.064
X34.687Y-305.614
X34.691Y-259.87
X34.692Y-229.456
X34.701Y-194.205
X34.707Y-244.653
X34.709Y-105.217
X34.709Y-120.435
X34.709Y-153.259
X34.732Y-297.929
X34.737Y-313.508
X34.757Y-224.329
X34.757Y-61.657
X34.759Y-46.949
X34.763Y-170.865
X34.771Y-209.317
X34.781Y-82.473
X34.781Y-69.384
X34.796Y-227.003
X34.8Y-140.595
X34.811Y-122.863
X34.812Y-283.023
X34.816Y-71.827
X34.826Y-285.446
X34.837Y-240.024
X34.839Y-80.026
X34.841Y-280.273
X34.841Y-143.252
X34.852Y-255.25
X34.857Y-36.31
X34.858Y-66.967
X34.86Y-262.364
X34.863Y-206.515
X34.866Y-184.205
X34.869Y-115.524
X34.877Y-125.593
X34.897Y-95.006
X34.905Y-232.255
X34.912Y-267.742
X34.934Y-290.548
X34.936Y-84.865
X34.938Y-99.833
X34.956Y-158.134
X34.96Y-92.647
X34.975Y-110.191
X34.98Y-102.363
X34.985Y-137.842
X34.986Y-176.364
X34.987Y-234.663
X35.039Y-112.515
X35.041Y-130.434
X35.064Y-107.838
X36.891Y-219.176
X36.943Y-46.774
X36.952Y-72.063
X36.955Y-151.001
X36.957Y-69.576
X36.963Y-198.797
X36.968Y-206.777
X36.991Y-257.293
X37.001Y-247.461
X37.004Y-295.861
X37.019Y-229.766
X37.021Y-84.468
X37.029Y-254.93
X37.034Y-191.679
X37.039Y-171.478
X37.041Y-82.457
X37.053Y-262.904
X37.065Y-130.712
X37.068Y-74.535
X37.082Y-39.182
X37.082Y-267.637
X37.085Y-226.715
X37.094Y-280.124
X37.094Y-41.312
X37.095Y-51.496
X37.11Y-305.93
X37.112Y-44.042
X37.127Y-188.638
X37.129Y-105.006
X37.147Y-264.783
X37.186Y-123.161
X37.196Y-125.785
X37.223Y-298.414
X37.238Y-132.791
X37.251Y-95.126
X37.261Y-196.744
X37.275Y-49.174
X37.278Y-153.213
X37.28Y-158.778
X37.286Y-239.496
X37.288Y-292.758
X37.298Y-114.926
X37.315Y-209.161
X37.317Y-315.936
X37.342Y-285.092
X37.344Y-272.57
X37.347Y-308.525
X37.353Y-61.598
X37.357Y-282.618
X37.368Y-79.694
X37.385Y-234.292
X37.386Y-76.873
X37.389Y-244.913
X37.393Y-102.27
X37.394Y-168.757
X37.407Y-178.742
X37.446Y-201.715
X37.446Y-66.71
X37.448Y-237.519
X37.453Y-166.133
X37.453Y-112.685
X37.455Y-140.588
X37.456Y-120.598
X37.485Y-224.684
X37.498Y-143.058
X37.528Y-216.677
X37.53Y-92.554
X37.531Y-303.219
X37.534Y-59.369
X37.536Y-181.523
X37.544Y-278.03
X37.566Y-300.458
X37.568Y-310.815
X37.579Y-313.577
X37.592Y-64.39
X37.592Y-109.917
X39.432Y-262.504
X39.434Y-206.614
X39.438Y-46.445
X39.447Y-196.602
X39.461Y-301.029
X39.469Y-254.808
X39.477Y-199.105
X39.492Y-44.087
X39.505Y-188.618
X39.511Y-280.349
X39.521Y-224.623
X39.527Y-265.034
X39.527Y-295.839
X39.542Y-168.792
X39.544Y-74.475
X39.566Y-130.209
X39.572Y-122.917
X39.579Y-102.431
X39.618Y-82.343
X39.627Y-302.912
X39.647Y-34.05
X39.653Y-204.076
X39.669Y-308.035
X39.705Y-79.636
X39.711Y-59.652
X39.717Y-292.736
X39.755Y-69.347
X39.757Y-41.738
X39.777Y-277.831
X39.787Y-237.002
X39.793Y-186.279
X39.793Y-64.635
X39.813Y-216.576
X39.814Y-71.979
X39.818Y-89.577
X39.829Y-163.574
X39.829Y-179.031
X39.831Y-148.371
X39.839Y-38.99
X39.846Y-275.382
X39.847Y-226.841
X39.854Y-315.722
X39.861Y-235.005
X39.867Y-110.05
X39.869Y-242.47
X39.894Y-244.584
X39.897Y-61.804
X39.913Y-128.267
X39.927Y-76.932
X39.952Y-310.582
X39.962Y-92.345
X39.969Y-140.658
X40.0Y-51.961
X40.003Y-282.798
X40.033Y-112.858
X40.043Y-66.734
X40.047Y-298.018
X40.067Y-150.907
X40.07Y-166.195
X40.107Y-120.366
X40.114Y-305.634
X40.131Y-313.355
X41.968Y-66.981
X41.994Y-79.54
X42.013Y-168.531
X42.028Y-145.957
X42.033Y-308.397
X42.052Y-59.176
X42.057Y-107.449
X42.07Y-244.966
X42.074Y-201.288
X42.087Y-148.134
X42.11Y-72.066
X42.122Y-127.688
X42.132Y-277.641
X42.14Y-209.277
X42.15Y-41.85
X42.175Y-310.487
X42.176Y-51.706
X42.195Y-239.895
X42.199Y-69.235
X42.206Y-115.48
X42.212Y-132.71
X42.228Y-166.319
X42.24Y-306.01
X42.259Y-300.523
X42.265Y-76.848
X42.292Y-265.016
X42.327Y-186.188
X42.328Y-275.584
X42.329Y-64.69
X42.342Y-125.785
X42.342Y-224.188
X42.346Y-151.034
X42.352Y-94.835
X42.387Y-87.044
X42.389Y-43.833
X42.393Y-53.991
X42.435Y-280.222
X42.438Y-163.269
X42.454Y-227.076
X42.462Y-109.898
X42.493Y-242.083
X42.495Y-130.496
X42.501Y-313.646
X42.502Y-188.691
X42.504Y-112.903
X42.506Y-92.302
X42.508Y-61.997
X42.51Y-56.898
X42.519Y-247.345
X42.519Y-161.045
X42.524Y-221.804
X42.545Y-207.042
X42.556Y-229.391
X42.556Y-74.954
X42.559Y-285.24
X42.567Y-36.249
X42.569Y-39.067
X42.573Y-260.037
X42.574Y-282.644
X42.577Y-34.075
X42.585Y-295.355
X42.588Y-204.191
X42.599Y-170.977
X42.606Y-316.23
X42.621Y-303.568
X42.626Y-293.289
X42.639Y-262.636
X42.644Y-297.985
X42.65Y-89.537
X42.655Y-191.661
X42.685Y-183.619
X44.506Y-161.279
X44.516Y-199.3
X44.521Y-61.782
X44.535Y-64.787
X44.552Y-201.713
X44.574Y-305.601
X44.577Y-316.034
X44.606Y-308.218
X44.68Y-77.08
X44.697Y-123.205
X44.721Y-54.29
X44.723Y-49.056
X44.727Y-115.192
X44.732Y-275.594
X44.742Y-74.538
X44.756Y-33.995
X44.792Y-71.79
X44.794Y-257.671
X44.8Y-125.337
X44.824Y-163.78
X44.84Y-313.199
X44.845Y-237.376
X44.846Y-89.727
X44.879Y-87.362
X44.882Y-300.667
X44.897Y-85.028
X44.905Y-310.614
X44.925Y-69.757
X44.927Y-297.924
X44.934Y-240.042
X44.934Y-278.102
X44.985Y-181.02
X44.998Y-219.566
X45.045Y-38.75
X45.054Y-303.175
X45.089Y-191.288
X45.094Y-56.641
X45.108Y-293.082
X45.119Y-229.542
X45.125Y-295.353
X45.134Y-67.115
X45.152Y-51.43
X45.161Y-59.642
X45.161Y-104.961
X45.162Y-41.71
X45.182Y-143.457
X47.051Y-72.217
X47.055Y-34.151
X47.09Y-303.34
X47.107Y-216.611
X47.16Y-158.365
X47.163Y-122.733
X47.166Y-295.883
X47.178Y-254.786
X47.196Y-120.281
X47.212Y-69.553
X47.218Y-272.538
X47.223Y-89.571
X47.229Y-49.072
X47.283Y-313.561
X47.303Y-39.004
X47.307Y-46.84
X47.307Y-85.003
X47.31Y-300.357
X47.32Y-310.904
X47.349Y-275.192
X47.373Y-198.908
X47.376Y-51.851
X47.395Y-64.684
X47.416Y-178.996
X47.42Y-67.19
X47.421Y-105.377
X47.448Y-163.861
X47.452Y-257.268
X47.463Y-237.498
X47.474Y-143.039
X47.477Y-74.553
X47.483Y-59.44
X47.496Y-277.881
X47.497Y-196.808
X47.502Y-62.021
X47.504Y-315.752
X47.518Y-87.498
X47.535Y-54.049
X47.537Y-161.064
X47.54Y-141.007
X47.54Y-287.888
X47.543Y-292.713
X47.559Y-219.312
X47.59Y-125.11
X47.595Y-308.582
X47.611Y-234.381
X47.615Y-102.388
X47.638Y-56.888
X47.647Y-201.393
X47.715Y-82.51
X47.718Y-305.581
X47.735Y-298.028
X47.739Y-239.484
X47.742Y-181.001
X49.593Y-59.72
X49.594Y-143.197
X49.603Y-234.404
X49.604Y-168.579
X49.619Y-222.052
X49.623Y-33.732
X49.655Y-186.12
X49.656Y-80.019
X49.672Y-260.012
X49.691Y-275.274
X49.702Y-109.989
X49.714Y-44.033
X49.725Y-84.583
X49.73Y-285.52
X49.749Y-196.64
X49.759Y-292.896
X49.762Y-295.748
X49.767Y-67.022
X49.773Y-115.196
X49.785Y-280.019
X49.8Y-201.912
X49.821Y-166.118
X49.833Y-257.184
X49.833Y-135.267
X49.837Y-92.161
X49.839Y-102.382
X49.853Y-204.228
X49.859Y-219.714
X49.86Y-308.253
X49.882Y-272.692
X49.892Y-255.016
X49.894Y-179.06
X49.9Y-64.211
X49.903Y-125.773
X49.908Y-140.634
X49.912Y-86.986
X49.912Y-288.122
X49.924Y-217.11
X49.924Y-62.156
X49.926Y-316.058
X49.957Y-239.739
X49.957Y-301.01
X49.97Y-54.199
X49.98Y-206.446
X49.983Y-163.34
X50.0Y-310.794
X50.005Y-72.068
X50.009Y-224.474
X50.013Y-74.775
X50.014Y-277.664
X50.017Y-105.311
X50.022Y-145.558
X50.048Y-181.213
X50.052Y-69.338
X50.055Y-147.937
X50.058Y-298.431
X50.06Y-262.929
X50.06Y-242.267
X50.071Y-46.64
X50.074Y-150.665
X50.076Y-265.201
X50.077Y-249.546
X50.08Y-160.695
X50.087Y-282.837
X50.103Y-199.017
X50.116Y-212.07
X50.126Y-107.35
X50.13Y-305.465
X50.13Y-313.505
X50.159Y-82.062
X50.181Y-95.013
X50.191Y-122.68
X50.204Y-51.749
X50.21Y-158.424
X50.211Y-49.224
X50.23Y-237.31
X50.247Y-89.874
X50.248Y-128.132
X50.281Y-120.633
X50.3Y-303.211
X50.305Y-183.968
X52.0Y-80.25
X52.0Y-99.5
X52.0Y-118.75
X52.0Y-156.75
X52.0Y-214.0
X52.0Y-252.25
X52.0Y-271.0
X52.0Y-289.25
X52.13Y-74.323
X52.138Y-133.27
X52.176Y-315.595
X52.215Y-282.672
X52.242Y-52.127
X52.25Y-137.75
X52.25Y-175.75
X52.25Y-194.75
X52.25Y-232.75
X52.258Y-34.223
X52.262Y-72.25
X52.28Y-41.365
X52.286Y-48.977
X52.287Y-127.631
X52.292Y-211.717
X52.326Y-109.893
X52.334Y-94.602
X52.352Y-280.179
X52.371Y-209.269
X52.381Y-151.184
X52.412Y-64.449
X52.438Y-44.157
X52.482Y-54.657
X52.499Y-262.463
X52.5Y-89.907
X52.506Y-303.223
X52.518Y-191.623
X52.53Y-249.742
X52.535Y-204.25
X52.535Y-265.144
X52.544Y-166.332
X52.548Y-241.992
X52.551Y-59.471
X52.556Y-168.926
X52.56Y-67.006
X52.608Y-173.992
X52.614Y-148.29
X52.669Y-310.689
X52.682Y-92.476
X52.689Y-313.378
X52.711Y-308.356
X52.711Y-69.782
X52.717Y-247.317
X52.734Y-300.868
X52.741Y-285.388
X52.75Y-135.806
X52.769Y-306.009
X52.787Y-61.757
X52.788Y-295.573
X52.793Y-224.204
X52.829Y-47.024
X52.83Y-229.432
X52.841Y-115.05
X54.676Y-143.231
X54.685Y-120.095
X54.694Y-66.682
X54.696Y-209.381
X54.698Y-123.011
X54.716Y-127.718
X54.716Y-219.417
X54.72Y-166.143
X54.765Y-292.933
X54.779Y-46.34
X54.796Y-242.439
X54.8Y-305.636
X54.801Y-69.647
X54.817Y-257.173
X54.832Y-140.737
X54.832Y-110.373
X54.835Y-282.903
X54.841Y-180.996
X54.842Y-199.297
X54.849Y-160.668
X54.856Y-89.981
X54.856Y-303.071
X54.871Y-316.149
X54.878Y-178.928
X54.879Y-295.631
X54.9Y-92.193
X54.905Y-189.277
X54.923Y-147.934
X54.924Y-229.306
X54.928Y-255.111
X54.94Y-300.816
X54.966Y-310.853
X54.968Y-173.962
X54.97Y-115.583
X54.972Y-79.873
X54.973Y-244.941
X54.996Y-275.608
X55.008Y-102.604
X55.009Y-82.276
X55.01Y-287.962
X55.033Y-247.187
X55.047Y-74.459
X55.049Y-64.803
X55.071Y-158.348
X55.114Y-130.491
X55.115Y-85.025
X55.119Y-33.898
X55.125Y-262.562
X55.145Y-135.789
X55.162Y-206.516
X55.172Y-285.572
X55.178Y-211.691
X55.187Y-61.753
X55.192Y-272.841
X55.195Y-313.721
X55.2Y-133.374
X55.21Y-280.321
X55.213Y-196.21
X55.23Y-97.634
X55.236Y-49.386
X55.246Y-216.946
X55.285Y-267.999
X55.285Y-290.601
X55.289Y-105.415
X55.293Y-204.227
X55.299Y-236.876
X55.307Y-54.638
X55.322Y-234.552
X55.339Y-224.709
X55.345Y-191.394
X55.349Y-308.544
X55.356Y-51.476
X55.361Y-59.299
X55.37Y-249.738
X55.377Y-71.944
X57.213Y-229.768
X57.215Y-206.82
X57.217Y-252.204
X57.231Y-74.271
X57.26Y-188.676
X57.268Y-135.771
X57.282Y-308.244
X57.291Y-305.533
X57.303Y-120.655
X57.318Y-209.534
X57.33Y-80.033
X57.331Y-64.724
X57.349Y-303.512
X57.355Y-100.163
X57.364Y-133.04
X57.39Y-95.071
X57.413Y-272.489
X57.425Y-237.018
X57.429Y-158.668
X57.434Y-130.719
X57.461Y-153.449
X57.463Y-290.763
X57.503Y-217.02
X57.505Y-67.278
X57.519Y-82.362
X57.528Y-123.236
X57.53Y-196.249
X57.542Y-191.358
X57.544Y-62.191
X57.547Y-48.943
X57.578Y-254.652
X57.586Y-69.59
X57.598Y-214.01
X57.61Y-285.657
X57.611Y-275.111
X57.616Y-293.193
X57.641Y-161.255
X57.66Y-140.513
X57.685Y-265.035
X57.696Y-85.002
X57.699Y-33.941
X57.727Y-170.863
X57.732Y-234.835
X57.733Y-315.751
X57.759Y-59.497
X57.76Y-115.578
X57.773Y-282.616
X57.797Y-54.31
X57.8Y-51.659
X57.811Y-310.767
X57.815Y-72.357
X57.816Y-179.104
X57.837Y-102.472
X57.852Y-244.472
X57.875Y-199.174
X57.886Y-247.421
X57.923Y-313.295
X57.924Y-173.35
X59.752Y-100.342
X59.752Y-92.329
X59.757Y-122.594
X59.768Y-64.329
X59.777Y-311.072
X59.778Y-44.464
X59.779Y-216.788
X59.791Y-115.59
X59.82Y-150.535
X59.844Y-272.75
X59.852Y-41.338
X59.866Y-316.06
X59.887Y-61.696
X59.892Y-270.231
X59.917Y-244.593
X59.918Y-178.724
X59.929Y-120.033
X59.95Y-293.086
X59.961Y-313.408
X59.984Y-158.451
X60.041Y-196.504
X60.043Y-54.02
X60.055Y-237.109
X60.057Y-130.736
X60.06Y-59.061
X60.074Y-303.412
X60.078Y-275.461
X60.097Y-140.507
X60.101Y-133.055
X60.111Y-102.589
X60.131Y-80.056
X60.187Y-39.132
X60.22Y-168.678
X60.228Y-214.416
X60.237Y-82.231
X60.244Y-153.54
X60.254Y-199.329
X60.285Y-66.729
X60.29Y-84.677
X60.292Y-249.571
X60.303Y-69.78
X60.307Y-206.939
X60.317Y-97.798
X60.317Y-171.432
X60.327Y-74.946
X60.334Y-211.99
X60.338Y-288.253
X60.339Y-188.913
X60.344Y-305.755
X60.349Y-34.141
X60.352Y-283.179
X60.388Y-234.593
X60.399Y-229.246
X60.403Y-290.758
X60.404Y-191.543
X60.405Y-252.532
X60.421Y-308.45
X60.447Y-160.784
X60.448Y-72.235
X60.458Y-51.836
X60.466Y-254.928
X62.293Y-41.695
X62.316Y-237.221
X62.331Y-168.769
X62.336Y-214.655
X62.368Y-155.563
X62.369Y-290.783
X62.382Y-175.907
X62.384Y-160.825
X62.407Y-315.721
X62.41Y-219.461
X62.413Y-140.516
X62.416Y-234.594
X62.421Y-267.472
X62.433Y-130.826
X62.439Y-69.529
X62.453Y-306.112
X62.453Y-275.61
X62.467Y-158.43
X62.472Y-142.999
X62.479Y-189.122
X62.515Y-179.091
X62.521Y-72.075
X62.523Y-288.06
X62.536Y-252.105
X62.537Y-100.154
X62.541Y-104.802
X62.547Y-61.886
X62.549Y-34.021
X62.565Y-194.183
X62.579Y-80.056
X62.579Y-120.553
X62.585Y-95.189
X62.596Y-254.804
X62.6Y-292.853
X62.61Y-102.246
X62.632Y-66.873
X62.633Y-59.593
X62.638Y-46.338
X62.639Y-122.97
X62.66Y-285.327
X62.697Y-231.83
X62.726Y-64.342
X62.744Y-199.348
X62.754Y-137.864
X62.756Y-39.197
X62.761Y-216.607
X62.768Y-44.384
X62.803Y-307.955
X62.828Y-82.403
X62.866Y-196.366
X62.867Y-97.581
X62.87Y-303.534
X62.881Y-247.246
X62.882Y-208.937
X62.926Y-151.085
X62.952Y-311.061
X62.955Y-180.987
X62.956Y-74.854
X62.956Y-211.675
X62.969Y-270.11
X62.969Y-272.608
X62.986Y-117.578
X62.99Y-313.289
X62.991Y-249.788
X62.998Y-84.488
X63.003Y-54.225
X63.003Y-295.96
X64.844Y-61.674
X64.858Y-64.596
X64.858Y-148.328
X64.873Y-209.063
X64.879Y-59.614
X64.898Y-249.777
X64.908Y-303.31
X64.942Y-206.603
X64.943Y-46.446
X64.997Y-69.269
X65.004Y-71.909
X65.006Y-196.276
X65.007Y-82.006
X65.009Y-229.306
X65.021Y-135.791
X65.053Y-313.44
X65.084Y-120.471
X65.087Y-49.322
X65.091Y-191.154
X65.107Y-97.296
X65.125Y-267.53
X65.136Y-287.704
X65.162Y-67.168
X65.181Y-158.179
X65.182Y-283.224
X65.191Y-306.046
X65.191Y-211.883
X65.209Y-244.778
X65.218Y-234.881
X65.226Y-277.747
X65.236Y-247.661
X65.268Y-153.053
X65.269Y-92.425
X65.294Y-311.0
X65.333Y-34.323
X65.343Y-173.687
X65.369Y-272.911
X65.386Y-308.32
X65.403Y-115.473
X65.439Y-74.756
X65.463Y-95.027
X65.469Y-87.535
X65.476Y-285.765
X65.48Y-315.575
X65.492Y-264.774
X65.517Y-301.007
X67.369Y-51.461
X67.372Y-311.019
X67.38Y-196.422
X67.386Y-189.278
X67.423Y-160.733
X67.424Y-274.981
X67.443Y-74.734
X67.446Y-247.346
X67.455Y-316.089
X67.46Y-295.402
X67.463Y-209.151
X67.474Y-79.683
X67.491Y-206.808
X67.496Y-43.903
X67.508Y-217.142
X67.518Y-191.298
X67.519Y-290.606
X67.521Y-151.172
X67.53Y-171.313
X67.53Y-282.898
X67.54Y-84.743
X67.544Y-305.978
X67.568Y-234.972
X67.568Y-117.489
X67.588Y-226.718
X67.607Y-64.376
X67.616Y-140.378
X67.616Y-285.156
X67.621Y-112.598
X67.626Y-49.43
X67.636Y-229.393
X67.644Y-249.697
X67.644Y-115.474
X67.659Y-244.583
X67.659Y-308.156
X67.666Y-102.415
X67.674Y-120.056
X67.676Y-313.524
X67.681Y-252.426
X67.691Y-132.954
X67.701Y-38.865
X67.716Y-214.588
X67.724Y-193.761
X67.735Y-288.265
X67.737Y-270.026
X67.737Y-97.736
X67.765Y-267.378
X67.77Y-122.985
X67.797Y-254.665
X67.803Y-199.014
X67.807Y-158.534
X67.835Y-211.972
X67.836Y-232.44
X67.843Y-264.79
X67.844Y-237.057
X67.849Y-71.823
X67.857Y-153.028
X67.861Y-66.843
X67.872Y-135.511
X67.895Y-92.402
X67.93Y-272.421
X67.932Y-95.252
X67.949Y-137.915
X67.962Y-175.937
X67.97Y-156.145
X67.974Y-100.033
X68.003Y-173.664
X68.02Y-62.072
X68.02Y-34.318
X68.03Y-81.972
X68.05Y-292.955
X68.05Y-41.654
X68.053Y-143.085
X68.058Y-178.684
X68.063Y-303.434
X69.909Y-84.564
X69.916Y-260.045
X69.936Y-306.084
X69.937Y-310.896
X69.954Y-308.418
X69.974Y-41.706
X69.979Y-255.234
X69.987Y-100.029
X69.989Y-315.757
X69.998Y-67.232
X70.041Y-79.709
X70.06Y-303.08
X70.085Y-161.111
X70.085Y-199.347
X70.096Y-313.494
X70.11Y-275.451
X70.13Y-290.464
X70.154Y-176.272
X70.155Y-51.433
X70.195Y-158.654
X70.212Y-236.931
X70.216Y-178.912
X70.224Y-295.539
X70.228Y-140.724
X70.236Y-74.621
X70.251Y-115.45
X70.253Y-196.237
X70.257Y-298.474
X70.264Y-234.631
X70.268Y-43.984
X70.288Y-72.444
X70.301Y-81.986
X70.305Y-267.631
X70.305Y-293.22
X70.344Y-300.849
X70.347Y-153.367
X70.35Y-143.51
X70.353Y-107.431
X70.373Y-272.803
X70.385Y-46.675
X70.387Y-64.625
X70.392Y-252.166
X70.463Y-214.447
X70.478Y-229.276
X70.48Y-120.257
X70.56Y-191.466
X70.606Y-137.91
X70.621Y-39.022
X70.75Y-223.25
X71.0Y-90.0
X71.0Y-109.5
X71.0Y-128.0
X71.0Y-147.5
X71.0Y-204.5
X71.0Y-242.5
X71.0Y-261.75
X71.0Y-281.0
X71.25Y-166.5
X71.25Y-185.5
X72.448Y-308.474
X72.457Y-153.227
X72.46Y-285.497
X72.49Y-130.384
X72.507Y-140.612
X72.507Y-305.474
X72.521Y-125.769
X72.524Y-247.481
X72.542Y-303.445
X72.555Y-188.823
X72.56Y-295.709
X72.577Y-315.74
X72.578Y-270.24
X72.58Y-222.001
X72.593Y-236.968
X72.635Y-120.017
X72.653Y-272.926
X72.66Y-293.225
X72.661Y-102.373
X72.662Y-282.686
X72.664Y-275.146
X72.673Y-114.946
X72.676Y-290.704
X72.685Y-41.385
X72.692Y-193.796
X72.697Y-232.236
X72.703Y-298.166
X72.711Y-39.316
X72.717Y-252.225
X72.724Y-313.527
X72.727Y-137.875
X72.735Y-34.198
X72.748Y-227.118
X72.751Y-92.122
X72.769Y-310.961
X72.773Y-84.473
X72.774Y-158.69
X72.776Y-209.537
X72.787Y-117.661
X72.793Y-191.687
X72.825Y-142.902
X72.837Y-44.452
X72.838Y-255.287
X72.842Y-178.831
X72.849Y-79.427
X72.858Y-196.618
X72.862Y-94.981
X72.873Y-245.066
X72.874Y-207.041
X72.874Y-229.8
X72.915Y-176.34
X72.92Y-265.063
X72.941Y-260.202
X72.965Y-301.011
X72.982Y-234.313
X72.996Y-107.868
X73.014Y-267.814
X73.016Y-49.296
X73.029Y-168.381
X73.039Y-214.509
X73.042Y-46.868
X73.049Y-113.061
X73.066Y-224.583
X73.067Y-150.936
X73.074Y-156.133
X73.1Y-133.145
X73.116Y-82.472
X73.118Y-171.282
X73.164Y-183.697
X75.012Y-153.081
X75.023Y-61.596
X75.041Y-188.568
X75.057Y-229.339
X75.075Y-79.605
X75.077Y-59.111
X75.085Y-219.355
X75.089Y-130.415
X75.1Y-206.444
X75.109Y-313.729
X75.111Y-267.381
X75.131Y-257.286
X75.137Y-306.126
X75.141Y-265.102
X75.153Y-72.044
X75.16Y-140.854
X75.168Y-222.139
X75.169Y-184.094
X75.195Y-56.926
X75.213Y-275.245
X75.218Y-234.499
X75.222Y-150.678
X75.255Y-308.593
X75.255Y-102.749
X75.263Y-44.092
X75.269Y-300.597
X75.272Y-64.326
X75.293Y-82.556
X75.297Y-272.78
X75.301Y-191.412
X75.304Y-39.205
X75.307Y-168.71
X75.32Y-54.041
X75.333Y-94.836
X75.368Y-115.474
X75.378Y-293.404
X75.387Y-41.959
X75.412Y-310.72
X75.422Y-260.365
X75.427Y-107.915
X75.432Y-49.576
X75.449Y-178.772
X75.451Y-112.943
X75.471Y-67.32
X75.477Y-315.807
X75.493Y-283.073
X75.493Y-247.192
X75.499Y-209.108
X75.5Y-298.316
X75.506Y-244.744
X75.521Y-36.354
X75.534Y-171.293
X75.539Y-125.086
X75.549Y-303.539
X75.554Y-33.63
X75.564Y-285.759
X75.575Y-85.011
X75.577Y-163.488
X75.583Y-142.914
X75.59Y-92.631
X75.628Y-133.127
X75.668Y-224.265
X75.689Y-46.825
X75.691Y-295.362
X75.704Y-226.707
X77.553Y-72.433
X77.561Y-102.545
X77.579Y-125.382
X77.591Y-49.204
X77.613Y-112.924
X77.616Y-206.907
X77.637Y-298.287
X77.658Y-280.165
X77.663Y-46.432
X77.663Y-295.658
X77.694Y-85.143
X77.704Y-82.113
X77.712Y-178.483
X77.731Y-33.924
X77.739Y-188.837
X77.753Y-168.308
X77.762Y-306.074
X77.787Y-107.892
X77.803Y-161.096
X77.805Y-74.614
X77.809Y-59.612
X77.811Y-150.718
X77.817Y-38.809
X77.827Y-315.657
X77.832Y-293.024
X77.837Y-57.083
X77.872Y-54.287
X77.882Y-282.676
X77.887Y-41.767
X77.902Y-219.128
X77.909Y-255.111
X77.915Y-61.829
X77.939Y-183.996
X77.942Y-265.234
X77.943Y-226.699
X77.963Y-313.041
X77.984Y-310.659
X78.022Y-66.941
X78.024Y-272.512
X78.046Y-64.465
X78.057Y-224.326
X78.075Y-140.968
X78.096Y-36.332
X78.117Y-275.514
X78.152Y-130.25
X78.174Y-237.167
X78.179Y-221.825
X78.191Y-92.197
X78.201Y-303.011
X78.203Y-308.523
X78.209Y-43.959
X78.227Y-262.794
X78.236Y-300.612
X78.236Y-198.929
X78.243Y-244.617
X80.092Y-76.886
X80.093Y-303.042
X80.094Y-293.3
X80.105Y-95.114
X80.106Y-226.895
X80.113Y-310.619
X80.117Y-64.41
X80.134Y-61.593
X80.16Y-262.553
X80.169Y-147.964
X80.21Y-110.2
X80.213Y-69.219
X80.214Y-151.152
X80.22Y-92.315
X80.231Y-57.165
X80.255Y-171.347
X80.255Y-207.017
X80.259Y-48.967
X80.266Y-34.283
X80.281Y-295.382
X80.299Y-41.774
X80.307Y-71.942
X80.316Y-224.207
X80.347Y-130.465
X80.358Y-36.196
X80.372Y-267.852
X80.376Y-315.77
X80.394Y-43.967
X80.41Y-260.311
X80.413Y-265.147
X80.434Y-305.774
X80.484Y-283.022
X80.523Y-59.657
X80.525Y-54.622
X80.528Y-186.612
X80.551Y-189.016
X80.555Y-300.648
X80.558Y-112.682
X80.568Y-313.626
X80.631Y-308.046
X80.641Y-39.153
X80.643Y-168.848
X80.653Y-285.427
X80.657Y-245.002
X80.673Y-46.498
X80.678Y-84.554
X80.679Y-280.512
X80.699Y-133.09
X80.711Y-74.942
X80.745Y-219.271
X80.763Y-247.176
X80.766Y-166.341
X80.766Y-208.892
X80.768Y-298.25
X80.783Y-67.008
X82.618Y-72.241
X82.635Y-64.34
X82.657Y-295.294
X82.698Y-74.922
X82.744Y-313.658
X82.759Y-316.114
X82.768Y-33.751
X82.772Y-308.418
X82.783Y-49.005
X82.8Y-69.53
X82.82Y-46.427
X82.864Y-56.963
X82.921Y-305.839
X82.925Y-61.848
X82.955Y-300.888
X82.973Y-82.3
X82.977Y-298.323
X83.01Y-66.814
X83.023Y-36.735
X83.051Y-76.941
X83.07Y-163.202
X83.111Y-293.066
X83.155Y-310.689
X83.199Y-54.115
X83.208Y-59.481
X83.216Y-303.114
X83.243Y-267.965
X83.272Y-41.398
X83.293Y-44.243
X83.31Y-257.837
X83.315Y-38.729
X85.148Y-36.476
X85.16Y-298.133
X85.175Y-59.259
X85.193Y-257.328
X85.202Y-313.669
X85.207Y-125.485
X85.219Y-181.554
X85.241Y-64.521
X85.244Y-254.649
X85.249Y-300.733
X85.29Y-303.556
X85.29Y-163.363
X85.35Y-201.302
X85.351Y-74.672
X85.355Y-81.963
X85.363Y-287.737
X85.376Y-54.377
X85.383Y-34.229
X85.455Y-67.276
X85.457Y-239.921
X85.461Y-61.664
X85.479Y-39.295
X85.486Y-311.124
X85.489Y-46.599
X85.529Y-143.194
X85.572Y-292.884
X85.582Y-84.506
X85.594Y-277.678
X85.605Y-77.473
X85.621Y-305.501
X85.63Y-56.806
X85.646Y-71.819
X85.651Y-48.998
X85.658Y-69.842
X85.68Y-41.792
X85.739Y-295.364
X85.749Y-219.241
X85.781Y-308.41
X85.803Y-43.953
X85.832Y-104.837
X85.844Y-315.994
X87.695Y-257.54
X87.699Y-105.316
X87.699Y-260.076
X87.729Y-166.004
X87.734Y-221.714
X87.735Y-46.551
X87.738Y-56.739
X87.746Y-148.354
X87.751Y-262.388
X87.754Y-300.572
X87.768Y-241.983
X87.771Y-130.574
X87.771Y-125.482
X87.771Y-127.851
X87.781Y-49.165
X87.786Y-239.705
X87.787Y-224.599
X87.813Y-84.739
X87.815Y-94.769
X87.825Y-168.611
X87.828Y-216.528
X87.828Y-36.777
X87.837Y-109.927
X87.84Y-298.342
X87.879Y-54.074
X87.879Y-178.854
X87.88Y-199.336
X87.89Y-69.478
X87.891Y-287.852
X87.9Y-313.404
X87.908Y-143.34
X87.91Y-310.557
X87.918Y-64.739
X87.922Y-219.542
X87.951Y-280.447
X87.951Y-92.232
X87.964Y-201.569
X87.967Y-102.862
X87.967Y-282.664
X87.991Y-305.566
X88.002Y-59.411
X88.013Y-183.592
X88.026Y-77.079
X88.03Y-292.785
X88.031Y-237.231
X88.043Y-66.704
X88.05Y-275.566
X88.099Y-316.266
X88.122Y-247.131
X88.125Y-186.464
X88.128Y-209.175
X88.128Y-163.457
X88.135Y-39.316
X88.165Y-112.494
X88.174Y-285.283
X88.177Y-295.365
X88.183Y-43.912
X88.196Y-160.88
X88.201Y-277.509
X88.209Y-61.625
X88.231Y-303.01
X88.245Y-72.174
X88.247Y-206.371
X88.259Y-244.824
X88.271Y-191.114
X88.272Y-254.86
X88.301Y-74.869
X88.306Y-82.259
X88.312Y-140.883
X88.313Y-107.328
X88.32Y-41.315
X88.329Y-181.453
X88.33Y-122.555
X88.351Y-145.597
X88.375Y-34.274
X88.378Y-308.249
X88.38Y-227.112
X88.382Y-150.954
X88.401Y-203.9
X90.226Y-310.793
X90.227Y-62.065
X90.247Y-82.481
X90.25Y-100.0
X90.25Y-118.75
X90.25Y-137.75
X90.25Y-156.5
X90.25Y-176.0
X90.25Y-195.0
X90.25Y-252.25
X90.25Y-271.5
X90.284Y-92.764
X90.304Y-128.168
X90.309Y-130.191
X90.321Y-298.256
X90.322Y-283.252
X90.329Y-303.486
X90.388Y-133.11
X90.398Y-85.134
X90.4Y-213.8
X90.419Y-280.427
X90.442Y-95.224
X90.448Y-148.073
X90.457Y-313.311
X90.46Y-71.787
X90.467Y-56.918
X90.474Y-209.111
X90.488Y-151.011
X90.492Y-242.614
X90.498Y-76.893
X90.5Y-233.0
X90.527Y-188.775
X90.545Y-166.137
X90.55Y-49.525
X90.564Y-300.803
X90.606Y-227.142
X90.625Y-67.155
X90.643Y-245.074
X90.654Y-34.255
X90.656Y-295.318
X90.66Y-109.919
X90.664Y-38.925
X90.685Y-224.597
X90.687Y-168.364
X90.701Y-316.001
X90.708Y-36.21
X90.714Y-204.231
X90.727Y-59.037
X90.729Y-206.899
X90.733Y-285.77
X90.737Y-305.967
X90.757Y-64.175
X90.788Y-46.415
X90.794Y-288.208
X90.798Y-41.664
X90.799Y-74.798
X90.804Y-69.507
X90.807Y-268.024
X90.834Y-247.303
X90.85Y-290.257
X90.856Y-308.026
X90.867Y-43.986
X90.867Y-293.08
X90.945Y-54.216
X92.777Y-176.206
X92.788Y-158.163
X92.804Y-127.934
X92.807Y-206.727
X92.82Y-196.785
X92.821Y-77.475
X92.841Y-300.498
X92.844Y-199.017
X92.855Y-140.522
X92.858Y-224.19
X92.868Y-120.462
X92.875Y-74.743
X92.882Y-308.263
X92.902Y-313.436
X92.905Y-102.895
X92.905Y-156.026
X92.931Y-237.402
X92.955Y-71.771
X92.99Y-64.495
X92.993Y-181.145
X93.002Y-142.945
X93.008Y-234.478
X93.009Y-283.075
X93.032Y-44.244
X93.033Y-150.879
X93.06Y-280.157
X93.07Y-178.705
X93.086Y-166.279
X93.095Y-59.154
X93.096Y-247.525
X93.099Y-67.177
X93.104Y-264.791
X93.105Y-33.723
X93.108Y-272.444
X93.117Y-315.625
X93.122Y-288.268
X93.149Y-105.369
X93.157Y-36.725
X93.17Y-69.229
X93.188Y-293.405
X93.189Y-245.113
X93.193Y-295.946
X93.206Y-39.062
X93.235Y-285.352
X93.242Y-84.461
X93.243Y-267.965
X93.243Y-122.863
X93.246Y-310.945
X93.264Y-227.343
X93.266Y-219.659
X93.277Y-203.893
X93.278Y-46.465
X93.283Y-48.871
X93.288Y-117.501
X93.289Y-56.553
X93.289Y-305.723
X93.289Y-168.865
X93.296Y-303.493
X93.304Y-92.143
X93.305Y-82.347
X93.307Y-135.787
X93.313Y-138.047
X93.318Y-275.044
X93.353Y-298.285
X93.376Y-41.249
X93.384Y-290.24
X93.396Y-54.607
X93.404Y-148.32
X93.41Y-95.161
X93.42Y-257.741
X93.421Y-110.002
X93.422Y-252.679
X93.426Y-254.794
X93.427Y-242.171
X93.433Y-160.757
X93.448Y-209.231
X93.461Y-216.562
X93.464Y-100.0
X93.477Y-62.013
X95.32Y-283.028
X95.331Y-56.659
X95.339Y-168.29
X95.346Y-100.336
X95.354Y-176.363
X95.354Y-140.679
X95.359Y-198.857
X95.398Y-305.58
X95.4Y-254.674
X95.424Y-237.241
X95.454Y-247.099
X95.454Y-209.286
X95.454Y-61.958
X95.462Y-252.109
X95.469Y-302.919
X95.474Y-293.181
X95.486Y-69.325
X95.506Y-34.3
X95.525Y-82.581
X95.526Y-138.402
X95.531Y-102.424
X95.536Y-295.488
X95.537Y-265.33
X95.55Y-226.873
X95.551Y-161.051
X95.592Y-59.109
X95.628Y-194.081
X95.631Y-77.413
X95.634Y-74.791
X95.641Y-64.136
X95.646Y-123.17
X95.665Y-268.024
X95.67Y-290.442
X95.672Y-307.992
X95.681Y-135.55
X95.689Y-275.467
X95.69Y-84.978
X95.69Y-49.359
X95.693Y-36.395
X95.73Y-206.453
X95.731Y-66.655
X95.732Y-315.992
X95.746Y-298.476
X95.748Y-120.459
X95.757Y-285.439
X95.777Y-244.662
X95.787Y-117.468
X95.787Y-46.444
X95.801Y-54.358
X95.844Y-44.242
X95.873Y-178.551
X95.912Y-92.369
X95.924Y-158.787
X95.924Y-313.549
X95.932Y-216.803
X95.946Y-196.357
X95.964Y-132.792
X95.971Y-311.125
X95.975Y-234.39
X95.979Y-272.882
X95.981Y-300.368
X95.984Y-287.814
X95.994Y-38.814
X95.994Y-94.926
X96.007Y-150.729
X96.01Y-155.82
X96.016Y-72.178
X96.025Y-41.376
X97.6Y-51.8
X97.85Y-133.054
X97.852Y-158.098
X97.857Y-102.508
X97.869Y-168.898
X97.875Y-123.169
X97.892Y-69.873
X97.895Y-273.08
X97.907Y-46.709
X97.953Y-297.871
X97.977Y-71.979
X98.028Y-62.139
X98.06Y-178.409
X98.081Y-288.136
X98.086Y-140.762
X98.086Y-285.323
X98.086Y-155.938
X98.095Y-290.86
X98.098Y-247.615
X98.116Y-117.92
X98.118Y-226.781
X98.12Y-244.685
X98.136Y-216.761
X98.138Y-94.964
X98.171Y-196.741
X98.186Y-64.526
X98.187Y-310.984
X98.188Y-308.457
X98.192Y-120.135
X98.205Y-316.186
X98.205Y-82.023
X98.207Y-209.145
X98.209Y-84.607
X98.211Y-306.038
X98.211Y-56.974
X98.215Y-77.317
X98.216Y-194.007
X98.236Y-33.829
X98.256Y-255.299
X98.269Y-160.834
X98.296Y-41.489
X98.31Y-300.649
X98.324Y-135.568
X98.325Y-36.498
X98.329Y-137.875
X98.339Y-206.964
X98.352Y-38.895
X98.37Y-150.99
X98.377Y-265.473
X98.385Y-234.651
X98.395Y-313.155
X98.404Y-252.438
X98.416Y-191.325
X98.433Y-293.234
X98.434Y-295.545
X98.437Y-44.235
X98.443Y-199.042
X98.453Y-303.131
X98.459Y-267.762
X98.462Y-236.909
X98.47Y-74.666
X98.482Y-59.741
X98.503Y-275.397
X98.507Y-66.996
X98.53Y-283.195
X98.532Y-176.146
X98.55Y-92.152
X98.563Y-100.1
X100.391Y-292.77
X100.403Y-176.279
X100.408Y-34.347
X100.409Y-66.652
X100.412Y-199.433
X100.417Y-308.487
X100.425Y-272.745
X100.461Y-82.585
X100.469Y-196.44
X100.487Y-254.839
X100.489Y-85.127
X100.517Y-158.381
X100.52Y-306.067
X100.524Y-94.915
X100.56Y-133.309
X100.577Y-245.095
X100.594Y-206.352
X100.596Y-69.829
X100.596Y-77.123
X100.607Y-247.12
X100.636Y-72.445
X100.668Y-155.987
X100.669Y-237.009
X100.674Y-56.502
X100.676Y-298.193
X100.691Y-265.256
X100.699Y-275.286
X100.718Y-123.157
X100.727Y-92.308
X100.73Y-282.92
X100.738Y-138.018
X100.745Y-252.327
X100.756Y-135.943
X100.762Y-181.073
X100.763Y-178.552
X100.766Y-150.623
X100.777Y-316.114
X100.78Y-59.26
X100.792Y-313.61
X100.803Y-191.123
X100.808Y-160.747
X100.826Y-194.297
X100.843Y-120.434
X100.849Y-168.586
X100.861Y-219.425
X100.873Y-62.015
X100.896Y-140.599
X100.923Y-295.961
X100.924Y-216.642
X100.941Y-285.753
X100.943Y-44.291
X100.95Y-36.705
X100.951Y-208.971
X100.954Y-303.086
X100.981Y-102.46
X100.997Y-288.251
X100.999Y-117.817
X101.014Y-300.62
X101.016Y-227.021
X101.043Y-100.356
X101.044Y-290.744
X101.047Y-143.04
X101.049Y-74.487
X101.061Y-234.744
X101.084Y-105.175
X101.084Y-64.381
X101.096Y-310.723
X102.0Y-53.4
X102.941Y-245.009
X102.976Y-234.988
X103.016Y-120.377
X103.023Y-277.868
X103.023Y-77.302
X103.033Y-163.281
X103.035Y-191.791
X103.037Y-282.788
X103.041Y-94.814
X103.075Y-224.396
X103.08Y-315.812
X103.095Y-64.707
X103.097Y-69.861
X103.102Y-300.514
X103.109Y-49.212
X103.131Y-150.834
X103.131Y-227.256
X103.144Y-74.929
X103.148Y-290.627
X103.15Y-34.257
X103.151Y-72.028
X103.158Y-56.744
X103.181Y-310.562
X103.183Y-206.853
X103.21Y-298.045
X103.212Y-92.655
X103.23Y-262.791
X103.25Y-84.976
X103.25Y-308.283
X103.261Y-288.143
X103.268Y-133.068
X103.296Y-295.277
X103.305Y-82.386
X103.31Y-66.763
X103.311Y-285.354
X103.315Y-110.401
X103.317Y-272.469
X103.342Y-36.26
X103.345Y-135.903
X103.347Y-196.894
X103.352Y-246.99
X103.354Y-292.982
X103.359Y-209.018
X103.397Y-302.874
X103.479Y-158.144
X103.487Y-313.238
X103.56Y-201.894
X103.567Y-59.577
X103.571Y-125.594
X103.593Y-62.111
X103.6Y-305.569
X103.612Y-148.284
X103.614Y-239.441
X103.638Y-168.373
X105.466Y-59.052
X105.488Y-237.537
X105.507Y-82.41
X105.544Y-67.051
X105.548Y-135.634
X105.556Y-247.123
X105.564Y-44.239
X105.569Y-95.073
X105.582Y-125.336
X105.584Y-100.293
X105.591Y-105.337
X105.598Y-46.561
X105.6Y-290.549
X105.602Y-137.843
X105.606Y-168.677
X105.618Y-287.627
X105.624Y-77.348
X105.626Y-64.434
X105.633Y-199.162
X105.644Y-120.645
X105.681Y-300.592
X105.709Y-227.054
X105.722Y-191.662
X105.739Y-87.092
X105.764Y-313.511
X105.785Y-303.327
X105.786Y-74.288
X105.789Y-252.716
X105.813Y-143.421
X105.832Y-234.92
X105.851Y-308.055
X105.864Y-275.309
X105.865Y-201.823
X105.866Y-69.457
X105.874Y-295.624
X105.883Y-61.995
X105.895Y-163.437
X105.92Y-140.769
X105.926Y-196.71
X105.937Y-34.016
X105.938Y-194.251
X105.944Y-272.453
X105.948Y-181.471
X105.955Y-150.511
X105.957Y-305.47
X105.959Y-178.594
X105.96Y-71.772
X105.969Y-102.325
X105.98Y-285.414
X106.009Y-282.965
X106.012Y-49.295
X106.035Y-244.487
X106.042Y-292.897
X106.042Y-316.157
X106.049Y-206.832
X106.052Y-270.437
X106.053Y-267.636
X106.054Y-297.88
X106.077Y-214.19
X106.084Y-122.82
X106.087Y-239.426
X106.089Y-161.135
X106.091Y-85.131
X106.093Y-209.4
X106.094Y-36.61
X106.117Y-277.946
X106.121Y-132.929
X106.129Y-158.655
X106.146Y-310.559
X106.168Y-156.266
X106.173Y-255.186
X108.016Y-293.399
X108.02Y-77.488
X108.027Y-66.748
X108.042Y-204.174
X108.042Y-269.872
X108.045Y-181.321
X108.079Y-140.885
X108.089Y-36.55
X108.094Y-254.628
X108.101Y-74.316
X108.13Y-224.619
X108.135Y-244.485
X108.137Y-64.645
X108.142Y-102.916
X108.161Y-110.545
X108.172Y-265.257
X108.207Y-199.391
X108.213Y-125.648
X108.215Y-145.788
X108.215Y-308.469
X108.221Y-46.565
X108.223Y-295.363
X108.239Y-277.699
X108.245Y-194.338
X108.248Y-237.331
X108.252Y-128.083
X108.257Y-226.693
X108.261Y-252.627
X108.27Y-84.964
X108.27Y-214.477
X108.274Y-123.187
X108.274Y-315.865
X108.279Y-191.502
X108.285Y-206.623
X108.286Y-275.042
X108.32Y-99.987
X108.334Y-242.595
X108.349Y-61.687
X108.363Y-137.945
X108.364Y-115.314
X108.374Y-272.854
X108.379Y-247.083
X108.409Y-143.257
X108.409Y-201.372
X108.417Y-300.578
X108.427Y-176.059
X108.433Y-69.472
X108.433Y-310.886
X108.444Y-57.18
X108.449Y-290.722
X108.453Y-163.436
X108.455Y-216.679
X108.456Y-89.704
X108.464Y-72.335
X108.474Y-133.071
X108.478Y-239.906
X108.483Y-33.836
X108.486Y-158.446
X108.494Y-196.624
X108.517Y-305.766
X108.518Y-183.57
X108.526Y-234.879
X108.527Y-44.475
X108.53Y-135.452
X108.53Y-82.237
X108.567Y-104.758
X108.58Y-288.28
X108.585Y-298.39
X108.596Y-107.647
X108.605Y-147.996
X108.616Y-280.165
X108.622Y-156.258
X108.632Y-151.045
X108.636Y-267.483
X108.64Y-313.29
X108.654Y-87.134
X108.658Y-168.498
X108.658Y-49.287
X108.669Y-166.075
X108.68Y-302.889
X108.694Y-208.909
X108.698Y-282.606
X108.706Y-285.389
X108.714Y-160.896
X108.722Y-53.96
X110.552Y-262.754
X110.561Y-89.88
X110.561Y-244.642
X110.583Y-145.884
X110.586Y-43.923
X110.595Y-308.356
X110.607Y-199.379
X110.61Y-168.668
X110.629Y-64.109
X110.634Y-148.314
X110.644Y-166.049
X110.682Y-82.543
X110.711Y-267.341
X110.712Y-208.941
X110.718Y-298.241
X110.72Y-151.076
X110.721Y-104.963
X110.724Y-293.382
X110.734Y-38.733
X110.748Y-160.956
X110.751Y-41.766
X110.76Y-107.627
X110.768Y-206.645
X110.77Y-191.549
X110.791Y-283.005
X110.793Y-74.315
X110.795Y-280.614
X110.796Y-118.097
X110.8Y-48.999
X110.813Y-193.719
X110.814Y-201.466
X110.826Y-33.83
X110.836Y-175.898
X110.837Y-234.374
X110.837Y-204.125
X110.837Y-135.934
X110.851Y-140.715
X110.856Y-59.163
X110.859Y-272.944
X110.892Y-133.098
X110.898Y-226.965
X110.908Y-313.391
X110.908Y-77.411
X110.915Y-156.189
X110.916Y-285.503
X110.94Y-237.135
X110.945Y-183.728
X110.95Y-92.167
X110.953Y-275.343
X110.954Y-300.869
X110.974Y-46.779
X110.985Y-163.415
X110.998Y-196.346
X111.016Y-53.986
X111.018Y-213.997
X111.02Y-315.649
X111.026Y-242.612
X111.027Y-239.595
X111.051Y-143.169
X111.058Y-84.501
X111.069Y-216.513
X111.076Y-219.617
X111.078Y-178.763
X111.09Y-110.259
X111.09Y-87.126
X111.093Y-305.496
X111.101Y-128.067
X111.106Y-71.73
X111.125Y-303.23
X111.126Y-69.647
X111.143Y-56.836
X111.153Y-277.636
X111.158Y-311.028
X111.162Y-290.49
X111.166Y-36.223
X111.167Y-295.736
X111.171Y-270.172
X111.175Y-288.25
X111.176Y-114.913
X111.177Y-137.9
X111.182Y-102.704
X111.204Y-252.133
X111.216Y-247.295
X111.219Y-67.279
X111.227Y-264.979
X111.232Y-158.537
X111.257Y-254.767
X113.112Y-315.735
X113.112Y-277.505
X113.13Y-163.333
X113.143Y-303.187
X113.149Y-95.004
X113.161Y-293.34
X113.164Y-61.633
X113.167Y-107.309
X113.184Y-244.619
X113.188Y-298.278
X113.193Y-155.822
X113.202Y-120.277
X113.209Y-168.732
X113.214Y-219.255
X113.217Y-198.949
X113.217Y-39.033
X113.231Y-87.652
X113.233Y-204.487
X113.235Y-272.449
X113.242Y-178.742
X113.256Y-133.208
X113.258Y-310.829
X113.258Y-165.91
X113.266Y-308.051
X113.267Y-33.682
X113.268Y-285.157
X113.271Y-114.979
X113.282Y-239.646
X113.284Y-46.468
X113.285Y-143.327
X113.286Y-252.7
X113.312Y-181.24
X113.323Y-283.134
X113.33Y-49.397
X113.334Y-236.924
X113.338Y-54.019
X113.339Y-72.439
X113.341Y-275.162
X113.344Y-158.49
X113.35Y-105.318
X113.368Y-290.32
X113.376Y-74.742
X113.381Y-145.778
X113.414Y-305.589
X113.422Y-151.154
X113.424Y-56.809
X113.431Y-242.616
X113.446Y-59.034
X113.454Y-295.4
X113.472Y-92.154
X113.483Y-110.442
X113.502Y-84.926
X113.513Y-147.93
X113.521Y-135.742
X113.522Y-201.452
X113.526Y-265.157
X113.541Y-41.549
X113.552Y-259.929
X113.562Y-44.23
X113.563Y-267.833
X113.596Y-313.36
X113.602Y-36.464
X113.618Y-221.804
X113.628Y-262.714
X113.635Y-209.436
X113.635Y-287.691
X113.637Y-214.417
X113.639Y-206.662
X113.666Y-89.817
X113.669Y-138.075
X113.693Y-247.339
X113.712Y-69.26
X113.715Y-255.092
X113.726Y-82.227
X113.728Y-160.975
X113.743Y-196.208
X113.748Y-216.666
X113.754Y-118.083
X113.757Y-234.29
X113.76Y-77.004
X113.768Y-191.575
X113.769Y-194.038
X113.775Y-140.481
X113.782Y-280.536
X113.795Y-176.441
X113.797Y-300.752
X113.798Y-270.478
X115.626Y-44.486
X115.631Y-267.656
X115.638Y-280.098
X115.663Y-303.335
X115.665Y-120.24
X115.699Y-158.458
X115.705Y-179.037
X115.72Y-140.884
X115.72Y-163.604
X115.74Y-285.403
X115.741Y-193.953
X115.753Y-41.422
X115.774Y-240.067
X115.774Y-92.718
X115.78Y-180.988
X115.791Y-46.775
X115.792Y-224.331
X115.798Y-150.801
X115.803Y-265.133
X115.809Y-306.004
X115.81Y-214.23
X115.822Y-270.282
X115.839Y-237.122
X115.839Y-33.922
X115.84Y-148.102
X115.848Y-166.107
X115.856Y-176.496
X115.862Y-115.432
X115.868Y-244.646
X115.875Y-272.942
X115.881Y-217.028
X115.889Y-293.372
X115.892Y-39.133
X115.892Y-198.877
X115.902Y-310.576
X115.937Y-315.665
X115.94Y-254.942
X115.945Y-135.925
X115.969Y-64.32
X116.0Y-287.72
X116.005Y-54.234
X116.005Y-191.499
X116.009Y-118.166
X116.023Y-122.946
X116.036Y-184.206
X116.045Y-160.833
X116.06Y-206.513
X116.082Y-295.27
X116.083Y-87.506
X116.084Y-196.63
X116.088Y-275.622
X116.089Y-61.796
X116.095Y-155.877
X116.095Y-107.661
X116.104Y-262.629
X116.112Y-259.973
X116.116Y-221.742
X116.12Y-219.607
X116.132Y-85.035
X116.14Y-242.199
X116.151Y-94.835
X116.165Y-234.698
X116.165Y-138.23
X116.17Y-298.507
X116.177Y-209.534
X116.184Y-36.497
X116.193Y-201.955
X116.203Y-290.564
X116.205Y-110.462
X116.214Y-203.927
X116.223Y-56.606
X116.225Y-308.218
X116.226Y-97.651
X116.231Y-313.148
X116.234Y-82.176
X116.234Y-132.726
X116.25Y-252.071
X116.27Y-89.977
X116.278Y-168.935
X116.279Y-77.509
X116.28Y-300.59
X116.288Y-247.169
X116.299Y-59.593
X116.3Y-143.418
X116.308Y-145.818
X116.317Y-282.756
X116.326Y-277.802
X118.166Y-252.437
X118.177Y-135.935
X118.18Y-242.306
X118.198Y-303.051
X118.2Y-305.931
X118.208Y-308.553
X118.215Y-138.464
X118.22Y-245.121
X118.223Y-293.423
X118.227Y-51.869
X118.237Y-219.3
X118.239Y-117.542
X118.243Y-247.504
X118.247Y-150.497
X118.251Y-239.465
X118.251Y-265.071
X118.291Y-44.325
X118.297Y-95.135
X118.299Y-216.64
X118.353Y-267.567
X118.382Y-201.476
X118.39Y-193.784
X118.392Y-123.069
X118.393Y-295.679
X118.396Y-38.975
X118.403Y-270.411
X118.404Y-163.223
X118.43Y-56.519
X118.442Y-64.407
X118.443Y-92.468
X118.447Y-207.034
X118.448Y-204.3
X118.461Y-300.787
X118.463Y-315.578
X118.472Y-255.245
X118.487Y-97.728
X118.512Y-236.924
X118.542Y-181.11
X118.544Y-72.044
X118.554Y-36.838
X118.557Y-313.37
X118.569Y-287.814
X118.571Y-156.006
X118.573Y-125.718
X118.578Y-209.167
X118.589Y-54.024
X118.591Y-160.771
X118.599Y-82.249
X118.6Y-87.046
X118.601Y-140.884
X118.623Y-186.712
X118.623Y-196.329
X118.634Y-273.028
X118.64Y-85.002
X118.66Y-69.458
X118.666Y-145.912
X118.671Y-143.453
X118.672Y-67.038
X118.676Y-120.181
X118.678Y-183.951
X118.68Y-110.048
X118.685Y-61.596
X118.695Y-168.878
X118.705Y-227.183
X118.706Y-275.27
X118.708Y-290.223
X118.716Y-224.492
X118.721Y-90.111
X118.726Y-148.427
X118.732Y-115.035
X118.738Y-298.113
X118.747Y-178.417
X118.75Y-280.353
X118.76Y-59.468
X118.769Y-199.236
X118.771Y-277.474
X118.791Y-262.541
X118.798Y-34.063
X118.807Y-234.756
X118.823Y-260.265
X118.827Y-158.564
X118.832Y-221.64
X118.836Y-176.531
X118.851Y-285.771
X118.853Y-310.764
X118.861Y-166.047
X118.867Y-100.359
X118.87Y-41.883
X118.874Y-214.512
X118.881Y-282.565
X120.714Y-52.034
X120.722Y-269.947
X120.723Y-196.852
X120.736Y-102.585
X120.741Y-120.455
X120.744Y-181.289
X120.745Y-48.978
X120.749Y-282.952
X120.754Y-115.124
X120.757Y-95.278
X120.768Y-262.711
X120.786Y-36.456
X120.794Y-308.222
X120.813Y-160.739
X120.818Y-34.096
X120.827Y-224.635
X120.83Y-247.617
X120.843Y-125.504
X120.878Y-186.194
X120.88Y-241.936
X120.884Y-168.352
X120.89Y-176.048
X120.897Y-145.43
X120.897Y-209.202
X120.906Y-143.564
X120.93Y-254.685
X120.94Y-214.608
X120.943Y-216.939
X120.945Y-206.846
X120.954Y-127.976
X120.956Y-245.056
X120.958Y-59.092
X120.959Y-305.63
X120.969Y-240.068
X120.973Y-158.753
X120.984Y-297.804
X120.986Y-265.357
X120.989Y-85.082
X121.02Y-163.605
X121.023Y-166.227
X121.092Y-290.491
X121.103Y-100.035
X121.104Y-219.131
X121.112Y-87.009
X121.132Y-260.226
X121.134Y-89.761
X121.148Y-201.952
X121.15Y-252.477
X121.152Y-156.07
X121.153Y-183.888
X121.157Y-204.15
X121.165Y-178.448
X121.17Y-97.205
X121.176Y-287.859
X121.184Y-272.446
X121.193Y-300.935
X121.196Y-234.49
X121.206Y-295.819
X121.219Y-222.297
X121.224Y-53.998
X121.232Y-310.719
X121.241Y-198.761
X121.241Y-275.01
X121.257Y-56.685
X121.259Y-117.449
X121.272Y-285.501
X121.275Y-316.117
X121.278Y-92.629
X121.278Y-148.298
X121.307Y-122.972
X121.31Y-293.17
X121.333Y-237.209
X121.355Y-313.651
X121.36Y-277.526
X121.366Y-280.122
X121.371Y-227.033
X121.381Y-150.958
X121.386Y-140.682
X121.397Y-302.997
X121.405Y-188.748
X121.414Y-267.595
X121.418Y-82.097
X123.246Y-120.338
X123.261Y-206.929
X123.272Y-94.88
X123.314Y-143.285
X123.314Y-316.263
X123.319Y-130.294
X123.32Y-252.217
X123.32Y-158.332
X123.345Y-183.828
X123.371Y-293.243
X123.375Y-191.566
X123.376Y-237.428
X123.386Y-189.045
X123.386Y-84.458
X123.39Y-178.618
X123.396Y-89.769
X123.397Y-122.568
X123.4Y-199.043
X123.401Y-176.06
X123.401Y-221.641
X123.41Y-217.215
X123.412Y-71.848
X123.419Y-46.904
X123.421Y-242.082
X123.426Y-69.476
X123.427Y-287.829
X123.435Y-305.753
X123.453Y-224.744
X123.454Y-285.141
X123.505Y-64.82
X123.506Y-239.478
X123.512Y-165.821
X123.527Y-234.707
X123.528Y-168.834
X123.529Y-150.887
X123.536Y-313.557
X123.554Y-283.101
X123.565Y-302.943
X123.566Y-277.704
X123.574Y-49.542
X123.613Y-56.993
X123.617Y-102.473
X123.619Y-33.979
X123.624Y-270.487
X123.628Y-275.451
X123.643Y-260.174
X123.647Y-62.075
X123.658Y-92.655
X123.66Y-262.432
X123.663Y-254.616
X123.664Y-155.644
X123.665Y-201.413
X123.693Y-51.594
X123.708Y-280.508
X123.72Y-160.691
X123.726Y-203.815
X123.728Y-148.119
X123.744Y-186.33
X123.759Y-127.659
X123.774Y-181.136
X123.786Y-36.671
X123.788Y-87.227
X123.804Y-272.651
X123.81Y-298.027
X123.814Y-244.992
X123.837Y-104.906
X123.859Y-214.558
X123.86Y-163.868
X123.867Y-308.465
X123.871Y-208.973
X123.876Y-295.482
X123.886Y-219.71
X123.901Y-97.501
X123.902Y-226.783
X123.902Y-118.16
X123.91Y-290.326
X123.916Y-54.48
X123.919Y-265.297
X123.928Y-146.064
X123.929Y-99.877
X123.936Y-310.548
X123.942Y-125.259
X123.959Y-300.673
X123.962Y-268.018
X123.963Y-247.671
X124.0Y-78.986
X124.2Y-42.2
X124.2Y-43.8
X124.4Y-81.4
X125.789Y-267.869
X125.792Y-179.073
X125.8Y-87.616
X125.806Y-84.528
X125.817Y-293.086
X125.832Y-160.998
X125.838Y-163.885
X125.839Y-120.289
X125.847Y-194.243
X125.864Y-206.382
X125.874Y-280.206
X125.878Y-265.299
X125.882Y-252.335
X125.89Y-285.355
X125.895Y-308.543
X125.909Y-262.31
X125.91Y-295.402
X125.917Y-282.587
X125.944Y-145.411
X125.95Y-125.536
X125.975Y-311.197
X125.978Y-298.491
X126.009Y-255.174
X126.016Y-234.396
X126.022Y-216.956
X126.022Y-133.212
X126.026Y-277.535
X126.028Y-61.771
X126.029Y-168.4
X126.053Y-151.185
X126.061Y-99.764
X126.067Y-183.822
X126.068Y-272.653
X126.077Y-204.232
X126.1Y-48.275
X126.111Y-36.368
X126.119Y-313.457
X126.145Y-300.675
X126.176Y-227.177
X126.183Y-107.853
X126.184Y-237.469
X126.197Y-92.111
X126.206Y-122.937
X126.207Y-89.638
X126.218Y-270.38
X126.228Y-201.942
X126.24Y-148.314
X126.257Y-247.434
X126.261Y-303.092
X126.262Y-130.274
X126.285Y-166.36
X126.302Y-290.18
X126.311Y-181.187
X126.32Y-189.276
X126.321Y-224.454
X126.323Y-71.791
X126.332Y-244.61
X126.335Y-209.2
X126.344Y-59.659
X126.364Y-34.151
X126.365Y-287.974
X126.372Y-94.587
X126.376Y-128.204
X126.377Y-275.497
X126.382Y-260.298
X126.392Y-102.613
X126.399Y-97.205
X126.41Y-240.051
X126.428Y-155.872
X126.428Y-221.792
X126.435Y-191.369
X126.447Y-105.374
X126.453Y-219.1
X126.46Y-214.049
X126.462Y-305.703
X126.464Y-175.877
X126.465Y-315.98
X126.468Y-242.017
X126.47Y-186.291
X126.495Y-158.78
X127.6Y-66.45
X127.6Y-75.95
X128.331Y-280.62
X128.334Y-54.174
X128.334Y-305.987
X128.335Y-270.282
X128.344Y-292.933
X128.354Y-224.412
X128.364Y-219.051
X128.378Y-196.246
X128.394Y-33.849
X128.395Y-303.025
X128.396Y-148.444
X128.4Y-130.223
X128.404Y-132.799
X128.406Y-97.772
X128.421Y-51.419
X128.424Y-247.505
X128.425Y-260.289
X128.443Y-150.611
X128.456Y-87.64
X128.464Y-255.029
X128.464Y-308.121
X128.471Y-313.221
X128.478Y-92.281
X128.485Y-290.801
X128.488Y-183.994
X128.497Y-287.859
X128.514Y-125.401
X128.516Y-272.574
X128.523Y-71.916
X128.533Y-262.54
X128.534Y-264.882
X128.552Y-226.699
X128.552Y-237.002
X128.554Y-204.262
X128.554Y-104.764
X128.563Y-176.544
X128.568Y-300.974
X128.605Y-135.612
X128.615Y-168.489
X128.626Y-163.335
X128.63Y-189.005
X128.646Y-90.155
X128.647Y-274.989
X128.657Y-186.086
X128.679Y-158.23
X128.68Y-84.875
X128.683Y-310.626
X128.686Y-36.842
X128.695Y-160.798
X128.708Y-61.79
X128.713Y-44.102
X128.715Y-214.499
X128.724Y-297.795
X128.724Y-165.746
X128.737Y-128.023
X128.738Y-102.544
X128.742Y-155.98
X128.746Y-57.08
X128.774Y-59.431
X128.782Y-206.587
X128.809Y-277.867
X128.826Y-217.049
X128.831Y-181.125
X128.832Y-221.866
X128.832Y-194.286
X128.84Y-110.272
X128.84Y-282.935
X128.846Y-267.923
X128.847Y-122.76
X128.856Y-242.457
X128.878Y-178.788
X128.895Y-239.501
X128.9Y-107.735
X128.928Y-244.897
X128.945Y-316.182
X128.95Y-295.353
X128.978Y-209.262
X128.985Y-95.17
X128.99Y-234.309
X128.991Y-191.73
X128.991Y-285.448
X129.021Y-100.144
X130.867Y-163.407
X130.871Y-245.048
X130.873Y-297.965
X130.881Y-99.688
X130.905Y-132.749
X130.923Y-196.743
X130.924Y-209.066
X130.932Y-84.519
X130.945Y-150.662
X130.947Y-64.65
X130.949Y-259.898
X130.955Y-295.637
X130.958Y-290.173
X130.967Y-234.906
X130.968Y-285.603
X130.974Y-306.077
X130.98Y-300.712
X130.986Y-252.403
X130.989Y-270.024
X130.991Y-112.768
X130.997Y-166.366
X131.011Y-44.303
X131.02Y-110.517
X131.023Y-156.106
X131.028Y-158.252
X131.034Y-105.079
X131.035Y-275.438
X131.072Y-189.069
X131.083Y-310.784
X131.098Y-94.853
X131.108Y-97.596
X131.114Y-77.374
X131.126Y-74.361
X131.127Y-89.999
X131.147Y-240.079
X131.148Y-280.306
X131.155Y-222.302
X131.159Y-308.355
X131.167Y-178.759
X131.171Y-282.589
X131.185Y-130.24
X131.187Y-183.844
X131.191Y-293.144
X131.196Y-191.163
X131.211Y-46.831
X131.243Y-206.792
X131.251Y-168.667
X131.253Y-287.767
X131.253Y-181.346
X131.254Y-277.953
X131.262Y-247.175
X131.28Y-216.629
X131.292Y-41.357
X131.295Y-107.352
X131.3Y-186.713
X131.328Y-316.001
X131.331Y-161.273
X131.345Y-224.682
X131.346Y-303.448
X131.346Y-242.236
X131.349Y-227.204
X131.352Y-214.056
X131.362Y-272.669
X131.368Y-194.038
X131.387Y-135.711
X131.402Y-59.488
X131.414Y-54.272
X131.434Y-36.285
X131.439Y-33.734
X131.441Y-102.827
X131.456Y-176.044
X131.466Y-92.188
X131.478Y-237.015
X131.484Y-39.201
X131.486Y-262.784
X131.489Y-87.475
X131.496Y-138.091
X131.533Y-51.657
X131.537Y-219.467
X131.539Y-127.654
X131.542Y-56.674
X131.548Y-62.049
X131.551Y-265.011
X131.552Y-198.821
X131.563Y-313.196
X131.574Y-267.743
X131.584Y-125.524
X133.409Y-54.018
X133.412Y-306.086
X133.424Y-94.647
X133.425Y-107.63
X133.425Y-175.932
X133.428Y-161.149
X133.436Y-141.025
X133.452Y-224.419
X133.453Y-128.248
X133.485Y-56.843
X133.492Y-87.135
X133.495Y-102.759
X133.525Y-191.358
X133.531Y-298.179
X133.56Y-247.601
X133.565Y-97.583
X133.571Y-244.764
X133.573Y-267.792
X133.587Y-219.572
X133.591Y-285.546
X133.593Y-59.707
X133.594Y-236.939
X133.606Y-221.665
X133.611Y-196.399
X133.613Y-92.241
X133.629Y-269.908
X133.63Y-313.626
X133.659Y-34.318
X133.663Y-272.676
X133.669Y-277.881
X133.682Y-241.935
X133.687Y-234.852
X133.699Y-133.044
X133.702Y-216.95
X133.717Y-315.592
X133.719Y-163.443
X133.728Y-156.096
X133.729Y-100.091
X133.734Y-198.985
X133.739Y-295.5
X133.742Y-115.09
X133.757Y-52.023
X133.762Y-214.577
X133.765Y-69.474
X133.769Y-308.366
X133.77Y-104.865
X133.772Y-239.441
X133.803Y-201.615
X133.809Y-90.179
X133.82Y-130.616
X133.845Y-178.594
X133.849Y-252.304
X133.858Y-262.608
X133.864Y-74.981
X133.865Y-290.754
X133.876Y-193.954
X133.877Y-39.279
X133.879Y-46.435
X133.883Y-282.684
X133.886Y-138.189
X133.89Y-292.819
X133.892Y-310.556
X133.907Y-36.575
X133.909Y-112.747
X133.923Y-189.07
X133.928Y-184.005
X133.941Y-168.422
X133.942Y-41.695
X133.942Y-254.873
X133.949Y-110.166
X133.967Y-300.716
X134.001Y-227.375
X134.016Y-303.329
X134.016Y-181.516
X134.017Y-264.86
X134.027Y-287.994
X134.036Y-275.415
X134.036Y-209.405
X134.039Y-280.038
X134.045Y-135.57
X134.051Y-158.548
X134.065Y-43.873
X134.067Y-166.424
X134.078Y-72.258
X134.12Y-186.238
X135.575Y-77.1
X135.961Y-227.021
X135.965Y-267.661
X135.995Y-59.327
X135.999Y-285.328
X136.012Y-308.026
X136.021Y-277.504
X136.021Y-302.929
X136.021Y-224.434
X136.024Y-181.322
X136.024Y-95.269
X136.029Y-305.47
X136.029Y-191.288
X136.052Y-51.683
X136.053Y-188.84
X136.082Y-90.083
X136.086Y-203.827
X136.108Y-183.769
X136.128Y-102.455
X136.129Y-300.621
X136.14Y-216.693
X136.15Y-214.219
X136.157Y-107.843
X136.181Y-118.01
X136.196Y-82.504
X136.202Y-166.102
X136.207Y-293.304
X136.208Y-158.414
X136.211Y-313.263
X136.212Y-112.533
X136.214Y-97.661
X136.237Y-36.365
X136.239Y-275.536
X136.255Y-254.657
X136.269Y-237.487
X136.278Y-163.752
X136.291Y-247.105
X136.304Y-56.956
X136.314Y-33.979
X136.315Y-288.155
X136.322Y-104.903
X136.328Y-54.052
X136.335Y-290.212
X136.337Y-100.06
X136.338Y-295.279
X136.42Y-222.016
X136.423Y-310.843
X136.425Y-201.469
X136.443Y-264.966
X136.463Y-239.906
X136.465Y-92.354
X136.482Y-193.905
X136.486Y-219.58
X136.487Y-270.332
X136.495Y-298.435
X136.496Y-199.327
X136.496Y-234.728
X136.497Y-110.493
X136.502Y-196.719
X136.508Y-252.564
X136.508Y-46.585
X136.517Y-245.134
X136.524Y-161.191
X136.535Y-242.063
X136.56Y-41.83
X136.579Y-115.264
X136.582Y-168.348
X136.583Y-315.831
X136.584Y-44.433
X136.587Y-39.225
X136.588Y-282.651
X136.593Y-280.501
X136.599Y-178.91
X136.633Y-186.227
X136.634Y-175.986
X136.643Y-273.042
X136.658Y-257.312
X137.1Y-84.9
X137.4Y-69.1
X137.4Y-72.3
X137.8Y-81.202
X138.487Y-100.248
X138.487Y-137.845
X138.493Y-267.796
X138.508Y-92.128
X138.523Y-193.696
X138.538Y-216.884
X138.553Y-115.409
X138.554Y-109.857
X138.559Y-308.076
X138.583Y-97.429
X138.593Y-199.149
X138.596Y-247.447
X138.599Y-133.14
X138.6Y-73.5
X138.605Y-142.888
X138.612Y-189.019
X138.627Y-277.558
X138.629Y-257.578
X138.642Y-224.681
X138.651Y-184.151
X138.654Y-282.914
X138.692Y-56.524
X138.696Y-222.272
X138.697Y-310.586
X138.698Y-272.65
X138.706Y-178.584
X138.709Y-105.447
X138.713Y-51.63
X138.723Y-163.54
X138.725Y-234.561
X138.744Y-293.145
X138.759Y-275.068
X138.762Y-239.691
X138.771Y-269.961
X138.774Y-44.226
X138.775Y-94.963
X138.782Y-107.59
X138.796Y-54.299
X138.804Y-252.459
X138.814Y-39.033
X138.815Y-300.622
X138.817Y-176.585
X138.818Y-168.799
X138.828Y-242.377
X138.848Y-145.719
X138.849Y-305.681
X138.857Y-135.667
X138.861Y-46.366
X138.862Y-102.221
X138.868Y-166.311
X138.881Y-191.532
X138.882Y-237.084
X138.892Y-302.924
X138.9Y-196.445
X138.903Y-280.046
X138.917Y-295.647
X138.926Y-201.697
X138.927Y-285.209
X138.933Y-41.545
X138.933Y-207.05
X138.943Y-112.94
X138.944Y-244.734
X138.946Y-315.79
X138.95Y-297.843
X138.963Y-140.761
X138.969Y-130.411
X138.976Y-181.533
X138.983Y-288.02
X138.983Y-127.782
X138.995Y-204.381
X139.0Y-83.007
X139.016Y-120.006
X139.028Y-259.793
X139.046Y-219.564
X139.07Y-71.002
X139.094Y-254.922
X139.1Y-84.212
X139.112Y-313.5
X139.12Y-290.358
X139.143Y-186.202
X139.151Y-160.892
X139.152Y-81.202
X139.178Y-117.667
X139.19Y-226.797
X139.442Y-71.752
X139.564Y-85.218
X139.6Y-70.4
X139.713Y-83.537
X139.725Y-78.986
X139.8Y-74.7
X140.05Y-36.04
X140.25Y-72.752
X140.4Y-64.325
X140.86Y-84.091
X141.032Y-166.183
X141.061Y-224.187
X141.073Y-135.766
X141.076Y-221.907
X141.081Y-242.603
X141.083Y-168.815
X141.083Y-288.096
X141.087Y-260.096
X141.103Y-175.956
X141.104Y-234.585
X141.105Y-115.561
X141.122Y-310.886
X141.136Y-163.517
X141.148Y-181.515
X141.157Y-193.886
X141.159Y-257.849
X141.168Y-270.47
X141.172Y-307.977
X141.177Y-201.893
X141.181Y-120.369
X141.185Y-145.588
X141.19Y-227.375
X141.199Y-298.175
X141.217Y-303.436
X141.255Y-237.382
X141.268Y-97.541
X141.269Y-277.669
X141.277Y-130.423
X141.28Y-140.986
X141.284Y-272.952
X141.311Y-300.741
X141.315Y-254.892
X141.322Y-283.265
X141.344Y-199.001
X141.354Y-206.801
X141.361Y-252.403
X141.37Y-112.395
X141.382Y-209.082
X141.383Y-105.345
X141.386Y-44.45
X141.401Y-191.291
X141.405Y-178.685
X141.411Y-247.097
X141.441Y-102.465
X141.448Y-46.575
X141.453Y-239.43
X141.457Y-127.695
X141.46Y-313.723
X141.473Y-148.035
X141.494Y-244.771
X141.5Y-77.25
X141.504Y-316.253
X141.507Y-292.808
X141.542Y-94.839
X141.544Y-305.516
X141.554Y-280.503
X141.565Y-186.737
X141.572Y-117.778
X141.588Y-184.119
X141.598Y-203.851
X141.598Y-137.883
X141.618Y-219.453
X141.62Y-262.287
X141.63Y-133.02
X141.631Y-290.396
X141.635Y-58.38
X141.647Y-100.049
X141.653Y-285.279
X141.654Y-109.854
X141.658Y-295.401
X141.661Y-61.849
X141.662Y-196.716
X141.678Y-189.003
X141.696Y-107.59
X141.712Y-54.221
X141.721Y-143.414
X141.737Y-274.962
X142.154Y-81.202
X142.4Y-69.098
X142.5Y-78.986
X143.2Y-38.8
X143.2Y-71.2
X143.2Y-76.4
X143.35Y-67.725
X143.5Y-69.0
X143.57Y-120.673
X143.575Y-82.077
X143.584Y-186.05
X143.589Y-72.25
X143.597Y-305.828
X143.6Y-73.0
X143.6Y-74.8
X143.611Y-295.669
X143.646Y-292.977
X143.661Y-168.614
X143.662Y-254.98
X143.664Y-221.614
X143.672Y-140.904
X143.679Y-117.917
X143.702Y-211.861
X143.722Y-105.023
X143.736Y-199.176
X143.737Y-176.019
X143.747Y-73.735
X143.75Y-278.158
X143.753Y-165.799
X143.762Y-130.788
X143.771Y-52.035
X143.787Y-56.661
X143.789Y-148.036
X143.802Y-70.2
X143.812Y-239.646
X143.817Y-303.515
X143.828Y-112.471
X143.83Y-64.504
X143.837Y-178.895
X143.857Y-310.962
X143.858Y-298.07
X143.869Y-137.839
X143.869Y-97.797
X143.909Y-209.352
X143.915Y-206.587
X143.925Y-107.439
X143.93Y-260.092
X143.931Y-247.578
X143.942Y-89.658
X143.944Y-201.797
X143.974Y-110.069
X143.974Y-54.505
X143.983Y-204.504
X143.988Y-252.506
X144.009Y-282.776
X144.011Y-300.459
X144.022Y-224.24
X144.024Y-151.173
X144.032Y-100.012
X144.042Y-265.055
X144.047Y-59.555
X144.051Y-44.407
X144.054Y-275.235
X144.059Y-272.889
X144.066Y-128.129
X144.07Y-194.219
X144.083Y-234.464
X144.085Y-196.645
X144.087Y-115.226
X144.096Y-288.3
X144.102Y-181.009
X144.114Y-133.191
X144.114Y-35.842
X144.121Y-135.7
X144.127Y-183.894
X144.154Y-316.064
X144.178Y-189.052
X144.178Y-280.619
X144.185Y-313.329
X144.186Y-191.649
X144.187Y-46.964
X144.212Y-290.834
X144.216Y-237.541
X144.217Y-308.297
X144.22Y-145.885
X144.223Y-242.33
X144.255Y-244.538
X144.266Y-226.714
X144.27Y-102.379
X144.275Y-143.485
X144.28Y-285.8
X144.284Y-257.571
X144.285Y-262.787
X144.406Y-76.458
X144.43Y-68.835
X144.5Y-81.3
X144.651Y-77.814
X144.829Y-93.871
X145.127Y-95.873
X145.2Y-34.2
X145.2Y-38.0
X145.4Y-66.598
X145.423Y-68.977
X145.435Y-58.38
X145.5Y-52.1
X145.5Y-65.125
X145.5Y-77.7
X146.115Y-143.478
X146.121Y-285.304
X146.143Y-168.352
X146.153Y-92.593
X146.167Y-311.118
X146.178Y-130.507
X146.193Y-89.515
X146.198Y-153.431
X146.227Y-176.169
X146.238Y-181.05
X146.241Y-277.982
X146.253Y-211.577
X146.255Y-133.385
X146.26Y-306.113
X146.276Y-199.012
X146.277Y-186.207
X146.289Y-145.963
X146.292Y-255.233
X146.299Y-178.716
X146.305Y-184.082
X146.315Y-302.989
X146.323Y-204.396
X146.327Y-191.731
X146.328Y-193.666
X146.328Y-206.654
X146.344Y-46.529
X146.354Y-237.127
X146.359Y-290.616
X146.373Y-283.005
X146.376Y-105.357
X146.382Y-208.964
X146.4Y-80.6
X146.415Y-36.785
X146.419Y-315.956
X146.432Y-150.929
X146.436Y-297.956
X146.439Y-313.152
X146.442Y-308.546
X146.457Y-188.772
X146.458Y-99.84
X146.486Y-300.938
X146.494Y-196.516
X146.494Y-214.397
X146.498Y-295.484
X146.506Y-120.204
X146.517Y-109.972
X146.53Y-107.288
X146.53Y-115.351
X146.546Y-118.036
X146.55Y-260.265
X146.552Y-262.585
X146.584Y-135.615
X146.589Y-245.11
X146.595Y-264.918
X146.597Y-53.97
X146.598Y-280.53
X146.602Y-201.491
X146.603Y-252.711
X146.612Y-234.955
X146.626Y-224.682
X146.632Y-137.837
X146.651Y-242.122
X146.666Y-226.836
X146.685Y-148.184
X146.691Y-257.556
X146.708Y-293.141
X146.716Y-112.691
X146.719Y-288.242
X146.733Y-102.802
X146.755Y-239.982
X146.774Y-61.905
X146.799Y-275.512
X146.8Y-32.88
X146.809Y-247.21
X146.811Y-140.71
X146.822Y-267.914
X146.9Y-72.2
X147.55Y-32.88
X147.95Y-66.598
X148.384Y-36.616
X148.575Y-66.184
X148.649Y-244.58
X148.666Y-257.315
X148.688Y-69.814
X148.69Y-306.09
X148.691Y-227.111
X148.702Y-102.438
X148.705Y-201.516
X148.706Y-292.979
X148.712Y-46.8
X148.718Y-105.319
X148.754Y-290.873
X148.782Y-33.813
X148.783Y-87.297
X148.807Y-191.397
X148.834Y-117.791
X148.863Y-147.93
X148.864Y-94.896
X148.88Y-254.894
X148.886Y-267.86
X148.89Y-214.551
X148.898Y-143.14
X148.901Y-206.512
X148.914Y-242.373
X148.922Y-310.689
X148.925Y-153.482
X148.934Y-216.757
X148.96Y-295.906
X148.97Y-140.323
X148.976Y-298.318
X148.989Y-179.011
X149.0Y-38.8
X149.037Y-151.066
X149.049Y-277.773
X149.055Y-300.602
X149.061Y-145.783
X149.064Y-132.846
X149.072Y-115.304
X149.081Y-183.56
X149.087Y-196.252
X149.089Y-264.92
X149.093Y-313.37
X149.095Y-285.464
X149.096Y-112.783
X149.097Y-288.138
X149.099Y-135.887
X149.124Y-199.24
X149.141Y-239.928
X149.151Y-303.425
X149.152Y-173.589
X149.173Y-110.21
X149.186Y-181.161
X149.188Y-107.847
X149.196Y-186.343
X149.199Y-71.901
X149.224Y-120.457
X149.23Y-260.225
X149.235Y-247.007
X149.244Y-282.969
X149.247Y-252.554
X149.251Y-211.842
X149.26Y-188.64
X149.274Y-262.272
X149.288Y-204.23
X149.29Y-316.157
X149.306Y-77.184
X149.307Y-138.197
X149.319Y-156.168
X149.328Y-237.281
X149.33Y-270.321
X149.33Y-193.897
X149.346Y-209.385
X149.348Y-92.444
X149.357Y-308.658
X149.362Y-280.334
X149.684Y-37.916
X150.0Y-80.4
X150.5Y-77.8
X151.118Y-83.612
X151.196Y-208.972
X151.213Y-269.885
X151.219Y-229.715
X151.231Y-310.632
X151.238Y-272.455
X151.24Y-120.537
X151.25Y-110.437
X151.265Y-191.777
X151.27Y-298.253
X151.279Y-204.452
X151.284Y-186.171
X151.296Y-308.223
X151.35Y-252.457
X151.351Y-267.941
X151.357Y-211.681
X151.36Y-290.504
X151.365Y-46.546
X151.375Y-280.497
X151.376Y-112.674
X151.384Y-183.582
X151.384Y-153.664
X151.39Y-255.116
X151.396Y-44.339
X151.402Y-107.969
X151.43Y-87.046
X151.452Y-293.365
X151.453Y-219.103
X151.457Y-244.517
X151.465Y-193.734
X151.478Y-287.824
X151.48Y-188.739
X151.5Y-80.2
X151.508Y-262.714
X151.518Y-239.568
X151.528Y-282.888
X151.529Y-147.935
X151.534Y-247.018
X151.547Y-316.154
X151.553Y-140.654
X151.568Y-214.654
X151.581Y-105.086
X151.588Y-300.932
X151.594Y-198.832
X151.6Y-72.2
X151.604Y-156.218
X151.636Y-143.242
X151.677Y-145.911
X151.677Y-118.055
X151.682Y-97.718
X151.689Y-206.422
X151.692Y-216.529
X151.694Y-94.837
X151.699Y-150.472
X151.763Y-242.09
X151.771Y-305.463
X151.777Y-173.984
X151.785Y-302.89
X151.786Y-265.219
X151.787Y-260.106
X151.795Y-201.307
X151.805Y-115.181
X151.834Y-158.602
X151.837Y-176.563
X151.84Y-181.166
X151.857Y-295.915
X151.875Y-257.271
X151.883Y-313.323
X151.889Y-196.479
X151.901Y-285.095
X151.928Y-65.0
X152.0Y-69.55
X152.53Y-64.3
X153.0Y-34.8
X153.172Y-134.521
X153.5Y-199.1
X153.729Y-242.012
X153.732Y-254.957
X153.745Y-316.234
X153.747Y-158.732
X153.758Y-188.893
X153.774Y-84.977
X153.782Y-156.156
X153.787Y-148.465
X153.802Y-290.566
X153.802Y-206.896
X153.837Y-232.119
X153.837Y-181.563
X153.873Y-191.289
X153.875Y-270.178
X153.877Y-186.053
X153.885Y-153.023
X153.894Y-257.298
X153.897Y-109.862
X153.899Y-112.794
X153.905Y-92.377
X153.91Y-115.485
X153.912Y-293.196
X153.929Y-300.439
X153.935Y-99.672
X153.947Y-262.929
X153.957Y-272.433
X153.957Y-209.515
X153.964Y-211.791
X153.991Y-219.356
X154.003Y-308.336
X154.026Y-214.191
X154.034Y-275.332
X154.05Y-222.271
X154.052Y-287.652
X154.086Y-216.766
X154.09Y-46.523
X154.094Y-305.979
X154.095Y-298.496
X154.11Y-282.89
X154.111Y-303.457
X154.116Y-183.532
X154.117Y-201.71
X154.127Y-179.072
X154.149Y-52.022
X154.167Y-150.593
X154.171Y-267.34
X154.196Y-245.091
X154.199Y-36.825
X154.199Y-264.954
X154.2Y-71.237
X154.2Y-73.2
X154.2Y-76.6
X154.204Y-56.597
X154.207Y-193.822
X154.215Y-310.665
X154.237Y-161.323
X154.239Y-259.698
X154.239Y-118.166
X154.243Y-54.358
X154.253Y-247.189
X154.277Y-89.934
X154.277Y-62.046
X154.28Y-143.027
X154.3Y-70.0
X154.304Y-120.702
X154.312Y-44.153
X154.329Y-107.673
X154.338Y-295.747
X154.344Y-203.974
X154.356Y-313.286
X154.358Y-145.429
X154.359Y-59.056
X154.379Y-175.905
X154.429Y-285.646
X154.501Y-67.199
X154.672Y-163.971
X154.756Y-71.762
X155.0Y-197.5
X155.0Y-253.025
X155.063Y-66.033
X155.298Y-96.3
X155.361Y-81.263
X155.675Y-49.0
X155.675Y-63.35
X155.675Y-64.1
X155.9Y-99.6
X155.973Y-82.0
X156.284Y-222.251
X156.321Y-206.572
X156.325Y-158.632
X156.344Y-117.67
X156.35Y-214.01
X156.368Y-244.626
X156.397Y-255.247
X156.409Y-208.94
X156.429Y-298.089
X156.446Y-133.197
X156.449Y-305.583
X156.471Y-285.704
X156.473Y-262.285
X156.482Y-120.539
X156.484Y-311.113
X156.5Y-295.349
X156.514Y-257.705
X156.519Y-115.271
X156.527Y-267.836
X156.536Y-110.194
X156.554Y-313.259
X156.554Y-212.054
X156.58Y-224.138
X156.583Y-301.022
X156.588Y-112.652
X156.607Y-39.262
X156.629Y-145.809
X156.65Y-272.752
X156.661Y-315.627
X156.662Y-269.995
X156.669Y-150.528
X156.672Y-134.521
X156.691Y-308.121
X156.692Y-277.669
X156.709Y-293.034
X156.741Y-274.999
X156.75Y-138.411
X156.761Y-260.299
X156.777Y-216.708
X156.782Y-219.058
X156.81Y-160.635
X156.82Y-303.047
X156.824Y-234.896
X156.835Y-288.341
X156.849Y-204.33
X156.864Y-265.0
X156.877Y-148.229
X156.879Y-247.563
X156.902Y-290.434
X156.903Y-156.104
X156.908Y-153.435
X157.0Y-199.1
X157.026Y-49.0
X157.026Y-63.8
X157.026Y-69.7
X157.037Y-62.937
X157.177Y-82.4
X157.177Y-98.0
X157.177Y-100.6
X157.4Y-33.4
X158.0Y-228.45
X158.172Y-163.971
X158.355Y-282.325
X158.362Y-75.286
X158.5Y-197.5
X158.548Y-82.952
X158.6Y-75.998
X158.6Y-81.3
X158.672Y-134.571
X158.805Y-252.975
X158.812Y-105.231
X158.838Y-194.329
X158.887Y-120.083
X158.906Y-188.612
X158.909Y-84.442
X158.915Y-228.134
X158.941Y-171.05
X158.959Y-115.352
X158.961Y-293.289
X158.984Y-181.447
X158.994Y-64.25
X158.995Y-313.549
X159.0Y-66.793
X159.013Y-191.334
X159.016Y-92.465
X159.027Y-300.674
X159.031Y-234.387
X159.065Y-211.939
X159.079Y-51.595
X159.081Y-310.612
X159.104Y-112.8
X159.138Y-295.269
X159.144Y-69.447
X159.147Y-150.698
X159.148Y-43.879
X159.206Y-305.416
X159.21Y-287.773
X159.217Y-265.079
X159.228Y-298.063
X159.229Y-269.979
X159.241Y-267.648
X159.266Y-315.67
X159.297Y-57.062
X159.305Y-46.444
X159.316Y-285.432
X159.32Y-236.903
X159.323Y-213.982
X159.337Y-290.315
X159.363Y-247.239
X159.376Y-148.105
X159.404Y-308.501
X159.421Y-303.447
X159.439Y-186.045
X159.475Y-54.149
X159.5Y-41.264
X159.521Y-184.032
X159.525Y-117.911
X159.574Y-77.202
X159.7Y-227.2
X159.9Y-133.6
X159.9Y-251.8
X160.0Y-228.5
X160.149Y-82.851
X160.5Y-199.1
X160.8Y-79.7
X160.826Y-75.774
X161.352Y-100.243
X161.37Y-287.939
X161.399Y-107.733
X161.414Y-308.206
X161.416Y-92.292
X161.416Y-173.519
X161.419Y-293.332
X161.427Y-46.444
X161.444Y-67.238
X161.466Y-183.826
X161.475Y-239.541
X161.5Y-267.535
X161.502Y-51.592
X161.505Y-82.135
X161.525Y-87.438
X161.542Y-237.355
X161.544Y-310.694
X161.564Y-290.702
X161.567Y-69.647
X161.575Y-54.522
X161.577Y-297.861
X161.592Y-234.845
X161.642Y-171.046
X161.648Y-211.488
X161.672Y-163.971
X161.681Y-148.292
X161.762Y-265.338
X161.775Y-316.055
X161.789Y-115.021
X161.799Y-194.216
X161.805Y-282.375
X161.808Y-300.547
X161.813Y-305.626
X161.827Y-303.439
X161.843Y-189.147
X161.854Y-64.199
X161.859Y-150.617
X161.875Y-186.737
X161.876Y-313.628
X161.888Y-44.329
X161.915Y-295.476
X161.955Y-191.619
X161.962Y-270.243
X161.976Y-117.941
X161.981Y-41.313
X162.0Y-197.5
X162.02Y-214.349
X162.029Y-89.83
X162.051Y-61.633
X162.058Y-113.494
X162.172Y-134.571
X162.305Y-252.975
X162.425Y-228.5
X162.499Y-103.2
X162.499Y-105.9
X162.8Y-113.6
X162.8Y-121.398
X162.878Y-123.23
X163.101Y-111.499
X163.204Y-229.648
X163.402Y-114.149
X163.5Y-132.8
X163.5Y-228.5
X163.5Y-251.174
X163.8Y-58.0
X163.8Y-76.0
X163.85Y-57.252
X163.886Y-305.645
X163.9Y-106.8
X163.906Y-214.422
X163.977Y-147.948
X163.996Y-297.985
X164.0Y-199.1
X164.011Y-315.818
X164.012Y-120.28
X164.067Y-288.206
X164.118Y-239.946
X164.124Y-117.867
X164.139Y-234.47
X164.171Y-176.449
X164.195Y-300.714
X164.196Y-151.054
X164.202Y-242.047
X164.243Y-269.998
X164.286Y-290.241
X164.298Y-293.42
X164.339Y-212.025
X164.349Y-313.041
X164.371Y-303.432
X164.39Y-265.091
X164.403Y-170.82
X164.423Y-237.454
X164.475Y-308.438
X164.516Y-173.801
X164.524Y-310.581
X164.577Y-295.594
X164.58Y-84.476
X164.59Y-267.345
X164.6Y-38.4
X164.6Y-79.0
X164.673Y-108.527
X164.8Y-106.8
X165.172Y-163.971
X165.305Y-282.375
X165.346Y-165.346
X165.35Y-57.25
X165.35Y-58.0
X165.4Y-76.0
X165.402Y-106.0
X165.6Y-197.299
X165.805Y-252.975
X165.974Y-228.674
X166.4Y-36.575
X166.486Y-71.738
X166.507Y-97.731
X166.526Y-87.19
X166.55Y-242.217
X166.563Y-173.683
X166.593Y-237.05
X166.628Y-176.483
X166.648Y-239.582
X166.653Y-39.211
X166.657Y-288.275
X166.678Y-64.16
X166.689Y-313.123
X166.699Y-94.882
X166.7Y-198.153
X166.712Y-48.89
X166.745Y-171.194
X166.76Y-150.738
X166.765Y-290.201
X166.78Y-148.218
X166.781Y-300.355
X166.785Y-270.238
X166.807Y-305.583
X166.834Y-234.433
X166.839Y-61.666
X166.842Y-67.331
X166.855Y-214.207
X166.871Y-99.78
X166.877Y-89.617
X166.881Y-74.286
X166.886Y-298.326
X166.938Y-303.572
X166.941Y-292.908
X166.946Y-51.711
X166.965Y-295.288
X166.974Y-211.691
X166.981Y-308.286
X167.0Y-228.5
X167.016Y-310.511
X167.034Y-92.092
X167.043Y-112.696
X167.058Y-46.737
X167.066Y-267.567
X167.072Y-54.307
X167.074Y-251.606
X167.093Y-265.206
X167.11Y-315.646
X167.113Y-102.486
X167.125Y-69.201
X167.125Y-41.895
X167.126Y-59.416
X167.132Y-44.01
X167.142Y-120.364
X167.144Y-178.889
X167.172Y-134.521
X167.175Y-229.875
X167.5Y-199.1
X168.3Y-121.398
X168.625Y-165.475
X168.672Y-163.971
X168.805Y-282.375
X168.805Y-283.925
X168.97Y-214.1
X168.985Y-100.013
X169.0Y-197.5
X169.032Y-308.069
X169.038Y-313.472
X169.081Y-298.307
X169.085Y-33.708
X169.09Y-303.003
X169.091Y-64.537
X169.114Y-107.64
X169.17Y-105.374
X169.172Y-134.571
X169.178Y-150.481
X169.185Y-288.173
X169.2Y-97.16
X169.215Y-66.694
X169.221Y-90.038
X169.224Y-74.75
X169.227Y-115.335
X169.229Y-191.457
X169.234Y-69.201
X169.241Y-176.319
X169.252Y-44.492
X169.254Y-239.913
X169.258Y-92.231
X169.26Y-59.427
X169.268Y-305.771
X169.276Y-311.045
X169.277Y-193.755
X169.283Y-293.105
X169.285Y-290.272
X169.3Y-122.602
X169.305Y-252.975
X169.315Y-265.017
X169.323Y-269.873
X169.36Y-236.854
X169.371Y-125.393
X169.424Y-41.942
X169.432Y-189.062
X169.433Y-38.916
X169.474Y-51.595
X169.481Y-62.244
X169.482Y-242.146
X169.487Y-212.143
X169.495Y-300.331
X169.519Y-173.498
X169.548Y-94.674
X169.555Y-180.992
X169.569Y-47.008
X169.571Y-178.554
X169.579Y-102.41
X169.612Y-268.014
X169.625Y-155.293
X169.634Y-72.13
X169.651Y-234.777
X169.663Y-77.511
X169.668Y-48.952
X169.678Y-295.933
X169.678Y-170.861
X169.679Y-315.922
X169.681Y-247.011
X169.776Y-230.251
X169.925Y-199.0
X170.0Y-258.0
X170.1Y-275.5
X170.305Y-283.975
X170.4Y-121.0
X170.4Y-142.5
X170.5Y-228.5
X170.579Y-251.601
X170.8Y-222.0
X171.0Y-199.1
X171.0Y-199.1
X171.1Y-132.8
X171.195Y-262.85
X171.547Y-44.195
X171.55Y-39.402
X171.567Y-297.95
X171.567Y-117.555
X171.6Y-139.0
X171.6Y-142.4
X171.61Y-207.647
X171.619Y-300.616
X171.627Y-311.044
X171.656Y-176.148
X171.661Y-46.452
X171.677Y-269.924
X171.688Y-234.974
X171.7Y-258.202
X171.714Y-77.23
X171.726Y-288.101
X171.751Y-214.586
X171.754Y-302.897
X171.754Y-237.531
X171.759Y-171.34
X171.779Y-66.876
X171.795Y-313.704
X171.796Y-104.812
X171.797Y-267.558
X171.8Y-204.2
X171.807Y-184.073
X171.813Y-211.922
X171.838Y-95.118
X171.856Y-293.036
X171.869Y-59.566
X171.89Y-290.42
X171.894Y-308.249
X171.908Y-61.994
X171.943Y-102.912
X171.953Y-295.356
X171.972Y-110.319
X171.972Y-33.847
X171.975Y-165.325
X171.999Y-181.016
X172.005Y-265.045
X172.005Y-179.006
X172.024Y-316.22
X172.027Y-239.594
X172.034Y-125.685
X172.036Y-92.163
X172.056Y-107.671
X172.095Y-306.008
X172.097Y-64.637
X172.104Y-49.555
X172.109Y-79.676
X172.14Y-41.749
X172.155Y-72.105
X172.163Y-241.921
X172.172Y-163.971
X172.177Y-173.721
X172.179Y-69.458
X172.191Y-57.074
X172.199Y-97.677
X172.202Y-127.734
X172.205Y-74.495
X172.214Y-100.337
X172.305Y-282.375
X172.305Y-283.925
X172.465Y-272.15
X172.5Y-197.5
X172.6Y-207.4
X172.631Y-259.903
X172.635Y-204.825
X172.672Y-134.571
X172.672Y-140.228
X172.672Y-157.071
X172.752Y-153.246
X172.8Y-121.0
X172.805Y-252.975
X173.0Y-228.5
X173.2Y-138.398
X173.5Y-198.6
X173.546Y-151.867
X173.75Y-273.75
X173.875Y-229.925
X174.0Y-220.25
X174.0Y-228.5
X174.022Y-153.246
X174.055Y-214.653
X174.095Y-120.069
X174.1Y-295.598
X174.107Y-67.157
X174.131Y-105.431
X174.138Y-127.647
X174.145Y-74.528
X174.15Y-69.823
X174.152Y-173.634
X174.163Y-171.089
X174.174Y-97.45
X174.177Y-242.066
X174.179Y-315.656
X174.184Y-234.663
X174.235Y-183.829
X174.247Y-224.697
X174.256Y-72.397
X174.261Y-56.868
X174.276Y-39.033
X174.278Y-61.72
X174.289Y-107.954
X174.295Y-102.362
X174.299Y-110.344
X174.3Y-132.8
X174.305Y-64.767
X174.305Y-100.279
X174.318Y-59.258
X174.32Y-297.803
X174.322Y-95.23
X174.356Y-308.089
X174.366Y-303.384
X174.367Y-300.347
X174.368Y-244.709
X174.371Y-267.691
X174.371Y-176.119
X174.372Y-76.996
X174.376Y-181.198
X174.381Y-287.968
X174.385Y-34.184
X174.4Y-140.0
X174.426Y-46.603
X174.427Y-79.987
X174.428Y-239.434
X174.439Y-275.528
X174.446Y-130.557
X174.452Y-270.387
X174.455Y-81.982
X174.478Y-310.801
X174.489Y-265.306
X174.492Y-186.255
X174.5Y-199.1
X174.511Y-178.515
X174.524Y-44.188
X174.545Y-290.191
X174.554Y-54.474
X174.589Y-148.031
X174.594Y-313.253
X174.6Y-258.8
X174.6Y-260.8
X174.629Y-237.543
X174.678Y-211.928
X174.707Y-293.285
X174.72Y-112.787
X174.724Y-305.692
X174.761Y-158.439
X175.0Y-204.95
X175.25Y-220.0
X175.625Y-165.475
X175.672Y-163.971
X175.69Y-283.81
X175.805Y-282.375
X175.9Y-206.6
X176.0Y-197.5
X176.305Y-252.975
X176.5Y-228.4
X176.595Y-153.303
X176.617Y-71.85
X176.627Y-178.937
X176.667Y-143.426
X176.67Y-64.226
X176.673Y-306.08
X176.675Y-74.805
X176.689Y-174.01
X176.692Y-267.92
X176.693Y-161.15
X176.695Y-236.929
X176.71Y-224.518
X176.717Y-303.475
X176.717Y-247.687
X176.741Y-270.537
X176.771Y-145.572
X176.784Y-52.042
X176.8Y-45.5
X176.801Y-214.61
X176.807Y-293.412
X176.84Y-168.591
X176.849Y-122.89
X176.852Y-84.489
X176.859Y-59.163
X176.874Y-175.988
X176.878Y-262.703
X176.902Y-264.814
X176.902Y-183.565
X176.905Y-239.56
X176.923Y-315.823
X176.929Y-79.961
X176.93Y-199.079
X176.962Y-82.081
X176.963Y-54.403
X176.966Y-298.129
X176.971Y-67.346
X176.981Y-211.918
X176.983Y-242.531
X176.984Y-188.617
X176.986Y-115.456
X177.0Y-34.1
X177.045Y-150.857
X177.05Y-290.73
X177.052Y-234.91
X177.062Y-102.622
X177.062Y-275.227
X177.064Y-186.632
X177.071Y-99.945
X177.093Y-36.805
X177.1Y-198.4
X177.102Y-310.742
X177.137Y-171.252
X177.155Y-57.13
X177.157Y-97.136
X177.159Y-244.991
X177.159Y-148.384
X177.207Y-180.999
X177.209Y-108.002
X177.21Y-300.384
X177.219Y-110.307
X177.219Y-287.917
X177.22Y-140.655
X177.227Y-308.221
X177.244Y-295.578
X177.245Y-62.24
X177.257Y-313.595
X177.284Y-77.344
X177.284Y-112.659
X177.295Y-69.438
X177.304Y-104.918
X177.5Y-228.5
X177.75Y-134.5
X177.8Y-138.6
X177.9Y-251.174
X178.0Y-219.0
X178.1Y-203.002
X178.3Y-201.798
X178.525Y-45.5
X179.006Y-138.6
X179.147Y-308.101
X179.152Y-237.355
X179.172Y-163.971
X179.178Y-155.791
X179.182Y-300.465
X179.194Y-239.986
X179.2Y-141.6
X179.2Y-202.4
X179.212Y-303.024
X179.215Y-59.051
X179.219Y-41.26
X179.242Y-107.787
X179.243Y-125.191
X179.255Y-62.109
X179.26Y-54.5
X179.267Y-69.789
X179.286Y-265.068
X179.305Y-283.925
X179.308Y-278.04
X179.308Y-145.514
X179.327Y-135.243
X179.328Y-112.611
X179.339Y-262.871
X179.345Y-99.879
X179.354Y-305.648
X179.36Y-64.641
X179.37Y-295.704
X179.396Y-51.86
X179.398Y-224.259
X179.4Y-132.6
X179.415Y-148.307
X179.419Y-315.755
X179.422Y-313.201
X179.446Y-310.517
X179.48Y-244.97
X179.486Y-84.873
X179.49Y-87.315
X179.496Y-143.515
X179.5Y-165.3
X179.5Y-199.05
X179.509Y-115.101
X179.514Y-153.246
X179.514Y-234.463
X179.522Y-82.169
X179.55Y-150.792
X179.551Y-201.2
X179.551Y-206.7
X179.556Y-270.545
X179.576Y-290.206
X179.603Y-298.034
X179.621Y-74.357
X179.662Y-57.098
X179.697Y-79.813
X179.7Y-267.418
X179.706Y-231.858
X179.709Y-71.982
X179.73Y-110.127
X179.731Y-242.139
X179.752Y-292.785
X179.754Y-247.262
X179.757Y-102.597
X179.786Y-104.811
X179.799Y-288.322
X179.805Y-252.975
X179.809Y-77.016
X179.818Y-66.658
X179.836Y-117.744
X180.126Y-230.226
X180.153Y-161.0
X180.4Y-131.998
X180.6Y-133.202
X180.6Y-250.2
X180.651Y-45.401
X180.75Y-34.0
X180.805Y-282.325
X181.0Y-137.998
X181.0Y-228.5
X181.4Y-139.202
X181.4Y-141.075
X181.4Y-142.2
X181.686Y-117.703
X181.694Y-303.371
X181.697Y-54.593
X181.703Y-226.76
X181.711Y-156.13
X181.729Y-295.537
X181.729Y-82.119
X181.742Y-224.281
X181.756Y-113.085
X181.757Y-62.158
X181.766Y-74.418
X181.776Y-313.448
X181.777Y-79.621
X181.777Y-277.55
X181.784Y-262.453
X181.786Y-71.763
X181.801Y-148.106
X181.805Y-130.533
X181.816Y-64.76
X181.818Y-254.911
X181.822Y-76.975
X181.825Y-145.476
X181.849Y-247.655
X181.852Y-201.2
X181.852Y-202.4
X181.852Y-206.8
X181.853Y-316.154
X181.864Y-102.263
X181.868Y-293.376
X181.882Y-288.172
X181.9Y-120.619
X181.905Y-234.294
X181.916Y-51.674
X181.917Y-69.496
X181.947Y-300.815
X181.952Y-56.845
X181.969Y-307.997
X181.979Y-87.196
X182.0Y-197.4
X182.045Y-280.501
X182.049Y-310.965
X182.066Y-59.717
X182.073Y-241.93
X182.078Y-237.014
X182.091Y-231.849
X182.119Y-89.887
X182.175Y-290.759
X182.2Y-165.8
X182.209Y-105.06
X182.214Y-107.732
X182.214Y-67.205
X182.233Y-115.319
X182.234Y-158.665
X182.26Y-306.059
X182.263Y-109.894
X182.285Y-151.002
X182.297Y-153.293
X182.312Y-267.937
X182.334Y-127.942
X182.341Y-297.792
X182.368Y-239.402
X182.37Y-264.898
X182.381Y-84.795
X182.383Y-244.946
X182.805Y-283.925
X183.2Y-131.998
X183.2Y-133.202
X183.25Y-161.127
X183.274Y-136.874
X183.459Y-162.041
X183.7Y-141.0
X183.726Y-138.126
X183.726Y-143.674
X183.774Y-145.426
X183.8Y-125.6
X183.8Y-142.125
X183.8Y-230.0
X184.142Y-160.04
X184.198Y-127.2
X184.219Y-300.864
X184.237Y-245.027
X184.273Y-61.85
X184.281Y-262.284
X184.288Y-252.469
X184.294Y-81.992
X184.3Y-166.7
X184.329Y-224.264
X184.335Y-298.078
X184.364Y-64.283
X184.372Y-265.122
X184.415Y-59.096
X184.421Y-76.934
X184.424Y-168.876
X184.434Y-315.607
X184.443Y-79.57
X184.446Y-227.363
X184.453Y-308.641
X184.473Y-74.926
X184.5Y-282.35
X184.538Y-295.733
X184.54Y-216.906
X184.559Y-67.266
X184.578Y-292.776
X184.585Y-287.976
X184.588Y-211.544
X184.588Y-44.082
X184.596Y-92.709
X184.621Y-89.761
X184.626Y-87.285
X184.637Y-247.17
X184.642Y-49.22
X184.657Y-196.694
X184.661Y-84.814
X184.661Y-69.567
X184.668Y-305.676
X184.676Y-52.069
X184.689Y-204.312
X184.698Y-237.513
X184.699Y-54.185
X184.7Y-198.002
X184.702Y-234.845
X184.702Y-57.079
X184.723Y-310.548
X184.725Y-242.139
X184.766Y-72.215
X184.777Y-303.283
X184.783Y-232.442
X184.8Y-131.998
X184.8Y-160.4
X184.824Y-290.553
X184.834Y-46.375
X184.841Y-313.362
X184.85Y-133.202
X184.876Y-209.254
X184.882Y-214.074
X184.89Y-239.651
X184.908Y-34.258
X185.309Y-163.891
X185.4Y-196.798
X185.45Y-170.8
X185.45Y-198.002
X185.598Y-168.2
X185.598Y-206.7
X185.6Y-131.998
X185.6Y-133.202
X185.6Y-141.075
X185.6Y-142.2
X185.6Y-161.2
X185.8Y-284.0
X186.109Y-164.691
X186.2Y-168.8
X186.2Y-170.8
X186.2Y-196.798
X186.2Y-198.002
X186.2Y-219.398
X186.2Y-222.6
X186.2Y-229.275
X186.2Y-230.325
X186.2Y-249.4
X186.2Y-250.802
X186.4Y-131.8
X186.4Y-133.202
X186.4Y-141.0
X186.4Y-142.125
X186.4Y-162.0
X186.746Y-94.663
X186.778Y-300.536
X186.787Y-303.034
X186.791Y-59.458
X186.8Y-33.9
X186.81Y-61.569
X186.813Y-262.843
X186.839Y-277.517
X186.85Y-79.99
X186.862Y-305.914
X186.866Y-56.804
X186.882Y-310.793
X186.899Y-92.607
X186.9Y-165.5
X186.9Y-206.8
X186.905Y-290.559
X186.931Y-41.358
X186.94Y-170.923
X186.95Y-45.4
X186.95Y-219.398
X186.95Y-222.6
X186.95Y-229.275
X186.95Y-250.802
X186.955Y-64.161
X186.965Y-285.624
X186.991Y-272.478
X187.0Y-168.8
X187.0Y-196.798
X187.0Y-198.002
X187.0Y-230.4
X187.0Y-249.5
X187.002Y-128.1
X187.028Y-298.183
X187.065Y-51.408
X187.082Y-67.27
X187.123Y-54.656
X187.128Y-69.331
X187.129Y-89.831
X187.137Y-275.175
X187.142Y-85.095
X187.148Y-280.135
X187.175Y-257.721
X187.185Y-287.715
X187.2Y-161.0
X187.238Y-82.398
X187.292Y-71.883
X187.31Y-293.417
X187.332Y-77.318
X187.359Y-313.572
X187.372Y-295.833
X187.398Y-315.604
X187.406Y-74.536
X187.417Y-87.55
X187.437Y-308.418
X187.524Y-206.25
X187.571Y-207.35
X187.7Y-141.0
X187.8Y-131.998
X187.8Y-133.202
X187.8Y-142.2
X187.8Y-167.0
X187.8Y-169.398
X187.8Y-170.8
X187.827Y-162.873
X188.051Y-163.949
X188.25Y-173.2
X189.0Y-163.0
X189.0Y-168.6
X189.0Y-217.4
X189.0Y-222.8
X189.0Y-261.4
X189.0Y-271.2
X189.289Y-48.997
X189.293Y-52.09
X189.314Y-313.076
X189.323Y-54.66
X189.385Y-56.706
X189.402Y-74.39
X189.404Y-290.392
X189.439Y-39.298
X189.462Y-308.338
X189.481Y-288.343
X189.514Y-82.568
X189.523Y-295.68
X189.528Y-33.631
X189.555Y-311.007
X189.594Y-62.248
X189.615Y-72.338
X189.648Y-94.938
X189.659Y-303.146
X189.664Y-64.537
X189.703Y-92.196
X189.706Y-285.702
X189.709Y-77.334
X189.71Y-66.889
X189.734Y-87.112
X189.737Y-80.042
X189.763Y-44.448
X189.793Y-84.856
X189.8Y-174.4
X189.824Y-300.686
X189.825Y-59.655
X189.852Y-69.567
X189.867Y-41.387
X189.909Y-168.491
X189.914Y-298.478
X189.916Y-46.734
X189.934Y-89.567
X189.938Y-315.964
X189.954Y-293.148
X189.959Y-97.132
X189.969Y-305.687
X190.001Y-36.378
X190.319Y-166.217
X190.922Y-127.2
X191.841Y-310.635
X191.843Y-135.552
X191.848Y-270.308
X191.85Y-92.555
X191.851Y-224.363
X191.868Y-49.524
X191.888Y-285.507
X191.898Y-33.734
X191.903Y-158.337
X191.911Y-280.547
X191.914Y-242.111
X191.923Y-122.756
X191.939Y-67.276
X191.945Y-69.349
X191.977Y-232.044
X191.988Y-188.668
X191.988Y-206.836
X191.995Y-71.92
X192.003Y-100.187
X192.021Y-54.066
X192.021Y-112.652
X192.022Y-89.618
X192.037Y-313.139
X192.038Y-186.173
X192.047Y-79.413
X192.048Y-196.837
X192.05Y-283.026
X192.062Y-163.304
X192.082Y-302.915
X192.084Y-105.417
X192.09Y-145.595
X192.097Y-308.244
X192.098Y-120.198
X192.104Y-118.115
X192.115Y-97.617
X192.117Y-36.803
X192.12Y-226.815
X192.122Y-234.618
X192.131Y-64.563
X192.143Y-137.839
X192.146Y-252.232
X192.148Y-102.23
X192.156Y-81.953
X192.161Y-305.761
X192.172Y-239.467
X192.179Y-267.55
X192.186Y-39.173
X192.207Y-143.401
X192.221Y-59.498
X192.226Y-184.091
X192.243Y-115.432
X192.249Y-255.274
X192.251Y-61.866
X192.253Y-130.722
X192.255Y-216.73
X192.258Y-229.869
X192.263Y-211.495
X192.275Y-125.684
X192.275Y-191.211
X192.281Y-41.343
X192.282Y-181.525
X192.283Y-94.801
X192.283Y-46.652
X192.302Y-214.636
X192.305Y-175.881
X192.314Y-153.451
X192.316Y-204.012
X192.329Y-148.595
X192.345Y-300.393
X192.355Y-278.028
X192.355Y-247.311
X192.371Y-178.802
X192.375Y-272.573
X192.378Y-295.829
X192.38Y-87.234
X192.38Y-245.157
X192.388Y-161.023
X192.395Y-257.239
X192.403Y-288.055
X192.411Y-133.336
X192.413Y-250.064
X192.421Y-140.916
X192.423Y-290.754
X192.423Y-209.3
X192.426Y-74.783
X192.428Y-298.456
X192.432Y-57.039
X192.437Y-316.268
X192.447Y-274.928
X192.453Y-193.996
X192.457Y-84.96
X192.486Y-51.455
X192.491Y-77.414
X192.501Y-43.811
X192.503Y-293.032
X192.51Y-236.917
X192.517Y-155.657
X192.518Y-110.183
X192.524Y-150.996
X192.53Y-107.486
X193.5Y-199.4
X194.285Y-197.9
X194.364Y-201.036
X194.367Y-89.662
X194.375Y-140.596
X194.377Y-244.485
X194.381Y-316.283
X194.383Y-109.878
X194.383Y-214.654
X194.384Y-120.229
X194.398Y-239.695
X194.412Y-280.699
X194.418Y-97.349
X194.42Y-102.671
X194.429Y-74.71
X194.432Y-290.66
X194.438Y-64.21
X194.445Y-135.494
X194.46Y-209.596
X194.475Y-295.82
X194.48Y-150.811
X194.505Y-302.878
X194.508Y-82.182
X194.523Y-128.265
X194.535Y-178.527
X194.544Y-270.255
X194.559Y-242.143
X194.568Y-92.12
X194.591Y-310.705
X194.596Y-186.142
X194.599Y-46.828
X194.599Y-229.603
X194.619Y-145.914
X194.625Y-117.652
X194.632Y-132.883
X194.641Y-313.376
X194.649Y-227.069
X194.649Y-237.503
X194.655Y-148.085
X194.656Y-278.02
X194.656Y-298.392
X194.666Y-51.723
X194.672Y-293.028
X194.683Y-79.436
X194.685Y-125.131
X194.693Y-39.168
X194.697Y-308.073
X194.697Y-153.329
X194.699Y-43.799
X194.708Y-217.123
X194.713Y-249.978
X194.72Y-49.211
X194.722Y-234.796
X194.727Y-155.987
X194.754Y-138.448
X194.758Y-95.231
X194.759Y-273.024
X194.759Y-41.492
X194.763Y-130.343
X194.77Y-275.01
X194.784Y-56.902
X194.785Y-166.85
X194.786Y-212.136
X194.795Y-34.189
X194.803Y-36.253
X194.807Y-158.56
X194.811Y-287.734
X194.817Y-84.843
X194.817Y-54.201
X194.818Y-181.337
X194.826Y-191.358
X194.833Y-231.793
X194.833Y-219.665
X194.84Y-99.969
X194.863Y-264.796
X194.864Y-204.075
X194.871Y-300.427
X194.873Y-188.881
X194.878Y-255.161
X194.895Y-267.511
X194.902Y-115.619
X194.908Y-175.874
X194.915Y-76.93
X194.947Y-163.808
X194.95Y-59.61
X194.951Y-305.809
X194.958Y-282.822
X194.961Y-107.509
X194.961Y-252.242
X194.973Y-112.438
X194.982Y-206.468
X195.017Y-69.618
X195.019Y-123.152
X195.021Y-105.311
X195.026Y-183.617
X195.037Y-247.268
X195.037Y-61.987
X195.056Y-72.129
X195.058Y-285.598
X195.068Y-87.099
X195.068Y-161.225
X195.071Y-67.359
X195.073Y-198.535
X195.082Y-143.089
X196.2Y-166.699
X196.285Y-168.45
X196.7Y-198.6
X196.906Y-127.704
X196.914Y-181.296
X196.919Y-57.032
X196.923Y-151.153
X196.925Y-145.717
X196.933Y-133.355
X196.934Y-92.63
X196.961Y-69.555
X196.968Y-305.464
X196.974Y-193.903
X196.974Y-64.817
X196.975Y-77.108
X196.989Y-163.261
X196.997Y-138.232
X197.005Y-308.447
X197.015Y-117.551
X197.022Y-115.347
X197.024Y-214.341
X197.024Y-282.687
X197.045Y-285.389
X197.048Y-278.128
X197.056Y-112.492
X197.064Y-110.456
X197.068Y-216.842
X197.073Y-49.052
X197.079Y-82.429
X197.085Y-140.952
X197.085Y-272.49
X197.094Y-267.695
X197.094Y-90.058
X197.095Y-178.457
X197.1Y-105.372
X197.103Y-297.919
X197.108Y-219.242
X197.114Y-142.967
X197.126Y-290.629
X197.131Y-209.442
X197.134Y-269.977
X197.142Y-275.58
X197.145Y-99.774
X197.147Y-79.565
X197.15Y-135.308
X197.173Y-207.057
X197.181Y-130.722
X197.196Y-36.234
X197.203Y-94.909
X197.207Y-71.974
X197.208Y-38.709
X197.208Y-160.91
X197.223Y-33.74
X197.238Y-222.089
X197.266Y-184.175
X197.278Y-156.164
X197.303Y-262.79
X197.307Y-84.929
X197.314Y-186.314
X197.318Y-188.856
X197.322Y-310.808
X197.322Y-122.85
X197.328Y-41.916
X197.338Y-148.439
X197.352Y-316.17
X197.359Y-74.657
X197.36Y-107.385
X197.388Y-264.88
X197.4Y-199.651
X197.429Y-67.287
X197.435Y-54.493
X197.443Y-303.128
X197.463Y-295.772
X197.469Y-125.099
X197.474Y-153.41
X197.516Y-288.214
X197.519Y-52.024
X197.525Y-300.791
X197.528Y-280.581
X197.559Y-158.675
X197.56Y-102.583
X197.561Y-292.756
X197.567Y-62.128
X197.575Y-313.718
X197.579Y-59.645
X197.589Y-211.841
X197.597Y-46.886
X197.599Y-44.215
X197.602Y-97.148
X197.605Y-120.061
X197.621Y-87.444
X199.285Y-197.85
X199.459Y-300.861
X199.472Y-117.508
X199.472Y-310.665
X199.473Y-135.301
X199.474Y-76.875
X199.486Y-61.909
X199.486Y-229.83
X199.487Y-150.811
X199.487Y-115.397
X199.488Y-120.519
X199.49Y-264.917
X199.495Y-54.309
X199.5Y-272.906
X199.506Y-292.966
X199.506Y-127.924
X199.506Y-262.73
X199.511Y-39.08
X199.512Y-72.021
X199.535Y-34.027
X199.539Y-102.66
X199.543Y-249.795
X199.544Y-142.931
X199.561Y-43.859
X199.572Y-221.809
X199.576Y-51.672
X199.58Y-313.122
X199.592Y-315.6
X199.595Y-153.174
X199.596Y-252.334
X199.602Y-275.118
X199.608Y-181.64
X199.61Y-302.875
X199.615Y-158.13
X199.617Y-305.715
X199.62Y-59.616
X199.633Y-74.365
X199.638Y-295.699
X199.643Y-242.429
X199.66Y-227.193
X199.669Y-234.419
X199.67Y-148.147
X199.699Y-94.897
X199.722Y-209.277
X199.726Y-282.701
X199.727Y-132.947
X199.737Y-160.702
X199.766Y-270.225
X199.774Y-125.075
X199.78Y-219.077
X199.785Y-168.45
X199.796Y-79.424
X199.797Y-155.834
X199.802Y-244.626
X199.803Y-82.278
X199.803Y-297.92
X199.812Y-239.422
X199.826Y-48.961
X199.86Y-87.43
X199.874Y-122.806
X199.88Y-41.53
X199.882Y-97.722
X199.888Y-56.568
X199.888Y-285.09
X199.894Y-247.413
X199.894Y-232.177
X199.896Y-140.49
X199.896Y-84.917
X199.896Y-100.147
X199.897Y-46.351
X199.909Y-191.247
X199.922Y-290.389
X199.923Y-92.255
X199.932Y-267.58
X199.932Y-277.89
X199.932Y-67.355
X199.936Y-183.974
X199.945Y-89.884
X199.955Y-211.88
X199.96Y-214.56
X199.969Y-112.802
X199.971Y-280.402
X200.0Y-107.377
X200.0Y-166.7
X200.012Y-130.62
X200.016Y-237.43
X200.017Y-198.832
X200.04Y-104.835
X200.043Y-69.266
X200.056Y-64.773
X200.063Y-216.885
X200.07Y-138.183
X200.078Y-287.994
X200.087Y-110.476
X200.119Y-186.608
X200.154Y-145.749
X200.157Y-224.58
X200.159Y-308.154
X200.162Y-259.935
X200.166Y-36.867
X200.184Y-179.411
X200.4Y-197.0
X200.968Y-199.132
X201.993Y-123.231
X202.004Y-217.14
X202.013Y-186.679
X202.015Y-288.244
X202.033Y-231.747
X202.034Y-222.137
X202.038Y-282.829
X202.04Y-34.085
X202.057Y-219.639
X202.084Y-211.908
X202.088Y-155.686
X202.089Y-84.595
X202.102Y-56.85
X202.118Y-41.444
X202.121Y-293.032
X202.128Y-260.091
X202.139Y-82.183
X202.142Y-272.415
X202.157Y-305.716
X202.159Y-61.814
X202.171Y-234.561
X202.174Y-138.477
X202.174Y-313.539
X202.184Y-92.476
X202.192Y-51.916
X202.207Y-64.489
X202.207Y-240.035
X202.223Y-303.474
X202.234Y-133.291
X202.252Y-280.651
X202.259Y-145.752
X202.264Y-249.606
X202.269Y-265.116
X202.27Y-267.408
X202.28Y-115.131
X202.283Y-209.355
X202.289Y-310.838
X202.292Y-277.709
X202.3Y-229.345
X202.303Y-110.258
X202.306Y-130.382
X202.311Y-120.245
X202.334Y-95.049
X202.334Y-158.712
X202.353Y-87.37
X202.359Y-46.75
X202.362Y-97.339
X202.365Y-153.544
X202.369Y-242.194
X202.398Y-270.238
X202.4Y-181.2
X202.42Y-89.655
X202.424Y-102.814
X202.45Y-69.677
X202.454Y-38.77
X202.46Y-148.528
X202.464Y-107.722
X202.471Y-150.853
X202.483Y-201.81
X202.486Y-59.348
X202.486Y-295.352
X202.489Y-275.325
X202.533Y-112.689
X202.537Y-127.644
X202.541Y-100.304
X202.543Y-308.184
X202.545Y-72.074
X202.548Y-80.006
X202.551Y-135.304
X202.554Y-105.344
X202.555Y-300.582
X202.562Y-290.284
X202.564Y-36.253
X202.569Y-285.645
X202.569Y-214.656
X202.573Y-244.631
X202.583Y-67.029
X202.584Y-125.301
X202.598Y-247.086
X202.615Y-257.485
X202.625Y-76.961
X202.628Y-74.666
X202.629Y-226.679
X202.641Y-183.524
X202.652Y-143.068
X202.654Y-224.617
X202.669Y-54.006
X202.675Y-298.388
X202.68Y-44.146
X202.682Y-49.366
X202.685Y-262.513
X202.688Y-117.99
X202.692Y-237.07
X202.695Y-140.986
X202.698Y-316.02
X202.785Y-197.85
X203.285Y-166.9
X203.285Y-168.45
X203.7Y-198.6
X204.534Y-277.895
X204.539Y-41.65
X204.545Y-112.398
X204.545Y-239.588
X204.545Y-216.937
X204.546Y-297.822
X204.561Y-229.692
X204.562Y-33.9
X204.564Y-102.624
X204.565Y-272.593
X204.565Y-282.624
X204.59Y-234.957
X204.594Y-280.058
X204.596Y-315.758
X204.596Y-36.233
X204.608Y-100.047
X204.617Y-242.498
X204.619Y-130.57
X204.62Y-94.904
X204.635Y-38.866
X204.636Y-214.451
X204.639Y-237.106
X204.662Y-53.994
X204.663Y-44.178
X204.67Y-92.682
X204.671Y-310.985
X204.68Y-146.013
X204.683Y-247.674
X204.683Y-150.95
X204.686Y-105.21
X204.688Y-56.492
X204.724Y-132.698
X204.736Y-232.429
X204.738Y-227.132
X204.752Y-260.003
X204.755Y-268.015
X204.759Y-87.25
X204.761Y-46.761
X204.762Y-212.067
X204.771Y-72.074
X204.774Y-110.115
X204.784Y-80.053
X204.816Y-285.547
X204.823Y-143.34
X204.84Y-90.06
X204.847Y-265.326
X204.849Y-224.796
X204.869Y-135.687
X204.884Y-120.137
X204.895Y-77.28
X204.921Y-128.215
X204.948Y-61.603
X204.982Y-69.325
X204.992Y-115.149
X204.994Y-97.716
X205.013Y-221.806
X205.013Y-306.054
X205.019Y-140.593
X205.026Y-49.173
X205.032Y-66.672
X205.04Y-122.744
X205.062Y-257.562
X205.064Y-153.603
X205.064Y-288.184
X205.064Y-244.561
X205.067Y-308.349
X205.087Y-84.735
X205.089Y-270.014
X205.096Y-74.288
X205.105Y-203.819
X205.107Y-300.473
X205.109Y-64.628
X205.126Y-275.565
X205.153Y-117.964
X205.155Y-303.113
X205.159Y-51.987
X205.16Y-82.51
X205.168Y-209.268
X205.17Y-107.92
X205.178Y-186.444
X205.179Y-125.582
X205.191Y-290.52
X205.2Y-219.191
X205.208Y-254.815
X205.209Y-163.486
X205.227Y-148.309
X205.228Y-313.121
X205.229Y-295.818
X205.236Y-155.833
X205.24Y-262.789
X205.242Y-292.778
X205.242Y-137.948
X205.244Y-59.643
X206.285Y-197.85
X206.785Y-166.9
X206.785Y-168.45
X207.077Y-80.058
X207.08Y-209.092
X207.099Y-265.265
X207.1Y-240.022
X207.122Y-224.656
X207.173Y-212.023
X207.178Y-237.018
X207.181Y-278.039
X207.186Y-315.785
X207.189Y-36.779
X207.194Y-33.778
X207.201Y-69.438
X207.21Y-197.677
X207.222Y-270.503
X207.255Y-77.117
X207.26Y-310.578
X207.268Y-217.082
X207.285Y-219.621
X207.302Y-293.136
X207.315Y-280.524
X207.316Y-59.511
X207.323Y-285.429
X207.328Y-252.653
X207.332Y-300.787
X207.335Y-298.346
X207.349Y-254.797
X207.35Y-282.797
X207.352Y-257.416
X207.356Y-72.172
X207.4Y-181.0
X207.405Y-308.49
X207.422Y-244.941
X207.425Y-44.001
X207.43Y-41.595
X207.444Y-51.932
X207.449Y-267.457
X207.474Y-262.439
X207.495Y-290.62
X207.495Y-272.414
X207.506Y-64.768
X207.509Y-241.96
X207.512Y-226.961
X207.529Y-295.527
X207.561Y-161.307
X207.574Y-56.99
X207.576Y-275.089
X207.58Y-201.61
X207.585Y-66.881
X207.592Y-260.107
X207.616Y-303.172
X207.617Y-313.089
X207.642Y-74.759
X207.664Y-54.133
X207.667Y-49.421
X207.671Y-214.187
X207.681Y-234.723
X207.705Y-163.271
X207.719Y-229.786
X207.72Y-221.972
X207.721Y-305.433
X207.73Y-46.878
X207.73Y-39.177
X207.751Y-62.283
X207.768Y-231.938
X207.775Y-288.346
X209.612Y-239.919
X209.621Y-105.095
X209.621Y-250.226
X209.623Y-275.201
X209.648Y-262.285
X209.658Y-302.87
X209.667Y-84.633
X209.671Y-216.738
X209.675Y-135.304
X209.681Y-64.267
X209.713Y-311.125
X209.715Y-150.833
X209.718Y-44.075
X209.721Y-102.262
X209.749Y-112.603
X209.756Y-298.38
X209.766Y-140.87
X209.767Y-234.569
X209.767Y-46.641
X209.78Y-72.034
X209.782Y-270.248
X209.785Y-197.85
X209.815Y-290.623
X209.815Y-282.988
X209.819Y-36.631
X209.82Y-155.773
X209.821Y-209.356
X209.824Y-264.846
X209.827Y-280.42
X209.832Y-242.625
X209.839Y-316.046
X209.841Y-313.473
X209.855Y-163.322
X209.862Y-138.189
X209.866Y-92.363
X209.869Y-211.453
X209.872Y-224.376
X209.886Y-287.75
X209.888Y-204.324
X209.897Y-122.862
X209.908Y-293.349
X209.925Y-295.3
X209.935Y-145.983
X209.958Y-232.043
X209.965Y-74.418
X209.968Y-161.173
X209.972Y-148.274
X209.98Y-107.825
X209.981Y-305.766
X209.981Y-226.786
X209.993Y-158.608
X209.994Y-252.779
X209.997Y-49.091
X210.007Y-38.883
X210.01Y-257.406
X210.031Y-33.967
X210.032Y-95.04
X210.033Y-89.657
X210.035Y-97.799
X210.037Y-176.6
X210.042Y-167.387
X210.048Y-59.215
X210.054Y-278.134
X210.054Y-254.688
X210.069Y-100.258
X210.073Y-56.569
X210.074Y-69.496
X210.085Y-142.979
X210.099Y-51.844
X210.121Y-115.418
X210.121Y-285.257
X210.127Y-54.284
X210.135Y-133.087
X210.139Y-153.026
X210.151Y-125.711
X210.154Y-237.464
X210.17Y-127.865
X210.173Y-130.297
X210.174Y-120.377
X210.179Y-300.739
X210.181Y-222.167
X210.185Y-118.093
X210.187Y-87.445
X210.193Y-219.573
X210.209Y-77.151
X210.237Y-41.46
X210.25Y-174.925
X210.256Y-61.571
X210.259Y-229.462
X210.27Y-214.292
X210.278Y-67.26
X210.285Y-168.45
X210.29Y-260.086
X210.298Y-267.492
X210.315Y-110.487
X210.32Y-273.062
X210.321Y-308.573
X210.4Y-177.6
X210.6Y-180.8
X210.825Y-190.6
X211.347Y-199.651
X211.476Y-177.379
X211.959Y-190.541
X212.0Y-173.6
X212.153Y-138.217
X212.156Y-120.658
X212.157Y-153.335
X212.158Y-36.704
X212.172Y-275.006
X212.183Y-150.817
X212.185Y-112.873
X212.194Y-252.479
X212.197Y-48.89
X212.208Y-145.726
X212.225Y-140.488
X212.244Y-267.353
X212.246Y-34.265
X212.252Y-297.909
X212.276Y-232.194
X212.277Y-122.923
X212.287Y-211.646
X212.302Y-85.112
X212.317Y-43.997
X212.323Y-59.244
X212.329Y-290.615
X212.329Y-56.659
X212.331Y-95.064
X212.334Y-214.536
X212.35Y-161.306
X212.362Y-87.617
X212.369Y-270.504
X212.37Y-219.37
X212.398Y-295.634
X212.448Y-224.434
X212.459Y-74.296
X212.459Y-302.968
X212.477Y-117.94
X212.478Y-310.524
X212.482Y-300.781
X212.489Y-127.84
X212.493Y-97.486
X212.498Y-313.231
X212.502Y-216.931
X212.516Y-132.791
X212.516Y-54.037
X212.52Y-155.567
X212.521Y-107.547
X212.531Y-102.381
X212.542Y-66.749
X212.562Y-125.145
X212.57Y-135.87
X212.572Y-278.097
X212.582Y-158.523
X212.584Y-69.549
X212.59Y-280.055
X212.595Y-229.674
X212.6Y-46.79
X212.601Y-143.25
X212.61Y-72.039
X212.611Y-247.2
X212.618Y-305.489
X212.624Y-181.505
X212.626Y-39.073
X212.633Y-51.661
X212.636Y-100.015
X212.64Y-237.2
X212.647Y-264.888
X212.656Y-260.294
X212.665Y-240.087
X212.679Y-292.818
X212.682Y-249.709
X212.684Y-257.728
X212.694Y-315.727
X212.695Y-89.573
X212.697Y-308.114
X212.698Y-115.002
X212.702Y-110.366
X212.703Y-285.282
X212.706Y-64.605
X212.711Y-221.624
X212.717Y-273.016
X212.722Y-262.914
X212.729Y-81.951
X212.732Y-282.626
X212.763Y-288.096
X212.765Y-227.37
X212.766Y-41.928
X212.776Y-148.08
X212.782Y-183.744
X212.789Y-61.958
X212.792Y-130.537
X212.81Y-105.426
X212.828Y-163.513
X212.835Y-234.585
X212.842Y-254.81
X212.851Y-92.665
X212.856Y-209.113
X213.285Y-197.85
X213.3Y-177.6
X213.75Y-174.925
X213.785Y-168.45
X214.25Y-190.5
X214.5Y-179.3
X214.693Y-209.541
X214.707Y-277.679
X214.707Y-163.544
X214.71Y-168.651
X214.743Y-120.121
X214.746Y-34.248
X214.746Y-301.015
X214.755Y-51.515
X214.756Y-151.088
X214.758Y-158.671
X214.769Y-82.485
X214.78Y-130.157
X214.788Y-295.538
X214.822Y-112.59
X214.824Y-100.225
X214.831Y-140.55
X214.847Y-160.756
X214.856Y-89.721
X214.881Y-298.452
X214.89Y-94.816
X214.892Y-135.713
X214.907Y-171.28
X214.919Y-181.127
X214.939Y-313.275
X214.944Y-249.601
X214.945Y-221.842
X214.949Y-305.773
X214.951Y-104.972
X214.961Y-275.441
X214.988Y-234.742
X214.994Y-303.102
X214.995Y-138.138
X215.002Y-87.03
X215.013Y-247.635
X215.022Y-148.406
X215.033Y-36.664
X215.042Y-122.91
X215.045Y-257.247
X215.047Y-92.303
X215.053Y-224.84
X215.056Y-115.085
X215.058Y-46.387
X215.064Y-260.047
X215.075Y-156.134
X215.086Y-56.575
X215.09Y-125.235
X215.113Y-227.304
X215.128Y-219.342
X215.128Y-153.435
X215.134Y-293.409
X215.142Y-272.756
X215.146Y-287.961
X215.153Y-69.737
X215.158Y-97.548
X215.158Y-41.553
X215.161Y-107.503
X215.168Y-64.595
X215.169Y-85.014
X215.171Y-282.716
X215.175Y-237.05
X215.176Y-102.619
X215.181Y-49.187
X215.181Y-262.84
X215.182Y-183.869
X215.2Y-79.691
X215.203Y-44.444
X215.211Y-285.729
X215.219Y-186.114
X215.225Y-308.314
X215.226Y-62.036
X215.226Y-290.604
X215.243Y-59.045
X215.245Y-254.85
X215.247Y-229.86
X215.252Y-231.819
X215.283Y-39.099
X215.284Y-67.21
X215.296Y-110.032
X215.308Y-214.66
X215.322Y-269.904
X215.324Y-72.216
X215.327Y-143.498
X215.329Y-133.355
X215.331Y-216.789
X215.336Y-211.719
X215.339Y-280.203
X215.34Y-316.243
X215.343Y-199.057
X215.35Y-145.42
X215.351Y-244.874
X215.355Y-128.302
X215.361Y-117.839
X215.366Y-267.643
X215.37Y-310.865
X215.381Y-252.498
X215.39Y-265.166
X215.395Y-54.334
X215.75Y-190.25
X216.785Y-197.85
X217.232Y-242.47
X217.239Y-49.058
X217.242Y-107.594
X217.247Y-257.686
X217.248Y-221.663
X217.249Y-102.232
X217.255Y-38.776
X217.259Y-259.87
X217.279Y-41.913
X217.285Y-168.45
X217.302Y-158.412
X217.305Y-171.308
X217.309Y-315.733
X217.309Y-97.546
X217.311Y-298.101
X217.324Y-51.647
X217.335Y-133.149
X217.337Y-104.998
X217.337Y-64.796
X217.344Y-262.549
X217.353Y-282.828
X217.359Y-219.261
X217.361Y-130.36
X217.376Y-112.646
X217.394Y-128.206
X217.4Y-69.801
X217.411Y-150.598
X217.421Y-214.411
X217.428Y-92.087
X217.447Y-191.485
X217.45Y-67.351
X217.473Y-87.567
X217.49Y-153.196
X217.49Y-247.064
X217.493Y-114.912
X217.501Y-229.834
X217.511Y-308.346
X217.516Y-79.761
X217.525Y-160.904
X217.538Y-148.461
X217.545Y-84.719
X217.562Y-62.067
X217.577Y-138.459
X217.577Y-310.869
X217.586Y-143.395
X217.591Y-100.063
X217.595Y-264.822
X217.614Y-59.724
X217.615Y-217.004
X217.616Y-89.733
X217.626Y-34.297
X217.63Y-173.483
X217.639Y-285.107
X217.64Y-277.583
X217.647Y-135.893
X217.652Y-46.79
X217.657Y-120.161
X217.662Y-186.508
X217.669Y-288.174
X217.669Y-193.823
X217.671Y-295.79
X217.678Y-176.358
X217.679Y-77.413
X217.684Y-244.811
X217.694Y-250.008
X217.695Y-117.728
X217.698Y-125.529
X217.704Y-300.644
X217.707Y-303.346
X217.71Y-231.96
X217.719Y-252.331
X217.732Y-290.88
X217.736Y-212.089
X217.748Y-122.747
X217.751Y-56.743
X217.759Y-140.391
X217.761Y-36.414
X217.773Y-313.03
X217.787Y-272.91
X217.789Y-234.956
X217.793Y-155.985
X217.795Y-82.343
X217.797Y-292.815
X217.811Y-224.52
X217.841Y-163.554
X217.843Y-94.694
X217.843Y-267.905
X217.845Y-275.508
X217.851Y-183.527
X217.856Y-255.096
X217.863Y-227.022
X217.883Y-305.521
X217.884Y-280.274
X217.902Y-181.084
X217.92Y-54.617
X217.932Y-145.656
X217.935Y-270.027
X217.94Y-110.069
X219.794Y-156.23
X219.795Y-39.271
X219.799Y-272.616
X219.801Y-148.225
X219.81Y-222.105
X219.812Y-150.629
X219.816Y-189.286
X219.818Y-163.623
X219.822Y-87.537
X219.823Y-176.332
X219.826Y-303.404
X219.836Y-184.191
X219.841Y-117.471
X219.842Y-193.965
X219.844Y-267.351
X219.85Y-173.351
X219.854Y-297.922
X219.856Y-97.751
X219.861Y-102.334
X219.875Y-99.953
X219.878Y-293.418
X219.879Y-125.594
X219.882Y-112.975
X219.886Y-295.284
X219.89Y-242.261
X219.891Y-57.045
X219.903Y-217.207
X219.907Y-105.128
X219.913Y-130.805
X219.92Y-214.362
X219.92Y-257.754
X219.938Y-290.237
X219.938Y-120.619
X219.959Y-191.695
X219.967Y-138.425
X219.992Y-85.037
X220.0Y-196.8
X220.011Y-287.938
X220.025Y-146.088
X220.036Y-92.538
X220.045Y-135.464
X220.045Y-229.749
X220.054Y-231.907
X220.091Y-94.963
X220.109Y-249.65
X220.11Y-264.973
X220.11Y-254.647
X220.119Y-127.946
X220.122Y-140.829
X220.13Y-224.43
X220.138Y-115.433
X220.144Y-34.056
X220.144Y-143.251
X220.159Y-227.202
X220.177Y-285.375
X220.178Y-262.663
X220.189Y-74.737
X220.191Y-122.82
X220.2Y-239.577
X220.213Y-90.084
X220.214Y-247.165
X220.217Y-186.352
X220.219Y-280.375
X220.233Y-252.274
X220.245Y-59.172
X220.275Y-201.805
X220.277Y-77.278
X220.284Y-310.504
X220.295Y-181.449
X220.298Y-46.442
X220.301Y-178.906
X220.306Y-283.248
X220.306Y-313.605
X220.306Y-277.819
X220.32Y-269.9
X220.322Y-110.205
X220.325Y-219.328
X220.332Y-315.853
X220.359Y-44.233
X220.36Y-244.533
X220.363Y-158.377
X220.367Y-36.504
X220.369Y-54.037
X220.374Y-132.941
X220.375Y-259.722
X220.395Y-41.883
X220.396Y-275.073
X220.4Y-300.768
X220.42Y-305.719
X220.435Y-107.754
X220.449Y-160.984
X220.469Y-79.929
X220.478Y-308.345
X220.479Y-82.382
X220.484Y-153.361
X220.515Y-197.581
X221.4Y-70.0
X222.336Y-259.914
X222.34Y-290.444
X222.341Y-303.585
X222.342Y-173.747
X222.349Y-36.886
X222.371Y-237.543
X222.374Y-142.931
X222.378Y-275.141
X222.393Y-130.77
X222.397Y-150.662
X222.409Y-41.527
X222.418Y-115.377
X222.423Y-249.671
X222.435Y-125.451
X222.435Y-217.222
X222.445Y-242.135
X222.472Y-109.988
X222.472Y-277.691
X222.472Y-133.249
X222.478Y-254.615
X222.479Y-118.053
X222.489Y-247.694
X222.508Y-39.213
X222.513Y-191.281
X222.526Y-262.397
X222.55Y-99.757
X222.566Y-51.609
X222.57Y-219.338
X222.574Y-79.85
X222.579Y-77.448
X222.581Y-112.666
X222.587Y-244.85
X222.588Y-315.571
X222.593Y-280.302
X222.603Y-84.897
X222.604Y-176.294
X222.61Y-56.534
X222.619Y-293.142
X222.623Y-105.061
X222.63Y-305.773
X222.632Y-310.587
X222.649Y-224.494
X222.667Y-181.644
X222.671Y-300.479
X222.678Y-135.242
X222.696Y-270.552
X222.699Y-102.277
X222.706Y-128.155
X222.709Y-295.931
X222.716Y-160.948
X222.723Y-222.25
X222.724Y-120.679
X222.738Y-204.26
X222.759Y-188.856
X222.761Y-140.773
X222.768Y-285.131
X222.771Y-82.535
X222.786Y-153.425
X222.791Y-252.116
X222.796Y-158.133
X222.796Y-226.832
X222.801Y-183.716
X222.804Y-298.456
X222.806Y-33.881
X222.849Y-54.666
X222.856Y-193.656
X222.859Y-138.222
X222.869Y-107.543
X222.875Y-95.035
X222.88Y-313.639
X222.882Y-229.875
X222.893Y-89.614
X222.897Y-145.888
X222.898Y-196.243
X222.913Y-308.212
X222.915Y-264.894
X222.921Y-148.558
X222.922Y-155.614
X222.934Y-97.278
X222.934Y-239.429
X222.938Y-201.62
X222.939Y-87.486
X222.954Y-72.14
X222.958Y-282.792
X222.96Y-257.654
X222.961Y-287.832
X222.965Y-267.87
X222.99Y-186.697
X222.992Y-273.026
X222.995Y-163.477
X223.0Y-122.904
X223.014Y-178.431
X223.016Y-74.654
X223.024Y-92.197
X224.851Y-156.08
X224.852Y-77.327
X224.856Y-272.859
X224.864Y-176.374
X224.883Y-113.059
X224.883Y-109.84
X224.885Y-89.768
X224.888Y-82.521
X224.907Y-158.433
X224.912Y-69.61
X224.919Y-295.809
X224.928Y-194.241
X224.93Y-92.422
X224.938Y-262.302
X224.957Y-315.687
X224.962Y-242.209
X224.969Y-183.851
X224.984Y-247.063
X224.984Y-252.203
X224.998Y-224.699
X225.003Y-313.455
X225.007Y-51.841
X225.014Y-179.105
X225.015Y-74.378
X225.015Y-140.898
X225.016Y-153.282
X225.019Y-250.036
X225.022Y-64.201
X225.023Y-173.773
X225.036Y-277.818
X225.046Y-255.013
X225.049Y-239.963
X225.06Y-260.319
X225.083Y-310.709
X225.087Y-257.34
X225.09Y-150.514
X225.09Y-244.577
X225.091Y-138.433
X225.093Y-305.989
X225.093Y-163.607
X225.096Y-285.517
X225.113Y-148.64
X225.113Y-79.754
X225.119Y-226.973
X225.14Y-181.416
X225.144Y-196.689
X225.146Y-290.458
X225.172Y-87.376
X225.177Y-237.488
X225.179Y-287.917
X225.183Y-234.422
X225.184Y-282.711
X225.185Y-145.744
X225.188Y-275.42
X225.2Y-100.166
X225.203Y-143.15
X225.214Y-41.911
X225.226Y-161.098
X225.227Y-206.813
X225.232Y-128.276
X225.243Y-308.026
X225.244Y-120.312
X225.273Y-186.539
X225.281Y-66.932
X225.298Y-61.902
X225.305Y-280.118
X225.308Y-203.946
X225.309Y-107.422
X225.338Y-300.811
X225.343Y-135.55
X225.351Y-97.277
X225.357Y-122.862
X225.375Y-105.026
X225.402Y-293.219
X225.403Y-297.839
X225.404Y-102.254
X225.41Y-270.411
X225.411Y-201.286
X225.417Y-48.895
X225.425Y-94.732
X225.437Y-219.413
X225.437Y-265.39
X225.444Y-71.738
X225.448Y-267.572
X225.459Y-54.271
X225.464Y-39.394
X225.468Y-221.792
X225.494Y-130.492
X225.499Y-133.291
X225.517Y-188.708
X225.524Y-85.124
X225.529Y-125.289
X225.538Y-36.249
X225.538Y-303.376
X225.545Y-115.261
X225.557Y-118.095
X225.558Y-33.641
X225.561Y-191.119
X227.387Y-112.979
X227.393Y-87.411
X227.4Y-181.356
X227.406Y-293.05
X227.427Y-272.647
X227.429Y-196.418
X227.431Y-260.222
X227.447Y-161.105
X227.462Y-239.555
X227.468Y-303.443
X227.475Y-315.809
X227.497Y-156.082
X227.502Y-69.345
X227.503Y-254.835
X227.519Y-143.351
X227.546Y-151.031
X227.551Y-138.397
X227.561Y-39.341
X227.562Y-290.291
X227.565Y-310.816
X227.572Y-295.461
X227.572Y-110.486
X227.574Y-71.927
X227.581Y-244.799
X227.584Y-189.166
X227.614Y-132.839
X227.614Y-92.699
X227.617Y-280.399
X227.64Y-232.021
X227.642Y-224.563
X227.643Y-257.71
X227.648Y-140.422
X227.655Y-130.695
X227.658Y-282.796
X227.663Y-77.23
X227.664Y-163.236
X227.673Y-107.522
X227.677Y-201.815
X227.684Y-145.965
X227.692Y-277.817
X227.694Y-173.545
X227.696Y-82.531
X227.697Y-237.086
X227.716Y-158.47
X227.737Y-64.529
X227.752Y-247.673
X227.76Y-267.7
X227.767Y-308.092
X227.769Y-118.118
X227.774Y-100.069
X227.774Y-204.455
X227.776Y-67.094
X227.78Y-313.156
X227.788Y-186.558
X227.791Y-178.449
X227.799Y-41.34
X227.806Y-234.402
X227.807Y-275.201
X227.809Y-209.265
X227.817Y-59.051
X227.82Y-242.04
X227.824Y-298.27
X227.826Y-74.538
X227.828Y-252.089
X227.844Y-62.204
X227.854Y-285.416
X227.859Y-305.954
X227.867Y-34.162
X227.867Y-288.139
X227.871Y-194.016
X227.884Y-262.413
X227.898Y-122.824
X227.907Y-184.07
X227.908Y-249.788
X227.912Y-175.974
X227.912Y-104.819
X227.913Y-84.888
X227.935Y-120.037
X227.944Y-300.913
X227.953Y-147.933
X227.957Y-125.11
X227.965Y-270.353
X227.976Y-153.141
X227.996Y-221.651
X228.013Y-102.768
X228.016Y-265.386
X228.032Y-95.151
X228.038Y-97.445
X228.043Y-115.555
X228.048Y-191.209
X228.058Y-127.847
X228.064Y-135.357
X228.083Y-206.925
X228.083Y-89.564
X228.088Y-79.465
X228.1Y-36.419
X229.934Y-71.773
X229.934Y-49.139
X229.937Y-180.964
X229.966Y-140.979
X229.968Y-112.494
X229.971Y-104.83
X229.978Y-201.568
X230.004Y-94.68
X230.005Y-252.608
X230.007Y-302.897
X230.019Y-64.285
X230.025Y-247.472
X230.044Y-242.339
X230.051Y-237.052
X230.052Y-277.822
X230.053Y-150.822
X230.056Y-87.193
X230.071Y-143.223
X230.096Y-153.295
X230.096Y-285.504
X230.102Y-290.752
X230.104Y-97.248
X230.108Y-102.4
X230.108Y-80.025
X230.11Y-127.629
X230.11Y-173.528
X230.114Y-54.141
X230.128Y-282.862
X230.131Y-47.042
X230.139Y-137.966
X230.146Y-196.717
X230.147Y-287.791
X230.154Y-186.646
X230.161Y-275.262
X230.163Y-178.687
X230.183Y-158.231
X230.197Y-272.82
X230.205Y-115.149
X230.206Y-297.861
X230.235Y-120.44
X230.238Y-262.547
X230.26Y-267.578
X230.26Y-36.263
X230.26Y-305.84
X230.279Y-99.804
X230.285Y-41.428
X230.286Y-44.221
X230.302Y-34.012
X230.306Y-208.953
X230.32Y-176.345
X230.326Y-135.565
X230.34Y-125.367
X230.344Y-270.196
X230.347Y-249.622
X230.354Y-194.014
X230.362Y-239.398
X230.363Y-66.817
X230.369Y-89.965
X230.374Y-130.472
X230.375Y-191.603
X230.378Y-203.952
X230.384Y-265.192
X230.387Y-118.121
X230.387Y-259.88
X230.392Y-234.511
X230.394Y-84.985
X230.399Y-39.01
X230.4Y-183.502
X230.404Y-74.91
X230.41Y-161.018
X230.416Y-189.172
X230.42Y-316.264
X230.428Y-206.522
X230.43Y-232.27
X230.431Y-254.97
X230.432Y-81.901
X230.445Y-293.169
X230.447Y-148.374
X230.453Y-295.963
X230.457Y-310.56
X230.458Y-229.418
X230.458Y-156.076
X230.466Y-57.135
X230.497Y-145.404
X230.498Y-211.742
X230.51Y-133.269
X230.512Y-122.725
X230.515Y-61.835
X230.52Y-52.071
X230.523Y-92.126
X230.534Y-69.359
X230.542Y-280.519
X230.547Y-308.591
X230.572Y-77.438
X230.59Y-244.527
X230.591Y-300.956
X230.591Y-257.552
X230.62Y-313.35
X230.631Y-107.634
X230.64Y-110.033
X230.645Y-59.11
X232.476Y-158.572
X232.477Y-295.781
X232.491Y-77.477
X232.501Y-234.899
X232.514Y-133.352
X232.519Y-285.5
X232.519Y-120.015
X232.526Y-155.599
X232.529Y-97.652
X232.53Y-237.429
X232.552Y-308.383
X232.559Y-115.344
X232.571Y-262.896
X232.571Y-44.293
X232.572Y-244.953
X232.574Y-173.646
X232.575Y-112.619
X232.584Y-191.352
X232.587Y-241.971
X232.59Y-311.031
X232.6Y-100.058
X232.612Y-239.701
X232.616Y-110.234
X232.62Y-275.645
X232.622Y-123.037
X232.633Y-298.097
X232.643Y-214.368
X232.656Y-148.33
X232.657Y-209.024
X232.693Y-265.199
X232.694Y-189.09
X232.696Y-59.344
X232.697Y-203.838
X232.698Y-176.284
X232.699Y-102.665
X232.7Y-130.225
X232.703Y-125.085
X232.71Y-140.643
X232.716Y-138.372
X232.725Y-94.885
X232.727Y-41.965
X232.738Y-282.547
X232.75Y-316.131
X232.754Y-300.491
X232.77Y-247.549
X232.773Y-257.382
X232.776Y-54.254
X232.776Y-47.02
X232.782Y-201.445
X232.783Y-117.89
X232.784Y-267.51
X232.786Y-229.475
X232.793Y-82.42
X232.845Y-211.965
X232.85Y-277.585
X232.854Y-305.714
X232.86Y-72.416
X232.862Y-272.488
X232.862Y-150.885
X232.879Y-38.929
X232.883Y-92.656
X232.914Y-62.074
X232.937Y-135.825
X232.948Y-33.666
X232.951Y-87.296
X232.952Y-303.267
X232.957Y-227.321
X232.962Y-84.997
X232.975Y-252.733
X232.981Y-69.71
X232.984Y-249.839
X233.008Y-293.318
X233.012Y-193.938
X233.017Y-260.132
X233.022Y-183.776
X233.025Y-49.371
X233.025Y-290.727
X233.033Y-64.57
X233.036Y-145.99
X233.037Y-255.03
X233.049Y-51.66
X233.049Y-143.432
X233.051Y-153.254
X233.079Y-127.693
X233.097Y-180.994
X233.097Y-67.109
X233.106Y-206.698
X233.111Y-313.746
X233.115Y-57.177
X233.127Y-232.419
X233.131Y-287.824
X233.137Y-196.479
X233.141Y-36.499
X233.147Y-79.968
X233.148Y-89.793
X233.155Y-178.808
X233.158Y-107.796
X233.166Y-74.727
X233.174Y-270.311
X233.179Y-186.719
X233.183Y-104.846
X233.184Y-280.055
X235.009Y-62.011
X235.022Y-115.327
X235.022Y-226.913
X235.025Y-153.127
X235.026Y-146.088
X235.031Y-196.827
X235.033Y-272.827
X235.037Y-163.224
X235.043Y-287.7
X235.047Y-128.039
X235.048Y-239.741
X235.05Y-176.586
X235.058Y-297.852
X235.06Y-138.264
X235.065Y-56.708
X235.074Y-74.75
X235.084Y-316.065
X235.086Y-95.179
X235.103Y-135.315
X235.129Y-267.915
X235.133Y-306.093
X235.133Y-130.272
X235.138Y-89.746
X235.144Y-92.745
X235.15Y-277.658
X235.158Y-310.874
X235.169Y-150.568
X235.17Y-178.719
X235.188Y-34.039
X235.2Y-46.38
X235.206Y-247.679
X235.221Y-242.491
X235.221Y-148.065
X235.237Y-308.401
X235.254Y-208.954
X235.262Y-194.329
X235.264Y-44.12
X235.271Y-219.065
X235.284Y-155.582
X235.288Y-290.513
X235.293Y-87.23
X235.296Y-201.601
X235.3Y-110.022
X235.309Y-245.061
X235.314Y-173.762
X235.318Y-191.398
X235.331Y-117.95
X235.343Y-102.514
X235.347Y-212.045
X235.361Y-133.328
X235.381Y-181.06
X235.388Y-69.523
X235.388Y-104.785
X235.39Y-189.054
X235.402Y-285.471
X235.406Y-122.93
X235.406Y-77.493
X235.41Y-283.118
X235.415Y-84.587
X235.415Y-292.917
X235.42Y-41.539
X235.423Y-280.498
X235.423Y-204.3
X235.433Y-259.712
X235.445Y-97.137
X235.446Y-39.178
X235.451Y-64.357
X235.467Y-142.939
X235.484Y-270.204
X235.487Y-255.107
X235.498Y-234.569
X235.523Y-120.229
X235.532Y-107.947
X235.534Y-232.222
X235.534Y-214.195
X235.553Y-52.049
X235.558Y-262.26
X235.569Y-67.306
X235.601Y-313.189
X235.614Y-140.968
X235.627Y-99.846
X235.631Y-112.409
X235.634Y-250.215
X235.641Y-72.128
X235.641Y-206.992
X235.649Y-302.883
X235.663Y-275.377
X235.668Y-183.643
X235.668Y-59.506
X235.67Y-265.432
X235.671Y-49.381
X235.677Y-229.574
X235.678Y-252.38
X235.679Y-216.766
X235.682Y-257.524
X235.683Y-186.24
X235.686Y-82.439
X235.687Y-237.396
X235.691Y-36.214
X235.692Y-300.717
X235.698Y-295.589
X235.714Y-125.134
X235.715Y-79.774
X235.72Y-54.532
X237.55Y-244.753
X237.55Y-313.617
X237.558Y-206.419
X237.558Y-145.842
X237.559Y-295.807
X237.586Y-130.149
X237.595Y-285.732
X237.635Y-138.38
X237.657Y-300.43
X237.678Y-259.854
X237.684Y-255.169
X237.685Y-181.463
X237.687Y-41.481
X237.69Y-84.673
X237.698Y-302.922
X237.706Y-191.297
X237.716Y-69.643
X237.723Y-257.521
X237.73Y-287.998
X237.735Y-277.504
X237.739Y-270.172
X237.739Y-150.643
X237.739Y-153.105
X237.74Y-38.961
X237.744Y-87.335
X237.744Y-102.721
X237.746Y-147.927
X237.747Y-282.958
X237.75Y-214.424
X237.752Y-72.43
X237.756Y-298.3
X237.774Y-67.012
X237.814Y-290.605
X237.816Y-110.208
X237.822Y-90.222
X237.823Y-74.385
X237.83Y-252.755
X237.846Y-247.084
X237.851Y-125.754
X237.854Y-115.602
X237.857Y-186.125
X237.857Y-292.977
X237.868Y-94.997
X237.887Y-272.42
X237.895Y-140.371
X237.895Y-308.011
X237.896Y-163.24
X237.899Y-183.673
X237.899Y-82.527
X237.91Y-310.993
X237.922Y-316.089
X237.925Y-216.941
X237.945Y-232.049
X237.948Y-59.313
X237.949Y-56.567
X237.952Y-51.706
X237.952Y-76.936
X237.959Y-143.368
X237.976Y-117.73
X237.987Y-135.793
X238.013Y-80.04
X238.013Y-49.102
X238.014Y-173.82
X238.022Y-112.731
X238.026Y-120.218
X238.027Y-61.637
X238.041Y-64.244
X238.049Y-97.771
X238.052Y-209.5
X238.06Y-275.615
X238.075Y-133.313
X238.082Y-176.492
X238.087Y-54.543
X238.091Y-249.568
X238.095Y-43.814
X238.096Y-122.943
X238.099Y-265.061
X238.107Y-127.751
X238.11Y-107.8
X238.112Y-280.566
X238.115Y-229.414
X238.117Y-193.806
X238.133Y-226.674
X238.134Y-178.571
X238.155Y-239.391
X238.178Y-34.19
X238.18Y-267.751
X238.186Y-305.442
X238.201Y-201.853
X238.201Y-36.468
X238.211Y-242.569
X238.219Y-160.757
X238.221Y-104.89
X238.225Y-46.543
X238.226Y-237.422
X238.227Y-204.188
X238.229Y-234.703
X238.231Y-262.927
X238.234Y-188.627
X238.242Y-196.192
X238.243Y-92.623
X238.25Y-211.996
X238.251Y-99.787
X238.26Y-219.069
X240.088Y-97.385
X240.094Y-252.358
X240.104Y-247.21
X240.112Y-176.454
X240.114Y-285.159
X240.115Y-46.923
X240.118Y-211.754
X240.118Y-107.988
X240.122Y-244.503
X240.132Y-163.66
X240.135Y-140.971
X240.151Y-227.139
X240.17Y-160.725
X240.171Y-79.629
X240.172Y-293.172
X240.222Y-133.233
X240.226Y-123.158
X240.228Y-277.638
X240.234Y-217.13
X240.24Y-64.47
X240.259Y-209.199
X240.263Y-34.147
X240.266Y-178.426
X240.275Y-219.496
X240.289Y-120.094
X240.291Y-125.492
X240.294Y-229.345
X240.309Y-130.718
X240.327Y-72.149
X240.328Y-74.506
X240.34Y-109.996
X240.354Y-298.272
X240.357Y-145.695
X240.357Y-308.382
X240.36Y-135.689
X240.364Y-288.114
X240.365Y-138.151
X240.368Y-127.933
X240.375Y-262.536
X240.377Y-51.812
X240.381Y-148.322
X240.386Y-158.131
X240.386Y-313.491
X240.388Y-295.528
X240.403Y-267.596
X240.404Y-143.534
X240.404Y-290.841
X240.413Y-242.581
X240.413Y-82.509
X240.431Y-104.888
X240.432Y-315.995
X240.433Y-92.732
X240.45Y-236.868
X240.467Y-102.538
X240.481Y-193.724
X240.483Y-260.237
X240.485Y-204.072
X240.486Y-234.662
X240.486Y-69.609
X240.529Y-272.752
X240.529Y-87.54
X240.541Y-206.67
X240.547Y-239.624
X240.563Y-112.559
X240.566Y-201.855
X240.57Y-270.037
X240.574Y-150.933
X240.58Y-300.962
X240.59Y-99.968
X240.593Y-41.279
X240.603Y-67.032
X240.625Y-115.447
X240.634Y-85.042
X240.641Y-59.491
X240.655Y-183.927
X240.671Y-257.53
X240.672Y-189.284
X240.678Y-56.863
X240.679Y-275.163
X240.683Y-39.33
X240.684Y-191.491
X240.699Y-54.202
X240.7Y-77.142
X240.706Y-306.008
X240.706Y-49.413
X240.707Y-95.237
X240.713Y-173.384
X240.713Y-303.135
X240.725Y-250.204
X240.731Y-214.103
X240.736Y-186.599
X240.74Y-231.803
X240.751Y-181.211
X240.76Y-36.654
X240.765Y-280.093
X240.771Y-282.71
X240.775Y-44.363
X240.776Y-117.807
X240.782Y-265.419
X240.783Y-196.869
X240.79Y-61.771
X240.793Y-310.815
X240.794Y-255.071
X240.797Y-90.182
X242.635Y-64.354
X242.641Y-186.208
X242.648Y-67.003
X242.649Y-119.993
X242.654Y-56.888
X242.656Y-196.233
X242.658Y-34.063
X242.663Y-226.809
X242.668Y-115.381
X242.671Y-62.197
X242.672Y-53.957
X242.675Y-49.142
X242.691Y-143.456
X242.704Y-183.584
X242.704Y-132.783
X242.713Y-99.981
X242.715Y-80.013
X242.718Y-102.762
X242.721Y-125.73
X242.724Y-201.4
X242.725Y-109.87
X242.727Y-39.036
X242.736Y-181.276
X242.751Y-105.068
X242.751Y-307.986
X242.758Y-242.229
X242.76Y-160.701
X242.772Y-95.042
X242.775Y-270.144
X242.776Y-257.556
X242.787Y-244.9
X242.805Y-295.548
X242.809Y-82.457
X242.81Y-262.585
X242.812Y-292.947
X242.823Y-107.619
X242.827Y-311.098
X242.829Y-252.195
X242.842Y-229.568
X242.848Y-264.813
X242.858Y-239.967
X242.86Y-315.783
X242.861Y-92.231
X242.869Y-148.446
X242.883Y-216.832
X242.887Y-138.284
X242.911Y-173.963
X242.913Y-193.697
X242.953Y-72.075
X242.955Y-122.875
X242.961Y-305.827
X242.976Y-158.53
X242.985Y-298.036
X242.996Y-267.594
X243.007Y-77.333
X243.012Y-52.033
X243.031Y-214.253
X243.032Y-300.729
X243.052Y-259.757
X243.056Y-206.446
X243.061Y-234.454
X243.068Y-130.285
X243.069Y-203.924
X243.073Y-178.491
X243.078Y-59.194
X243.081Y-303.18
X243.103Y-69.328
X243.104Y-211.99
X243.105Y-188.592
X243.126Y-97.194
X243.129Y-175.874
X243.133Y-283.243
X243.138Y-275.446
X243.144Y-254.698
X243.146Y-135.346
X243.157Y-285.141
X243.159Y-117.62
X243.176Y-277.709
X243.178Y-146.061
X243.185Y-290.232
X243.198Y-41.815
X243.209Y-44.068
X243.222Y-191.342
X243.226Y-46.486
X243.228Y-155.555
X243.237Y-36.654
X243.237Y-288.171
X243.244Y-313.289
X243.244Y-209.592
X243.245Y-249.812
X243.26Y-87.44
X243.261Y-247.488
X243.264Y-280.34
X243.27Y-89.67
X243.286Y-84.929
X243.293Y-113.049
X243.305Y-237.489
X243.312Y-272.886
X243.313Y-74.621
X243.333Y-128.107
X243.335Y-232.113
X243.343Y-140.615
X245.17Y-158.551
X245.179Y-239.964
X245.193Y-178.59
X245.202Y-143.325
X245.204Y-275.128
X245.205Y-62.079
X245.209Y-97.447
X245.218Y-272.833
X245.225Y-285.168
X245.231Y-117.743
X245.235Y-71.921
X245.241Y-212.071
X245.266Y-36.228
X245.275Y-191.296
X245.287Y-74.774
X245.299Y-110.346
X245.309Y-310.668
X245.311Y-227.38
X245.322Y-237.213
X245.335Y-102.284
X245.341Y-84.768
X245.347Y-145.487
X245.397Y-315.714
X245.413Y-94.909
X245.419Y-115.17
X245.42Y-264.827
X245.42Y-229.563
X245.422Y-201.912
X245.425Y-153.706
X245.431Y-207.005
X245.456Y-214.014
X245.464Y-44.08
X245.472Y-247.453
X245.474Y-140.829
X245.475Y-107.603
X245.484Y-183.712
X245.51Y-244.551
X245.513Y-125.484
X245.514Y-257.77
X245.523Y-46.877
X245.53Y-267.386
X245.53Y-303.526
X245.531Y-203.811
X245.544Y-300.837
X245.552Y-138.293
X245.554Y-298.012
X245.559Y-39.125
X245.571Y-127.663
X245.574Y-293.339
X245.583Y-59.74
X245.591Y-252.284
X245.602Y-92.302
X245.608Y-104.92
X245.613Y-120.123
X245.614Y-33.905
X245.617Y-282.974
X245.618Y-173.847
X245.619Y-186.17
X245.633Y-82.267
X245.638Y-287.716
X245.641Y-278.078
X245.642Y-67.149
X245.643Y-69.485
X245.654Y-196.219
X245.657Y-308.171
X245.661Y-133.346
X245.675Y-232.033
X245.676Y-280.044
X245.677Y-188.677
X245.678Y-254.909
X245.678Y-234.885
X245.679Y-242.601
X245.686Y-76.906
X245.689Y-176.003
X245.692Y-90.01
X245.697Y-290.603
X245.702Y-122.878
X245.706Y-181.445
X245.72Y-306.064
X245.729Y-41.845
X245.745Y-54.387
X245.764Y-313.508
X245.765Y-270.479
X245.773Y-113.054
X245.776Y-295.564
X245.777Y-99.694
X245.785Y-79.908
X245.788Y-135.74
X245.789Y-87.584
X245.792Y-194.305
X245.801Y-260.187
X245.817Y-49.528
X245.841Y-249.721
X245.846Y-262.432
X245.851Y-209.426
X245.854Y-156.131
X245.856Y-56.897
X245.861Y-130.56
X245.872Y-51.411
X245.873Y-64.726
X247.714Y-122.57
X247.718Y-311.027
X247.718Y-61.986
X247.722Y-67.077
X247.732Y-102.815
X247.737Y-117.579
X247.744Y-219.555
X247.762Y-143.372
X247.768Y-176.017
X247.791Y-280.374
X247.794Y-297.86
X247.813Y-245.15
X247.82Y-234.823
X247.822Y-97.253
X247.858Y-130.525
X247.861Y-56.909
X247.865Y-290.851
X247.867Y-41.949
X247.874Y-272.705
X247.891Y-204.116
X247.9Y-94.613
X247.9Y-282.601
X247.9Y-209.559
X247.914Y-104.927
X247.942Y-316.121
X247.967Y-201.526
X247.987Y-303.063
X248.02Y-308.533
X248.026Y-186.329
X248.028Y-247.089
X248.035Y-295.911
X248.043Y-82.332
X248.051Y-285.231
X248.051Y-79.644
X248.061Y-242.193
X248.07Y-189.218
X248.092Y-191.716
X248.108Y-110.07
X248.108Y-34.092
X248.11Y-173.859
X248.112Y-183.725
X248.113Y-277.777
X248.115Y-264.946
X248.116Y-163.561
X248.122Y-135.76
X248.124Y-156.248
X248.13Y-231.815
X248.14Y-44.394
X248.143Y-120.029
X248.143Y-132.711
X248.159Y-313.744
X248.17Y-69.859
X248.172Y-193.908
X248.181Y-107.658
X248.193Y-87.627
X248.201Y-92.321
X248.207Y-89.607
X248.208Y-178.857
X248.211Y-138.072
X248.214Y-39.028
X248.219Y-77.419
X248.228Y-262.771
X248.231Y-153.081
X248.252Y-206.83
X248.252Y-267.874
X248.255Y-140.524
X248.265Y-49.437
X248.272Y-305.866
X248.279Y-181.528
X248.281Y-293.092
X248.287Y-72.015
X248.293Y-59.179
X248.302Y-128.289
X248.314Y-250.071
X248.314Y-288.269
X248.317Y-54.421
X248.317Y-36.267
X248.325Y-254.786
X248.326Y-74.855
X248.334Y-150.726
X248.337Y-64.809
X248.353Y-270.297
X248.353Y-260.325
X248.36Y-46.327
X248.364Y-84.496
X248.366Y-125.714
X248.368Y-300.968
X248.37Y-275.499
X248.377Y-52.026
X248.378Y-252.434
X248.384Y-237.508
X248.389Y-226.873
X248.4Y-113.062
X248.402Y-115.038
X248.404Y-257.858
X248.405Y-239.918
X248.406Y-212.037
X248.41Y-229.746
X248.418Y-100.375
X250.25Y-69.341
X250.253Y-135.825
X250.257Y-36.297
X250.261Y-97.398
X250.266Y-44.318
X250.266Y-203.83
X250.273Y-265.47
X250.275Y-112.865
X250.281Y-127.689
X250.29Y-125.551
X250.292Y-160.665
X250.297Y-120.698
X250.307Y-188.808
X250.309Y-138.069
X250.325Y-153.327
X250.333Y-140.373
X250.339Y-302.983
X250.353Y-234.61
X250.361Y-84.632
X250.365Y-236.871
X250.366Y-293.053
X250.376Y-150.738
X250.382Y-118.112
X250.383Y-252.475
X250.387Y-105.288
X250.397Y-41.967
X250.414Y-115.391
X250.419Y-287.758
X250.433Y-191.254
X250.44Y-255.093
X250.449Y-38.762
X250.456Y-313.366
X250.457Y-295.904
X250.464Y-310.84
X250.481Y-82.345
X250.485Y-184.052
X250.485Y-48.962
X250.487Y-290.448
X250.489Y-67.29
X250.498Y-216.8
X250.501Y-34.319
X250.513Y-272.65
X250.518Y-133.324
X250.536Y-59.089
X250.541Y-173.468
X250.547Y-250.157
X250.553Y-122.77
X250.558Y-257.529
X250.584Y-57.061
X250.599Y-305.488
X250.612Y-100.18
X250.615Y-62.275
X250.65Y-229.82
X250.66Y-178.832
X250.664Y-89.7
X250.669Y-163.332
X250.681Y-277.836
X250.682Y-74.764
X250.691Y-51.993
X250.71Y-267.898
X250.715Y-219.334
X250.72Y-110.361
X250.722Y-77.522
X250.723Y-54.063
X250.727Y-298.035
X250.736Y-227.088
X250.743Y-247.511
X250.75Y-46.912
X250.766Y-87.358
X250.767Y-270.01
X250.775Y-308.388
X250.804Y-244.482
X250.809Y-260.294
X250.825Y-262.704
X250.826Y-209.232
X250.827Y-130.672
X250.827Y-239.973
X250.827Y-186.282
X250.845Y-285.32
X250.845Y-94.826
X250.851Y-282.716
X250.854Y-316.047
X250.862Y-92.115
X250.865Y-280.558
X250.865Y-231.84
X250.867Y-72.204
X250.876Y-201.327
X250.899Y-102.723
X250.902Y-242.25
X250.917Y-206.824
X250.924Y-181.172
X250.935Y-64.637
X250.939Y-148.07
X250.94Y-275.376
X250.948Y-79.361
X250.949Y-176.404
X250.955Y-107.551
X250.965Y-300.859
X252.795Y-112.602
X252.796Y-283.033
X252.801Y-302.963
X252.815Y-122.546
X252.82Y-278.066
X252.824Y-300.792
X252.825Y-204.375
X252.833Y-72.264
X252.843Y-262.429
X252.846Y-54.321
X252.871Y-41.554
X252.899Y-186.327
X252.903Y-237.273
X252.917Y-308.115
X252.919Y-259.816
X252.921Y-33.815
X252.924Y-102.789
X252.928Y-181.596
X252.929Y-255.17
X252.941Y-145.474
X252.948Y-51.974
X252.955Y-310.95
X252.956Y-115.317
X252.957Y-97.725
X252.976Y-219.426
X252.976Y-287.985
X252.98Y-188.852
X252.989Y-295.327
X252.99Y-298.2
X253.021Y-46.447
X253.021Y-57.041
X253.042Y-275.416
X253.042Y-247.169
X253.048Y-305.641
X253.051Y-242.318
X253.053Y-100.014
X253.06Y-285.754
X253.06Y-315.705
X253.07Y-161.001
X253.082Y-201.453
X253.087Y-267.846
X253.099Y-252.764
X253.108Y-163.611
X253.125Y-49.186
X253.128Y-82.476
X253.169Y-227.186
X253.183Y-125.724
X253.187Y-229.25
X253.192Y-292.782
X253.193Y-244.861
X253.22Y-249.835
X253.233Y-74.288
X253.246Y-206.873
X253.25Y-107.996
X253.25Y-132.812
X253.251Y-120.171
X253.265Y-62.161
X253.278Y-84.498
X253.287Y-110.134
X253.294Y-280.551
X253.294Y-43.82
X253.3Y-272.579
X253.301Y-64.475
X253.307Y-264.95
X253.308Y-270.134
X253.309Y-89.738
X253.345Y-95.017
X253.345Y-128.032
X253.346Y-117.707
X253.352Y-36.695
X253.354Y-38.987
X253.376Y-69.282
X253.389Y-313.607
X253.405Y-183.539
X253.411Y-148.28
X253.426Y-257.734
X253.434Y-104.793
X253.45Y-150.829
X253.451Y-80.022
X253.454Y-92.517
X253.459Y-239.39
X253.474Y-87.445
X253.477Y-67.194
X253.492Y-290.238
X253.492Y-130.268
X253.503Y-59.068
X253.505Y-77.281
X255.326Y-186.702
X255.331Y-122.662
X255.333Y-95.233
X255.335Y-59.263
X255.335Y-313.466
X255.336Y-183.525
X255.341Y-257.728
X255.344Y-127.746
X255.348Y-242.381
X255.353Y-62.026
X255.372Y-259.892
X255.399Y-201.552
X255.413Y-105.147
X255.426Y-150.966
X255.427Y-308.024
X255.436Y-262.585
X255.444Y-48.954
X255.444Y-254.95
X255.446Y-120.076
X255.447Y-204.455
X255.457Y-79.384
X255.461Y-305.581
X255.462Y-107.982
X255.465Y-74.339
X255.47Y-252.418
X255.486Y-285.169
X255.495Y-125.119
X255.511Y-115.077
X255.518Y-130.828
X255.524Y-97.558
X255.55Y-85.027
X255.561Y-56.757
X255.565Y-54.579
X255.579Y-146.084
X255.588Y-118.148
X255.611Y-272.873
X255.611Y-300.819
X255.612Y-46.967
X255.618Y-102.629
X255.621Y-148.502
X255.633Y-89.606
X255.639Y-181.094
X255.675Y-239.654
X255.676Y-275.204
X255.694Y-315.788
X255.703Y-247.607
X255.705Y-155.904
X255.708Y-64.71
X255.71Y-36.777
X255.729Y-295.628
X255.731Y-280.29
X255.746Y-311.086
X255.747Y-38.718
X255.755Y-67.332
X255.76Y-69.894
X255.761Y-173.383
X255.766Y-132.864
X255.787Y-77.257
X255.788Y-44.432
X255.796Y-245.166
X255.805Y-250.011
X255.81Y-211.429
X255.819Y-143.321
X255.824Y-219.689
X255.839Y-303.227
X255.854Y-99.806
X255.889Y-112.73
X255.894Y-288.25
X255.915Y-297.943
X255.92Y-135.447
X255.92Y-265.055
X255.923Y-92.097
X255.924Y-267.747
X255.936Y-34.048
X255.937Y-51.713
X255.939Y-270.275
X255.942Y-226.92
X255.955Y-277.712
X255.958Y-71.959
X255.967Y-232.13
X255.968Y-87.171
X255.969Y-166.212
X255.986Y-109.988
X256.007Y-41.779
X256.008Y-290.581
X256.011Y-282.939
X256.017Y-293.258
X256.025Y-229.328
X256.035Y-82.375
X257.876Y-287.713
X257.881Y-44.336
X257.882Y-82.6
X257.884Y-292.974
X257.893Y-84.456
X257.905Y-280.045
X257.91Y-262.719
X257.913Y-133.316
X257.916Y-51.611
X257.921Y-252.369
X257.935Y-247.429
X257.942Y-130.632
X257.943Y-150.694
X257.971Y-36.433
X257.994Y-62.15
X257.997Y-95.236
X258.003Y-92.385
X258.006Y-112.807
X258.013Y-56.72
X258.037Y-79.678
X258.051Y-272.554
X258.057Y-115.183
X258.073Y-102.687
X258.079Y-285.777
X258.08Y-77.155
X258.081Y-221.707
X258.084Y-183.789
X258.087Y-66.871
X258.095Y-297.936
X258.096Y-277.924
X258.097Y-310.833
X258.16Y-260.087
X258.164Y-308.097
X258.181Y-303.078
X258.183Y-148.407
X258.192Y-38.836
X258.203Y-49.367
X258.208Y-87.467
X258.232Y-315.786
X258.235Y-270.383
X258.239Y-54.468
X258.252Y-97.555
X258.253Y-107.368
X258.272Y-290.521
X258.287Y-232.111
X258.29Y-156.085
X258.291Y-125.183
X258.311Y-117.953
X258.318Y-265.269
X258.329Y-104.785
X258.336Y-127.813
X258.34Y-41.588
X258.372Y-122.647
X258.373Y-313.398
X258.38Y-72.408
X258.387Y-305.431
X258.39Y-257.573
X258.397Y-46.468
X258.397Y-145.742
X258.417Y-254.631
X258.419Y-242.246
X258.42Y-267.393
X258.424Y-64.751
X258.439Y-201.269
X258.45Y-283.125
X258.466Y-99.865
X258.475Y-275.491
X258.478Y-239.556
X258.485Y-69.717
X258.488Y-181.135
X258.492Y-109.962
X258.494Y-89.715
X258.505Y-163.552
X258.506Y-295.582
X258.521Y-74.451
X258.522Y-143.191
X258.528Y-250.209
X258.533Y-33.812
X258.567Y-300.471
X258.568Y-209.47
X258.571Y-59.484
X258.575Y-120.308
X258.581Y-245.114
X260.418Y-80.008
X260.424Y-51.815
X260.429Y-308.457
X260.434Y-69.887
X260.438Y-156.154
X260.443Y-315.862
X260.447Y-231.946
X260.46Y-44.292
X260.462Y-244.518
X260.481Y-176.086
X260.488Y-59.23
X260.505Y-102.447
X260.508Y-107.47
X260.515Y-275.091
X260.522Y-280.099
X260.534Y-300.966
X260.542Y-87.457
X260.545Y-92.695
X260.546Y-257.453
X260.557Y-141.019
X260.56Y-262.784
X260.564Y-219.489
X260.566Y-112.412
X260.569Y-252.11
X260.582Y-290.677
X260.584Y-249.883
X260.587Y-287.948
X260.598Y-303.023
X260.611Y-143.201
X260.614Y-260.145
X260.614Y-118.089
X260.672Y-41.848
X260.681Y-292.731
X260.69Y-285.634
X260.716Y-128.211
X260.717Y-95.212
X260.734Y-295.967
X260.74Y-221.672
X260.741Y-310.622
X260.749Y-67.109
X260.752Y-298.265
X260.753Y-110.414
X260.756Y-306.108
X260.76Y-178.422
X260.778Y-120.002
X260.789Y-277.469
X260.799Y-77.149
X260.82Y-125.675
X260.823Y-54.306
X260.827Y-64.12
X260.831Y-270.241
X260.836Y-272.59
X260.895Y-123.123
X260.9Y-239.979
X260.904Y-265.099
X260.914Y-84.655
X260.946Y-145.581
X260.947Y-71.954
X260.957Y-247.678
X260.962Y-46.336
X260.967Y-282.815
X260.974Y-115.541
X260.975Y-90.071
X260.978Y-56.496
X260.988Y-104.914
X261.0Y-242.626
X261.012Y-254.62
X261.015Y-97.649
X261.023Y-48.869
X261.03Y-313.597
X261.036Y-39.18
X261.036Y-74.761
X261.088Y-62.231
X261.089Y-34.02
X261.098Y-234.594
X261.102Y-267.837
X261.107Y-82.437
X261.115Y-181.461
X261.119Y-36.41
X261.122Y-100.103
X262.957Y-74.454
X262.969Y-100.343
X262.976Y-118.073
X262.978Y-186.058
X262.997Y-262.716
X263.007Y-64.685
X263.009Y-277.894
X263.012Y-275.315
X263.013Y-292.985
X263.02Y-145.727
X263.028Y-219.73
X263.037Y-270.358
X263.039Y-115.188
X263.04Y-87.666
X263.05Y-148.406
X263.066Y-287.894
X263.067Y-67.128
X263.074Y-260.344
X263.081Y-143.01
X263.085Y-267.488
X263.088Y-313.463
X263.096Y-242.118
X263.11Y-69.866
X263.112Y-72.274
X263.118Y-300.672
X263.122Y-176.259
X263.122Y-209.123
X263.136Y-308.644
X263.142Y-104.77
X263.146Y-285.762
X263.167Y-76.926
X263.173Y-92.688
X263.182Y-44.263
X263.183Y-232.306
X263.183Y-221.661
X263.187Y-305.669
X263.189Y-189.174
X263.189Y-264.897
X263.191Y-38.882
X263.204Y-282.873
X263.252Y-34.007
X263.252Y-51.759
X263.257Y-41.419
X263.258Y-173.63
X263.259Y-244.475
X263.265Y-48.961
X263.287Y-59.144
X263.312Y-310.844
X263.315Y-165.888
X263.316Y-153.442
X263.326Y-280.601
X263.333Y-95.24
X263.357Y-298.504
X263.373Y-227.043
X263.379Y-102.376
X263.385Y-47.002
X263.387Y-82.131
X263.393Y-290.674
X263.398Y-107.48
X263.405Y-90.063
X263.429Y-255.077
X263.444Y-315.72
X263.449Y-272.6
X263.471Y-295.788
X263.481Y-84.658
X263.491Y-247.457
X263.492Y-203.873
X263.501Y-127.773
X263.502Y-122.923
X263.535Y-54.274
X263.536Y-257.798
X263.544Y-132.96
X263.545Y-135.51
X263.555Y-206.85
X263.555Y-240.065
X263.575Y-57.055
X263.581Y-112.49
X263.584Y-252.083
X263.597Y-250.126
X263.604Y-151.081
X263.604Y-214.658
X263.612Y-80.011
X263.614Y-130.176
X263.618Y-125.267
X263.622Y-97.489
X263.631Y-303.353
X263.652Y-120.118
X263.658Y-36.619
X263.664Y-61.715
X263.666Y-110.406
X265.504Y-97.474
X265.523Y-143.42
X265.524Y-53.95
X265.528Y-275.495
X265.545Y-118.029
X265.547Y-262.626
X265.556Y-239.56
X265.56Y-102.596
X265.578Y-46.874
X265.583Y-36.721
X265.594Y-72.217
X265.601Y-82.148
X265.609Y-51.622
X265.638Y-267.648
X265.652Y-252.159
X265.661Y-219.408
X265.665Y-257.229
X265.668Y-59.44
X265.689Y-49.195
X265.692Y-120.446
X265.699Y-115.437
X265.704Y-265.264
X265.71Y-283.057
X265.731Y-305.5
X265.739Y-206.994
X265.779Y-290.668
X265.8Y-122.693
X265.803Y-67.032
X265.804Y-105.183
X265.814Y-186.17
X265.818Y-288.0
X265.819Y-125.666
X265.823Y-260.1
X265.834Y-112.51
X265.849Y-90.023
X265.853Y-34.104
X265.854Y-234.975
X265.887Y-293.249
X265.909Y-255.1
X265.914Y-278.118
X265.92Y-69.639
X265.922Y-145.948
X265.931Y-221.719
X265.935Y-285.087
X265.939Y-77.323
X265.947Y-147.968
X265.96Y-244.603
X265.969Y-64.754
X265.973Y-166.0
X265.981Y-183.68
X265.982Y-242.433
X266.002Y-151.179
X266.005Y-79.849
X266.006Y-298.502
X266.011Y-107.935
X266.016Y-74.749
X266.024Y-41.614
X266.031Y-92.695
X266.044Y-250.189
X266.076Y-38.71
X266.077Y-270.274
X266.08Y-315.678
X266.081Y-130.314
X266.09Y-87.46
X266.091Y-44.103
X266.093Y-110.474
X266.095Y-272.818
X266.109Y-84.905
X266.109Y-247.093
X266.111Y-62.011
X266.118Y-302.888
X266.121Y-308.217
X266.126Y-163.355
X266.133Y-57.098
X266.143Y-313.658
X266.164Y-100.007
X266.165Y-295.547
X266.165Y-201.913
X266.173Y-127.964
X266.174Y-310.531
X266.177Y-204.503
X266.192Y-94.839
X266.2Y-280.576
X266.204Y-300.982
X267.0Y-134.0
X267.0Y-153.0
X267.0Y-172.025
X267.0Y-208.5
X267.0Y-228.0
X267.25Y-190.0
X268.034Y-46.868
X268.044Y-305.573
X268.051Y-265.022
X268.053Y-278.14
X268.054Y-112.909
X268.058Y-244.888
X268.062Y-211.964
X268.063Y-303.248
X268.072Y-102.347
X268.099Y-300.938
X268.101Y-252.515
X268.107Y-125.595
X268.113Y-44.114
X268.114Y-79.874
X268.118Y-36.721
X268.123Y-143.33
X268.135Y-232.455
X268.137Y-275.584
X268.139Y-315.604
X268.156Y-95.104
X268.162Y-120.704
X268.165Y-51.735
X268.175Y-242.4
X268.188Y-97.459
X268.194Y-34.044
X268.202Y-74.435
X268.206Y-148.23
X268.209Y-89.578
X268.211Y-69.62
X268.222Y-77.476
X268.233Y-67.127
X268.25Y-201.434
X268.256Y-135.486
X268.269Y-105.322
X268.286Y-54.644
X268.287Y-204.104
X268.31Y-257.326
X268.318Y-84.656
X268.319Y-221.965
X268.322Y-219.676
X268.329Y-59.179
X268.337Y-173.97
X268.34Y-247.706
X268.347Y-122.839
X268.348Y-64.626
X268.361Y-272.842
X268.364Y-38.946
X268.383Y-87.463
X268.407Y-117.864
X268.416Y-260.02
X268.42Y-130.314
X268.423Y-127.97
X268.428Y-163.567
X268.439Y-270.156
X268.457Y-72.202
X268.462Y-298.232
X268.467Y-56.997
X268.49Y-290.564
X268.505Y-254.638
X268.507Y-267.788
X268.511Y-285.136
X268.512Y-41.836
X268.519Y-239.46
X268.526Y-155.774
X268.535Y-100.24
X268.536Y-158.666
X268.542Y-82.362
X268.575Y-283.231
X268.576Y-115.376
X268.581Y-110.169
X268.581Y-295.504
X268.583Y-145.548
X268.591Y-62.167
X268.614Y-206.892
X268.614Y-166.071
X268.644Y-280.713
X268.651Y-249.881
X268.664Y-313.553
X268.666Y-191.164
X268.668Y-92.717
X268.671Y-107.599
X268.68Y-311.179
X268.685Y-262.228
X268.685Y-49.089
X268.693Y-308.317
X268.7Y-293.19
X268.705Y-288.202
X268.733Y-234.36
X270.573Y-252.737
X270.582Y-206.557
X270.583Y-242.132
X270.591Y-219.507
X270.594Y-315.905
X270.599Y-125.658
X270.599Y-181.632
X270.608Y-211.828
X270.615Y-186.455
X270.616Y-43.993
X270.629Y-69.358
X270.636Y-82.174
X270.659Y-303.217
X270.665Y-33.659
X270.666Y-130.16
X270.669Y-74.658
X270.672Y-51.669
X270.674Y-204.311
X270.676Y-49.261
X270.69Y-199.39
X270.693Y-36.421
X270.697Y-300.506
X270.705Y-117.702
X270.732Y-305.513
X270.735Y-209.329
X270.739Y-237.424
X270.744Y-308.329
X270.77Y-277.779
X270.771Y-265.191
X270.78Y-255.104
X270.788Y-257.686
X270.788Y-92.101
X270.791Y-79.729
X270.791Y-282.943
X270.793Y-290.184
X270.803Y-229.627
X270.838Y-262.298
X270.875Y-250.183
X270.89Y-222.2
X270.892Y-153.009
X270.895Y-114.969
X270.899Y-201.727
X270.9Y-260.399
X270.914Y-46.411
X270.919Y-145.514
X270.92Y-161.257
X270.946Y-270.493
X270.946Y-135.429
X270.952Y-142.959
X270.964Y-112.42
X270.977Y-280.448
X270.985Y-247.21
X270.988Y-90.151
X270.996Y-95.241
X271.003Y-59.523
X271.006Y-77.078
X271.013Y-313.096
X271.022Y-99.834
X271.037Y-67.354
X271.055Y-288.296
X271.059Y-297.835
X271.066Y-165.786
X271.067Y-292.787
X271.079Y-272.5
X271.083Y-150.987
X271.095Y-97.847
X271.108Y-57.052
X271.113Y-311.141
X271.113Y-107.648
X271.127Y-87.419
X271.154Y-71.85
X271.161Y-163.585
X271.165Y-267.454
X271.17Y-275.23
X271.171Y-102.827
X271.172Y-183.932
X271.176Y-39.001
X271.184Y-110.474
X271.193Y-105.053
X271.211Y-85.061
X271.217Y-285.588
X271.219Y-54.535
X271.223Y-120.391
X271.227Y-123.208
X271.229Y-64.516
X271.242Y-239.443
X271.249Y-244.723
X271.252Y-295.666
X271.253Y-133.069
X271.256Y-226.91
X271.259Y-41.822
X271.279Y-127.777
X271.282Y-62.265
X273.11Y-295.643
X273.129Y-115.381
X273.13Y-56.753
X273.135Y-110.001
X273.143Y-82.021
X273.154Y-77.327
X273.161Y-112.974
X273.163Y-123.235
X273.181Y-117.694
X273.191Y-41.613
X273.209Y-277.57
X273.211Y-120.5
X273.218Y-33.996
X273.229Y-99.718
X273.234Y-90.05
X273.247Y-226.804
X273.251Y-229.876
X273.251Y-288.147
X273.254Y-153.151
X273.261Y-307.956
X273.264Y-54.662
X273.264Y-102.231
X273.276Y-92.382
X273.3Y-219.355
X273.315Y-247.412
X273.322Y-313.224
X273.323Y-252.509
X273.325Y-290.229
X273.337Y-315.906
X273.34Y-52.106
X273.341Y-94.962
X273.346Y-262.59
X273.374Y-222.024
X273.375Y-265.227
X273.378Y-274.979
X273.38Y-59.615
X273.391Y-269.985
X273.396Y-165.841
X273.409Y-64.422
X273.426Y-203.808
X273.429Y-255.022
X273.429Y-148.073
X273.433Y-44.355
X273.437Y-67.325
X273.443Y-79.695
X273.444Y-97.242
X273.471Y-186.652
X273.476Y-39.391
X273.477Y-245.11
X273.487Y-267.34
X273.498Y-105.392
X273.509Y-125.234
X273.513Y-181.19
X273.521Y-209.253
X273.522Y-163.415
X273.526Y-130.159
X273.526Y-298.422
X273.53Y-107.71
X273.547Y-69.748
X273.549Y-46.411
X273.559Y-285.757
X273.57Y-260.032
X273.575Y-272.791
X273.599Y-250.247
X273.604Y-201.324
X273.621Y-305.706
X273.637Y-310.871
X273.655Y-206.389
X273.659Y-128.315
X273.677Y-62.285
X273.68Y-142.875
X273.698Y-36.425
X273.712Y-257.251
X273.714Y-183.573
X273.716Y-283.137
X273.725Y-303.041
X273.73Y-49.386
X273.736Y-86.986
X273.738Y-72.071
X273.743Y-84.46
X273.745Y-74.493
X273.754Y-132.714
X273.756Y-280.102
X273.771Y-293.04
X273.787Y-239.396
X273.803Y-241.969
X273.805Y-300.712
X275.648Y-239.43
X275.653Y-71.978
X275.67Y-252.727
X275.675Y-102.434
X275.683Y-293.253
X275.686Y-51.81
X275.691Y-80.065
X275.695Y-308.597
X275.696Y-128.214
X275.701Y-94.865
X275.704Y-211.516
X275.71Y-92.484
X275.715Y-262.913
X275.716Y-229.351
X275.737Y-267.554
X275.74Y-57.001
X275.742Y-41.753
X275.753Y-209.159
X275.783Y-107.58
X275.783Y-145.598
X275.783Y-87.138
X275.798Y-273.081
X275.83Y-163.463
X275.86Y-99.817
X275.87Y-132.912
X275.871Y-247.38
X275.871Y-105.427
X275.873Y-244.51
X275.874Y-130.646
X275.875Y-191.609
X275.881Y-310.654
X275.896Y-270.144
X275.906Y-135.398
X275.92Y-64.731
X275.933Y-295.287
X275.938Y-254.904
X275.947Y-231.985
X275.968Y-59.695
X275.975Y-242.108
X275.98Y-290.393
X275.983Y-288.319
X275.986Y-260.012
X275.997Y-280.364
X276.018Y-250.193
X276.021Y-153.69
X276.021Y-204.308
X276.022Y-275.426
X276.029Y-221.749
X276.037Y-117.899
X276.037Y-74.726
X276.038Y-303.544
X276.048Y-33.961
X276.052Y-181.359
X276.058Y-84.918
X276.061Y-69.559
X276.066Y-123.147
X276.076Y-54.137
X276.08Y-183.998
X276.086Y-173.561
X276.105Y-114.945
X276.109Y-186.128
X276.109Y-66.764
X276.112Y-77.182
X276.118Y-201.344
X276.136Y-110.223
X276.164Y-226.91
X276.179Y-300.755
X276.181Y-112.435
X276.184Y-264.871
X276.191Y-125.114
X276.195Y-156.198
X276.208Y-305.786
X276.225Y-166.283
X276.229Y-82.539
X276.248Y-46.687
X276.252Y-97.409
X276.278Y-43.962
X276.302Y-315.987
X276.306Y-120.469
X276.311Y-194.299
X276.312Y-298.052
X276.314Y-285.397
X276.318Y-62.007
X276.319Y-313.156
X276.32Y-219.577
X276.327Y-282.844
X276.329Y-38.961
X276.331Y-257.495
X276.336Y-49.288
X276.35Y-277.849
X276.352Y-36.293
X276.357Y-89.832
X278.198Y-282.928
X278.2Y-262.847
X278.202Y-143.423
X278.215Y-311.089
X278.217Y-255.307
X278.27Y-36.474
X278.279Y-305.451
X278.282Y-92.766
X278.292Y-250.228
X278.297Y-51.627
X278.308Y-87.08
X278.32Y-82.204
X278.322Y-287.706
X278.328Y-49.266
X278.352Y-47.019
X278.369Y-110.51
X278.372Y-278.07
X278.391Y-77.117
X278.397Y-292.785
X278.401Y-183.667
X278.427Y-74.974
X278.432Y-270.234
X278.438Y-112.64
X278.439Y-275.3
X278.439Y-265.116
X278.444Y-242.147
X278.447Y-201.933
X278.453Y-260.275
X278.464Y-117.793
X278.464Y-231.991
X278.467Y-62.138
X278.472Y-69.756
X278.475Y-54.551
X278.482Y-308.06
X278.483Y-298.315
X278.501Y-252.519
X278.501Y-64.466
X278.526Y-193.704
X278.541Y-290.381
X278.544Y-244.532
X278.559Y-44.119
X278.577Y-38.89
X278.579Y-56.629
X278.589Y-66.895
X278.59Y-94.677
X278.597Y-239.591
X278.599Y-84.458
X278.623Y-89.837
X278.624Y-102.788
X278.635Y-300.401
X278.651Y-122.788
X278.686Y-285.761
X278.704Y-280.556
X278.73Y-97.311
X278.739Y-34.346
X278.739Y-115.506
X278.745Y-257.169
X278.747Y-155.736
X278.749Y-272.654
X278.752Y-181.512
X278.784Y-163.31
X278.796Y-315.774
X278.806Y-107.408
X278.811Y-128.101
X278.819Y-267.471
X278.82Y-120.009
X278.829Y-100.272
X278.832Y-295.823
X278.834Y-59.741
X278.839Y-219.503
X278.868Y-221.731
X278.873Y-313.551
X278.876Y-41.275
X278.878Y-105.27
X278.894Y-79.846
X278.899Y-72.129
X278.9Y-303.272
X278.902Y-125.69
X278.905Y-247.524
X280.741Y-148.529
X280.741Y-49.295
X280.752Y-36.885
X280.756Y-66.724
X280.762Y-54.082
X280.764Y-104.777
X280.768Y-240.055
X280.769Y-125.191
X280.788Y-92.718
X280.797Y-298.023
X280.808Y-252.275
X280.839Y-112.976
X280.846Y-150.634
X280.859Y-64.16
X280.87Y-115.157
X280.88Y-313.502
X280.892Y-94.776
X280.911Y-89.722
X280.913Y-59.669
X280.92Y-69.561
X280.932Y-176.386
X280.934Y-168.36
X280.942Y-173.742
X280.944Y-46.749
X280.95Y-305.5
X280.95Y-100.283
X280.952Y-275.184
X280.952Y-254.768
X280.964Y-219.724
X280.969Y-293.143
X280.973Y-262.32
X280.976Y-295.779
X280.991Y-33.931
X281.004Y-231.952
X281.007Y-212.104
X281.015Y-244.974
X281.021Y-82.397
X281.029Y-303.325
X281.035Y-265.317
X281.047Y-267.746
X281.054Y-280.487
X281.054Y-270.457
X281.063Y-123.02
X281.073Y-226.918
X281.077Y-62.096
X281.085Y-209.418
X281.096Y-127.669
X281.104Y-97.571
X281.116Y-257.445
X281.125Y-74.815
X281.128Y-79.966
X281.135Y-77.263
X281.137Y-193.898
X281.152Y-84.968
X281.157Y-107.639
X281.159Y-110.545
X281.167Y-249.905
X281.18Y-310.794
X281.197Y-186.371
X281.198Y-282.786
X281.203Y-132.781
X281.204Y-242.449
X281.209Y-214.221
X281.245Y-273.09
X281.249Y-155.642
X281.253Y-191.422
X281.255Y-130.195
X281.268Y-38.84
X281.28Y-285.774
X281.28Y-41.552
X281.293Y-229.593
X281.296Y-51.907
X281.304Y-120.517
X281.31Y-117.524
X281.31Y-277.641
X281.315Y-183.637
X281.324Y-247.46
X281.328Y-87.635
X281.348Y-259.99
X281.351Y-181.446
X281.36Y-308.484
X281.368Y-315.796
X281.37Y-206.449
X281.374Y-102.682
X281.374Y-153.015
X281.382Y-44.177
X281.384Y-300.332
X281.387Y-290.837
X281.416Y-56.903
X281.429Y-287.646
X281.433Y-71.953
X283.271Y-264.804
X283.272Y-56.791
X283.273Y-130.337
X283.274Y-275.031
X283.28Y-99.738
X283.287Y-76.829
X283.291Y-287.749
X283.307Y-153.129
X283.311Y-64.411
X283.316Y-72.008
X283.332Y-231.784
X283.345Y-239.475
X283.361Y-115.551
X283.364Y-262.317
X283.368Y-46.426
X283.391Y-181.36
X283.393Y-87.302
X283.396Y-292.809
X283.418Y-122.975
X283.425Y-125.08
X283.43Y-82.521
X283.43Y-137.853
X283.444Y-97.398
X283.448Y-94.693
X283.451Y-112.588
X283.457Y-298.288
X283.459Y-315.756
X283.463Y-33.675
X283.465Y-229.518
X283.48Y-39.046
X283.497Y-44.126
X283.5Y-67.06
X283.506Y-176.569
X283.507Y-62.167
X283.511Y-92.376
X283.522Y-107.807
X283.524Y-194.04
X283.532Y-303.568
X283.539Y-203.87
X283.566Y-165.868
X283.576Y-79.803
X283.582Y-257.415
X283.591Y-242.227
X283.609Y-305.856
X283.61Y-290.69
X283.614Y-211.952
X283.62Y-84.717
X283.637Y-117.983
X283.645Y-234.491
X283.651Y-247.345
X283.662Y-300.734
X283.667Y-310.629
X283.682Y-244.456
X283.685Y-54.196
X283.687Y-295.307
X283.688Y-120.295
X283.699Y-278.139
X283.708Y-49.158
X283.715Y-186.096
X283.722Y-196.772
X283.722Y-272.788
X283.733Y-41.705
X283.733Y-254.977
X283.734Y-74.535
X283.736Y-69.386
X283.745Y-280.457
X283.754Y-110.448
X283.754Y-285.412
X283.756Y-51.564
X283.773Y-183.59
X283.778Y-250.242
X283.793Y-270.331
X283.794Y-36.498
X283.818Y-156.104
X283.843Y-173.871
X283.848Y-216.531
X283.857Y-206.509
X283.882Y-102.518
X283.894Y-168.771
X283.899Y-214.544
X283.91Y-191.693
X283.917Y-252.535
X283.927Y-105.327
X283.933Y-267.856
X283.934Y-158.719
X283.939Y-128.046
X283.945Y-59.082
X283.947Y-209.02
X283.948Y-148.415
X283.95Y-179.047
X283.955Y-308.329
X283.958Y-282.975
X283.969Y-150.475
X283.973Y-313.092
X283.976Y-89.84
X283.977Y-145.471
X283.985Y-260.405
X285.75Y-190.0
X285.807Y-69.602
X285.813Y-127.832
X285.815Y-48.965
X285.822Y-265.458
X285.826Y-74.315
X285.87Y-242.414
X285.874Y-204.058
X285.894Y-277.672
X285.911Y-252.734
X285.913Y-57.138
X285.914Y-148.298
X285.919Y-292.975
X285.921Y-283.165
X285.94Y-313.557
X285.953Y-112.514
X285.954Y-305.417
X285.963Y-272.705
X285.964Y-84.931
X285.964Y-46.589
X285.965Y-52.063
X285.968Y-120.179
X285.975Y-115.354
X285.982Y-163.795
X285.998Y-298.5
X286.0Y-152.75
X286.0Y-171.0
X286.0Y-208.25
X286.018Y-79.43
X286.019Y-168.47
X286.027Y-122.909
X286.047Y-234.558
X286.049Y-97.317
X286.049Y-270.281
X286.051Y-54.055
X286.053Y-61.757
X286.056Y-249.893
X286.063Y-257.841
X286.069Y-41.258
X286.071Y-310.629
X286.073Y-72.194
X286.074Y-145.628
X286.084Y-104.77
X286.085Y-165.984
X286.106Y-287.984
X286.109Y-107.362
X286.11Y-255.168
X286.117Y-130.435
X286.133Y-77.411
X286.141Y-280.073
X286.145Y-247.382
X286.146Y-240.082
X286.154Y-109.902
X286.158Y-66.817
X286.175Y-36.813
X286.214Y-100.116
X286.215Y-244.755
X286.216Y-44.107
X286.236Y-303.171
X286.25Y-133.75
X286.25Y-227.75
X286.256Y-81.982
X286.259Y-300.483
X286.266Y-290.271
X286.267Y-275.254
X286.274Y-262.703
X286.296Y-125.172
X286.327Y-150.845
X286.329Y-64.385
X286.341Y-87.089
X286.346Y-34.218
X286.4Y-260.063
X286.422Y-295.449
X286.426Y-89.836
X286.43Y-201.568
X286.442Y-183.743
X286.445Y-206.521
X286.454Y-39.258
X286.46Y-117.481
X286.46Y-221.84
X286.463Y-267.981
X286.464Y-102.588
X286.472Y-59.708
X286.475Y-186.713
X286.501Y-92.395
X286.503Y-94.817
X286.503Y-143.359
X286.504Y-308.353
X286.517Y-285.362
X286.521Y-315.769
X286.522Y-180.971
X286.522Y-224.244
X288.348Y-74.463
X288.351Y-102.676
X288.355Y-259.912
X288.356Y-237.123
X288.394Y-92.74
X288.395Y-69.806
X288.413Y-130.326
X288.417Y-313.067
X288.425Y-183.816
X288.428Y-54.023
X288.429Y-222.253
X288.432Y-84.722
X288.436Y-46.605
X288.449Y-79.599
X288.472Y-87.349
X288.477Y-161.137
X288.488Y-135.525
X288.497Y-77.516
X288.505Y-227.075
X288.52Y-67.198
X288.523Y-107.528
X288.524Y-232.215
X288.531Y-247.676
X288.535Y-153.173
X288.542Y-148.124
X288.543Y-104.825
X288.547Y-308.511
X288.55Y-293.306
X288.562Y-41.506
X288.566Y-36.305
X288.569Y-295.562
X288.57Y-97.801
X288.575Y-277.58
X288.582Y-168.899
X288.588Y-239.996
X288.591Y-122.997
X288.599Y-110.215
X288.601Y-62.173
X288.628Y-34.087
X288.638Y-178.832
X288.64Y-310.525
X288.646Y-288.07
X288.648Y-265.332
X288.669Y-120.284
X288.674Y-298.34
X288.676Y-181.543
X288.676Y-305.917
X288.68Y-285.51
X288.691Y-315.976
X288.72Y-44.156
X288.722Y-171.242
X288.726Y-216.617
X288.731Y-219.535
X288.734Y-245.081
X288.738Y-64.243
X288.749Y-201.274
X288.75Y-257.722
X288.753Y-95.112
X288.761Y-250.181
X288.784Y-275.591
X288.784Y-150.846
X288.789Y-176.264
X288.793Y-280.554
X288.802Y-100.362
X288.805Y-38.752
X288.823Y-145.765
X288.827Y-163.192
X288.829Y-224.287
X288.833Y-56.776
X288.833Y-206.979
X288.839Y-191.483
X288.859Y-209.156
X288.867Y-81.891
X288.871Y-140.432
X288.883Y-133.0
X288.89Y-51.806
X288.9Y-270.464
X288.9Y-214.42
X288.911Y-125.735
X288.919Y-282.556
X288.927Y-300.999
X288.928Y-112.822
X288.93Y-143.194
X288.938Y-229.715
X288.947Y-72.347
X288.953Y-59.158
X288.962Y-115.592
X288.974Y-272.564
X288.979Y-252.399
X288.981Y-290.461
X288.988Y-212.107
X288.992Y-267.349
X288.995Y-127.926
X288.998Y-199.043
X288.999Y-255.081
X289.004Y-204.0
X289.005Y-234.865
X289.007Y-242.08
X289.012Y-166.3
X289.021Y-89.752
X289.028Y-118.057
X289.028Y-49.229
X289.03Y-262.451
X289.038Y-303.102
X289.063Y-174.011
X290.891Y-97.224
X290.899Y-267.338
X290.902Y-163.311
X290.905Y-49.501
X290.932Y-264.79
X290.941Y-201.855
X290.947Y-64.284
X290.958Y-181.61
X290.961Y-120.057
X290.967Y-109.938
X290.975Y-208.895
X290.984Y-130.787
X290.988Y-77.329
X290.99Y-240.085
X290.998Y-102.83
X290.999Y-145.873
X291.0Y-280.202
X291.001Y-290.855
X291.01Y-41.579
X291.023Y-44.009
X291.023Y-112.443
X291.024Y-293.412
X291.031Y-255.044
X291.042Y-273.085
X291.046Y-316.095
X291.046Y-84.622
X291.053Y-257.289
X291.056Y-245.067
X291.059Y-282.868
X291.059Y-117.718
X291.079Y-311.165
X291.094Y-74.435
X291.105Y-151.075
X291.111Y-34.045
X291.113Y-189.038
X291.122Y-61.844
X291.124Y-237.082
X291.134Y-46.503
X291.138Y-165.777
X291.159Y-285.397
X291.164Y-82.547
X291.169Y-247.359
X291.178Y-57.111
X291.19Y-252.356
X291.204Y-127.919
X291.212Y-260.156
X291.215Y-206.907
X291.23Y-87.498
X291.237Y-123.029
X291.238Y-308.047
X291.248Y-277.902
X291.249Y-80.051
X291.25Y-148.344
X291.25Y-115.084
X291.255Y-143.25
X291.258Y-107.992
X291.261Y-226.919
X291.277Y-99.9
X291.279Y-221.811
X291.283Y-38.964
X291.29Y-92.448
X291.296Y-105.189
X291.299Y-300.432
X291.33Y-287.77
X291.341Y-72.209
X291.352Y-66.999
X291.362Y-89.815
X291.365Y-297.835
X291.377Y-59.542
X291.382Y-51.945
X291.404Y-313.319
X291.412Y-203.908
X291.417Y-199.307
X291.423Y-161.072
X291.423Y-295.915
X291.424Y-224.654
X291.425Y-94.741
X291.428Y-132.941
X291.44Y-69.353
X291.45Y-242.378
X291.478Y-249.583
X291.493Y-54.493
X291.499Y-303.45
X291.521Y-219.384
X291.527Y-274.968
X291.53Y-305.696
X291.539Y-270.33
X291.545Y-36.494
X291.552Y-262.308
X291.559Y-125.504
X291.56Y-171.312
X291.577Y-168.365
X293.43Y-39.402
X293.46Y-148.293
X293.461Y-112.435
X293.47Y-292.718
X293.473Y-257.483
X293.478Y-72.378
X293.484Y-186.035
X293.487Y-212.006
X293.506Y-298.122
X293.541Y-254.689
X293.545Y-277.521
X293.577Y-41.621
X293.58Y-290.451
X293.583Y-87.118
X293.616Y-155.793
X293.62Y-193.908
X293.63Y-84.527
X293.633Y-69.837
X293.638Y-92.191
X293.647Y-102.336
X293.668Y-221.814
X293.67Y-100.373
X293.676Y-244.977
X293.687Y-82.033
X293.693Y-135.397
X293.696Y-283.252
X293.7Y-36.493
X293.705Y-301.025
X293.708Y-89.649
X293.711Y-242.156
X293.717Y-51.471
X293.72Y-274.935
X293.72Y-97.283
X293.759Y-59.033
X293.761Y-227.155
X293.767Y-250.152
X293.768Y-303.302
X293.768Y-171.356
X293.776Y-33.996
X293.785Y-120.663
X293.787Y-143.09
X293.795Y-315.587
X293.796Y-76.921
X293.797Y-264.905
X293.801Y-310.536
X293.802Y-201.48
X293.806Y-209.377
X293.817Y-79.509
X293.837Y-173.85
X293.841Y-109.978
X293.847Y-239.678
X293.85Y-145.888
X293.858Y-285.769
X293.859Y-49.252
X293.86Y-150.739
X293.864Y-168.564
X293.873Y-308.084
X293.875Y-127.663
X293.883Y-163.693
X293.886Y-125.654
X293.887Y-53.948
X293.887Y-229.443
X293.89Y-64.462
X293.908Y-117.534
X293.909Y-260.275
X293.912Y-313.172
X293.92Y-107.319
X293.924Y-44.382
X293.937Y-224.38
X293.939Y-280.503
X293.947Y-288.043
X293.949Y-204.442
X293.982Y-166.4
X293.983Y-267.641
X293.986Y-62.272
X293.99Y-270.296
X293.994Y-66.875
X294.004Y-130.443
X294.024Y-305.579
X294.034Y-57.089
X294.056Y-219.611
X294.059Y-114.957
X294.063Y-95.146
X294.068Y-272.479
X294.071Y-122.864
X294.075Y-46.68
X294.082Y-105.118
X294.091Y-295.449
X294.095Y-206.763
X294.116Y-262.933
X294.12Y-132.84
X294.134Y-247.548
X294.137Y-252.573
X294.144Y-74.276
X295.976Y-311.0
X295.978Y-247.15
X295.98Y-280.372
X295.983Y-61.974
X295.984Y-219.424
X295.987Y-46.724
X296.0Y-163.662
X296.002Y-288.239
X296.026Y-87.556
X296.041Y-56.872
X296.051Y-171.447
X296.058Y-290.63
X296.062Y-143.083
X296.064Y-97.248
X296.066Y-165.817
X296.068Y-33.744
X296.077Y-277.945
X296.08Y-36.66
X296.092Y-244.685
X296.104Y-273.012
X296.108Y-242.366
X296.111Y-113.055
X296.126Y-89.781
X296.133Y-85.099
X296.137Y-275.13
X296.146Y-92.558
X296.155Y-300.42
X296.158Y-270.485
X296.159Y-102.909
X296.159Y-252.18
X296.161Y-262.646
X296.178Y-82.137
X296.18Y-285.256
X296.19Y-145.563
X296.192Y-99.986
X296.192Y-122.9
X296.208Y-224.462
X296.215Y-257.261
X296.229Y-267.756
X296.236Y-298.467
X296.237Y-59.616
X296.245Y-125.541
X296.251Y-74.474
X296.252Y-77.322
X296.272Y-127.789
X296.284Y-155.58
X296.287Y-313.173
X296.299Y-67.312
X296.306Y-249.691
X296.311Y-168.713
X296.312Y-201.805
X296.319Y-194.155
X296.329Y-150.775
X296.329Y-71.88
X296.33Y-69.749
X296.337Y-95.248
X296.337Y-254.622
X296.34Y-295.942
X296.346Y-39.11
X296.354Y-110.005
X296.355Y-204.059
X296.358Y-209.234
X296.373Y-51.781
X296.378Y-183.817
X296.391Y-306.126
X296.395Y-44.033
X296.41Y-54.423
X296.415Y-148.149
X296.476Y-41.556
X296.493Y-64.339
X296.506Y-303.021
X296.511Y-239.538
X296.512Y-315.591
X296.514Y-222.046
X296.521Y-260.309
X296.539Y-293.086
X296.544Y-186.585
X296.57Y-120.219
X296.571Y-105.108
X296.582Y-282.711
X296.582Y-49.064
X296.592Y-206.854
X296.592Y-226.832
X296.594Y-130.697
X296.612Y-308.63
X296.621Y-115.555
X296.635Y-265.076
X296.652Y-117.652
X296.657Y-107.75
X296.67Y-79.853
X296.684Y-133.105
X298.522Y-280.064
X298.523Y-41.822
X298.526Y-277.799
X298.532Y-44.235
X298.55Y-46.618
X298.553Y-104.887
X298.556Y-102.392
X298.558Y-107.902
X298.568Y-316.216
X298.575Y-79.444
X298.607Y-33.816
X298.616Y-127.746
X298.619Y-181.342
X298.625Y-303.086
X298.648Y-267.847
X298.655Y-87.68
X298.685Y-69.219
X298.689Y-311.139
X298.692Y-64.654
X298.694Y-155.783
X298.708Y-285.182
X298.717Y-54.326
X298.719Y-203.934
X298.738Y-247.378
X298.744Y-237.24
X298.76Y-56.954
X298.767Y-97.384
X298.781Y-193.878
X298.793Y-140.373
X298.801Y-62.103
X298.813Y-290.336
X298.82Y-201.792
X298.831Y-74.866
X298.837Y-110.155
X298.846Y-138.452
X298.854Y-244.817
X298.86Y-51.703
X298.872Y-283.187
X298.89Y-39.352
X298.891Y-293.392
X298.899Y-122.618
X298.9Y-255.032
X298.9Y-71.779
X298.912Y-301.006
X298.917Y-100.327
X298.93Y-59.159
X298.949Y-313.625
X298.959Y-214.521
X298.964Y-240.011
X298.966Y-118.021
X298.969Y-250.186
X298.986Y-216.91
X299.002Y-242.606
X299.011Y-125.689
X299.011Y-287.961
X299.017Y-272.809
X299.024Y-196.524
X299.029Y-77.209
X299.03Y-257.241
X299.033Y-143.404
X299.047Y-260.271
X299.048Y-219.761
X299.06Y-90.218
X299.062Y-92.363
X299.064Y-165.842
X299.067Y-183.598
X299.07Y-48.876
X299.075Y-145.43
X299.078Y-275.262
X299.085Y-115.419
X299.09Y-298.036
X299.096Y-120.29
X299.109Y-265.409
X299.114Y-36.798
X299.127Y-112.9
X299.129Y-234.551
X299.13Y-305.65
X299.147Y-158.244
X299.148Y-94.789
X299.165Y-308.615
X299.169Y-67.255
X299.172Y-82.514
X299.173Y-163.554
X299.173Y-85.145
X299.178Y-269.905
X299.18Y-221.661
X299.184Y-252.594
X299.199Y-262.933
X299.201Y-295.469
X301.056Y-105.261
X301.061Y-59.364
X301.064Y-302.954
X301.075Y-242.04
X301.082Y-36.559
X301.087Y-212.099
X301.089Y-125.121
X301.112Y-69.486
X301.114Y-227.319
X301.117Y-87.606
X301.132Y-122.863
X301.142Y-262.259
X301.148Y-168.375
X301.153Y-74.451
X301.161Y-67.325
X301.162Y-72.388
X301.165Y-99.91
X301.169Y-290.589
X301.172Y-61.827
X301.178Y-115.286
X301.186Y-191.168
X301.194Y-97.715
X301.232Y-305.983
X301.234Y-54.552
X301.239Y-204.064
X301.242Y-33.943
X301.252Y-265.315
X301.253Y-120.468
X301.264Y-133.287
X301.265Y-292.898
X301.269Y-310.796
X301.283Y-300.897
X301.287Y-95.156
X301.287Y-156.028
X301.295Y-153.362
X301.304Y-315.755
X301.318Y-285.398
X301.353Y-259.886
X301.357Y-308.453
X301.385Y-142.86
X301.388Y-272.929
X301.389Y-194.232
X301.39Y-52.101
X301.396Y-186.188
X301.4Y-77.522
X301.413Y-110.259
X301.43Y-252.409
X301.43Y-41.875
X301.432Y-313.351
X301.441Y-112.587
X301.455Y-170.97
X301.456Y-183.98
X301.464Y-201.522
X301.468Y-214.611
X301.474Y-288.001
X301.479Y-237.1
X301.49Y-117.854
X301.501Y-277.571
X301.521Y-208.993
X301.537Y-267.347
X301.54Y-107.746
X301.543Y-181.376
X301.556Y-85.018
X301.556Y-49.321
X301.557Y-206.525
X301.559Y-135.343
X301.562Y-219.545
X301.567Y-138.187
X301.573Y-79.734
X301.578Y-221.735
X301.581Y-280.27
X301.586Y-38.863
X301.592Y-275.165
X301.596Y-43.988
X301.6Y-130.283
X301.617Y-229.358
X301.623Y-46.967
X301.633Y-145.693
X301.639Y-270.238
X301.644Y-239.516
X301.644Y-249.676
X301.649Y-64.596
X301.663Y-282.897
X301.68Y-298.256
X301.694Y-82.097
X301.695Y-128.271
X301.696Y-257.336
X301.706Y-150.52
X301.728Y-295.693
X301.73Y-163.8
X301.734Y-92.576
X301.736Y-244.582
X301.745Y-89.566
X301.747Y-255.11
X301.749Y-166.018
X301.749Y-56.561
X301.754Y-247.686
X301.761Y-148.327
X301.762Y-102.267
X303.59Y-306.032
X303.603Y-113.002
X303.609Y-59.31
X303.612Y-265.053
X303.627Y-148.468
X303.628Y-257.715
X303.631Y-196.271
X303.665Y-77.146
X303.673Y-95.286
X303.688Y-87.334
X303.691Y-310.515
X303.696Y-303.188
X303.698Y-82.11
X303.704Y-51.805
X303.707Y-100.122
X303.774Y-34.28
X303.805Y-44.024
X303.809Y-201.895
X303.818Y-123.204
X303.819Y-259.764
X303.834Y-270.538
X303.838Y-313.57
X303.845Y-206.861
X303.847Y-165.938
X303.852Y-71.891
X303.853Y-105.441
X303.853Y-254.918
X303.857Y-118.091
X303.859Y-308.597
X303.869Y-89.754
X303.874Y-285.605
X303.894Y-272.501
X303.897Y-247.322
X303.903Y-145.43
X303.906Y-142.965
X303.913Y-275.104
X303.918Y-181.586
X303.924Y-239.819
X303.93Y-280.324
X303.931Y-300.995
X303.965Y-74.679
X303.965Y-316.125
X303.966Y-61.679
X303.966Y-290.884
X303.977Y-49.109
X303.992Y-102.221
X303.998Y-222.134
X304.01Y-97.215
X304.016Y-128.091
X304.024Y-84.43
X304.025Y-245.012
X304.029Y-125.571
X304.032Y-79.43
X304.042Y-54.417
X304.042Y-120.575
X304.052Y-66.859
X304.063Y-282.633
X304.07Y-186.452
X304.072Y-204.497
X304.087Y-262.891
X304.114Y-150.642
X304.12Y-224.398
X304.13Y-41.479
X304.137Y-277.907
X304.14Y-297.947
X304.157Y-64.206
X304.162Y-295.888
X304.167Y-219.075
X304.178Y-39.343
X304.185Y-107.633
X304.187Y-168.31
X304.188Y-36.229
X304.194Y-69.298
X304.195Y-252.67
X304.197Y-288.257
X304.201Y-130.42
X304.226Y-92.597
X304.23Y-163.287
X304.258Y-183.746
X304.273Y-158.359
X304.275Y-115.601
X304.279Y-242.318
X304.283Y-267.527
X304.289Y-292.964
X304.292Y-110.466
X304.295Y-56.922
X304.298Y-46.678
X304.305Y-250.238
X305.0Y-134.0
X305.0Y-208.5
X305.0Y-228.25
X305.25Y-152.75
X305.25Y-171.0
X305.25Y-189.25
X306.131Y-275.207
X306.133Y-313.316
X306.136Y-234.639
X306.137Y-191.126
X306.149Y-34.263
X306.159Y-244.99
X306.172Y-56.944
X306.178Y-145.708
X306.191Y-163.186
X306.192Y-148.471
X306.193Y-181.441
X306.205Y-298.143
X306.205Y-206.536
X306.217Y-315.904
X306.235Y-239.95
X306.243Y-168.925
X306.244Y-265.435
X306.245Y-277.97
X306.247Y-292.84
X306.247Y-61.954
X306.25Y-184.196
X306.256Y-272.507
X306.258Y-64.421
X306.267Y-176.209
X306.295Y-84.538
X306.295Y-255.274
X306.304Y-285.764
X306.334Y-143.016
X306.341Y-201.467
X306.345Y-49.223
X306.36Y-46.541
X306.365Y-179.034
X306.368Y-117.572
X306.374Y-89.663
X306.378Y-130.68
X306.379Y-135.638
X306.379Y-128.192
X306.39Y-300.334
X306.391Y-280.721
X306.397Y-250.224
X306.4Y-51.927
X306.401Y-267.596
X306.402Y-158.738
X306.405Y-72.392
X306.408Y-242.163
X306.42Y-270.016
X306.421Y-105.136
X306.425Y-247.305
X306.436Y-165.966
X306.437Y-41.933
X306.438Y-59.137
X306.454Y-97.455
X306.509Y-303.577
X306.51Y-295.892
X306.517Y-204.157
X306.526Y-260.049
X306.53Y-232.274
X306.532Y-262.247
X306.535Y-74.74
X306.539Y-110.116
X306.548Y-133.161
X306.551Y-112.819
X306.557Y-79.613
X306.563Y-54.576
X306.566Y-67.316
X306.573Y-87.24
X306.576Y-120.064
X306.581Y-36.824
X306.585Y-82.376
X306.609Y-102.783
X306.655Y-156.143
X306.663Y-194.313
X306.673Y-43.899
X306.674Y-252.087
X306.687Y-99.701
X306.693Y-257.327
X306.696Y-107.821
X306.7Y-150.61
X306.711Y-69.799
X306.715Y-290.594
X306.732Y-173.991
X306.735Y-305.789
X306.74Y-92.094
X306.752Y-196.703
X306.76Y-288.21
X306.765Y-186.421
X306.783Y-123.067
X306.795Y-77.293
X306.806Y-125.276
X306.813Y-115.578
X306.815Y-95.016
X306.819Y-282.931
X308.666Y-209.601
X308.668Y-47.027
X308.669Y-186.116
X308.673Y-145.55
X308.676Y-295.706
X308.679Y-84.7
X308.68Y-232.015
X308.692Y-191.47
X308.696Y-155.637
X308.699Y-283.168
X308.707Y-229.604
X308.707Y-277.512
X308.71Y-204.338
X308.712Y-300.407
X308.718Y-244.707
X308.736Y-199.4
X308.736Y-148.084
X308.757Y-267.795
X308.763Y-290.86
X308.766Y-135.481
X308.769Y-194.313
X308.772Y-74.869
X308.786Y-79.619
X308.79Y-128.025
X308.793Y-280.398
X308.796Y-150.756
X308.81Y-212.078
X308.812Y-36.293
X308.831Y-109.921
X308.868Y-97.286
X308.876Y-171.378
X308.89Y-92.426
X308.897Y-99.69
X308.9Y-285.17
X308.901Y-158.733
X308.911Y-163.777
X308.914Y-64.767
X308.918Y-221.604
X308.936Y-298.224
X308.951Y-184.191
X308.952Y-118.076
X308.953Y-305.455
X308.962Y-67.195
X308.966Y-250.016
X308.966Y-173.968
X308.968Y-307.978
X308.974Y-247.371
X308.983Y-287.793
X308.988Y-216.978
X308.99Y-270.433
X308.995Y-176.135
X309.002Y-315.665
X309.003Y-71.991
X309.005Y-120.418
X309.008Y-137.93
X309.011Y-265.048
X309.016Y-39.417
X309.025Y-303.282
X309.03Y-252.327
X309.04Y-123.16
X309.063Y-102.376
X309.082Y-59.607
X309.083Y-213.972
X309.086Y-206.921
X309.1Y-160.729
X309.101Y-41.828
X309.107Y-153.639
X309.113Y-292.864
X309.114Y-130.27
X309.115Y-54.428
X309.12Y-107.422
X309.124Y-224.37
X309.127Y-125.652
X309.138Y-165.813
X309.142Y-115.434
X309.144Y-226.89
X309.152Y-274.99
X309.169Y-257.539
X309.181Y-262.929
X309.199Y-89.859
X309.215Y-260.36
X309.224Y-51.956
X309.234Y-69.197
X309.24Y-44.129
X309.242Y-272.616
X309.246Y-132.801
X309.253Y-168.302
X309.254Y-56.488
X309.259Y-49.145
X309.261Y-196.877
X309.265Y-236.925
X309.281Y-87.074
X309.289Y-219.624
X309.295Y-239.46
X309.303Y-95.049
X309.315Y-181.337
X309.32Y-143.246
X309.322Y-179.037
X309.324Y-254.982
X309.327Y-311.196
X309.331Y-140.408
X309.34Y-242.354
X309.348Y-104.928
X309.35Y-188.957
X309.351Y-77.124
X309.356Y-313.61
X309.36Y-201.375
X309.363Y-234.369
X309.368Y-82.104
X309.369Y-112.61
X309.369Y-61.767
X309.372Y-33.779
X311.215Y-250.054
X311.25Y-229.653
X311.258Y-209.317
X311.267Y-194.074
X311.273Y-285.254
X311.275Y-211.634
X311.283Y-160.784
X311.287Y-224.211
X311.302Y-265.131
X311.302Y-66.743
X311.326Y-232.366
X311.33Y-166.195
X311.331Y-51.72
X311.346Y-305.686
X311.351Y-120.491
X311.351Y-64.534
X311.373Y-176.19
X311.381Y-87.488
X311.383Y-142.884
X311.387Y-262.707
X311.4Y-168.609
X311.402Y-288.217
X311.405Y-214.082
X311.405Y-201.503
X311.41Y-255.16
X311.413Y-115.09
X311.414Y-153.277
X311.416Y-206.396
X311.419Y-135.682
X311.423Y-308.359
X311.424Y-267.333
X311.435Y-127.713
X311.438Y-242.406
X311.445Y-155.781
X311.468Y-183.581
X311.485Y-151.055
X311.489Y-196.863
X311.489Y-97.614
X311.492Y-130.576
X311.506Y-191.759
X311.506Y-188.649
X311.507Y-239.492
X311.525Y-173.347
X311.532Y-217.165
X311.537Y-54.362
X311.541Y-90.101
X311.542Y-270.176
X311.543Y-311.045
X311.553Y-181.58
X311.562Y-236.863
X311.57Y-61.87
X311.573Y-290.358
X311.581Y-110.076
X311.585Y-39.272
X311.598Y-125.527
X311.599Y-158.439
X311.601Y-303.251
X311.605Y-272.679
X311.608Y-219.667
X311.619Y-257.158
X311.622Y-313.145
X311.637Y-82.088
X311.638Y-71.938
X311.641Y-244.611
X311.642Y-199.376
X311.649Y-79.585
X311.649Y-178.625
X311.662Y-59.095
X311.664Y-204.153
X311.674Y-102.223
X311.675Y-44.505
X311.675Y-112.994
X311.677Y-56.946
X311.679Y-145.937
X311.684Y-222.205
X311.685Y-247.098
X311.687Y-104.89
X311.687Y-133.379
X311.713Y-74.506
X311.717Y-117.543
X311.719Y-234.841
X311.719Y-186.724
X311.727Y-84.538
X311.733Y-252.363
X311.739Y-34.141
X311.74Y-46.722
X311.752Y-300.706
X311.762Y-171.493
X311.776Y-280.063
X311.787Y-295.834
X311.79Y-94.884
X311.791Y-283.182
X311.795Y-275.056
X311.798Y-298.399
X311.798Y-277.923
X311.8Y-92.603
X311.804Y-163.44
X311.842Y-77.251
X311.844Y-69.574
X311.847Y-137.881
X311.848Y-100.245
X311.849Y-122.789
X311.864Y-227.258
X311.864Y-292.871
X311.872Y-36.539
X311.885Y-140.894
X311.893Y-315.816
X311.894Y-41.652
X311.899Y-260.222
X311.901Y-148.191
X311.907Y-49.058
X311.923Y-107.995
T2
X46.0Y-109.05
X46.0Y-128.1
X46.0Y-147.15
X46.0Y-166.2
X46.0Y-185.25
X46.0Y-204.3
X46.0Y-223.35
X46.0Y-242.4
X46.0Y-261.45
X46.0Y-280.5
X65.05Y-80.475
X65.05Y-99.525
X65.05Y-118.575
X65.05Y-137.625
X65.05Y-156.675
X65.05Y-175.725
X65.05Y-194.775
X65.05Y-213.825
X65.05Y-232.875
X65.05Y-251.925
X65.05Y-270.975
X65.05Y-290.025
X84.1Y-90.0
X84.1Y-109.05
X84.1Y-128.1
X84.1Y-147.15
X84.1Y-166.2
X84.1Y-185.25
X84.1Y-204.3
X84.1Y-223.35
X84.1Y-242.4
X84.1Y-261.45
X84.1Y-280.5
X103.15Y-99.525
X103.15Y-118.575
X103.15Y-137.625
X103.15Y-156.675
X103.15Y-175.725
X103.15Y-194.775
X103.15Y-213.825
X103.15Y-232.875
X103.15Y-251.925
X103.15Y-270.975
X147.1Y-64.9
X149.15Y-80.55
X154.3Y-75.8
X260.0Y-130.75
X260.0Y-130.75
X260.0Y-130.75
X260.0Y-130.75
X260.0Y-149.8
X260.0Y-149.8
X260.0Y-149.8
X260.0Y-149.8
X260.0Y-168.85
X260.0Y-168.85
X260.0Y-168.85
X260.0Y-168.85
X260.0Y-187.9
X260.0Y-187.9
X260.0Y-187.9
X260.0Y-206.95
X260.0Y-206.95
X260.0Y-206.95
X260.0Y-206.95
X260.0Y-226.0
X260.0Y-226.0
X260.0Y-226.0
X260.0Y-226.0
X279.05Y-130.75
X279.05Y-130.75
X279.05Y-130.75
X279.05Y-130.75
X279.05Y-149.8
X279.05Y-149.8
X279.05Y-149.8
X279.05Y-149.8
X279.05Y-168.85
X279.05Y-168.85
X279.05Y-168.85
X279.05Y-168.85
X279.05Y-187.9
X279.05Y-187.9
X279.05Y-187.9
X279.05Y-187.9
X279.05Y-206.95
X279.05Y-206.95
X279.05Y-206.95
X279.05Y-206.95
X279.05Y-226.0
X279.05Y-226.0
X279.05Y-226.0
X279.05Y-226.0
X298.1Y-130.75
X298.1Y-130.75
X298.1Y-130.75
X298.1Y-130.75
X298.1Y-149.8
X298.1Y-149.8
X298.1Y-149.8
X298.1Y-149.8
X298.1Y-168.85
X298.1Y-168.85
X298.1Y-168.85
X298.1Y-168.85
X298.1Y-187.9
X298.1Y-187.9
X298.1Y-187.9
X298.1Y-187.9
X298.1Y-206.95
X298.1Y-206.95
X298.1Y-206.95
X298.1Y-206.95
X298.1Y-226.0
X298.1Y-226.0
X298.1Y-226.0
X298.1Y-226.0
T4
X45.8Y-36.5
X48.34Y-36.5
X50.88Y-36.5
X50.88Y-56.5
X53.42Y-36.5
X53.42Y-56.5
X55.96Y-36.5
X55.96Y-56.5
X58.5Y-36.5
X58.5Y-56.5
X61.04Y-36.5
X61.04Y-56.5
X63.58Y-36.5
X63.58Y-56.5
X66.12Y-36.5
X138.78Y-86.255
X141.32Y-86.255
X143.86Y-86.255
X149.96Y-48.905
X149.96Y-51.445
X149.96Y-53.985
X149.96Y-56.525
X149.96Y-59.065
X149.96Y-61.605
T5
X39.65Y-96.54
X39.65Y-115.59
X39.65Y-134.64
X39.65Y-153.69
X39.65Y-172.74
X39.65Y-191.79
X39.65Y-210.84
X39.65Y-229.89
X39.65Y-248.94
X39.65Y-267.99
X39.65Y-287.04
X46.0Y-94.0
X46.0Y-113.05
X46.0Y-132.1
X46.0Y-151.15
X46.0Y-170.2
X46.0Y-189.25
X46.0Y-208.3
X46.0Y-227.35
X46.0Y-246.4
X46.0Y-265.45
X46.0Y-284.5
X58.7Y-87.015
X58.7Y-106.065
X58.7Y-125.115
X58.7Y-144.165
X58.7Y-163.215
X58.7Y-182.265
X58.7Y-201.315
X58.7Y-220.365
X58.7Y-239.415
X58.7Y-258.465
X58.7Y-277.515
X58.7Y-296.565
X65.05Y-84.475
X65.05Y-103.525
X65.05Y-122.575
X65.05Y-141.625
X65.05Y-160.675
X65.05Y-179.725
X65.05Y-198.775
X65.05Y-217.825
X65.05Y-236.875
X65.05Y-255.925
X65.05Y-274.975
X65.05Y-294.025
X77.75Y-96.54
X77.75Y-115.59
X77.75Y-134.64
X77.75Y-153.69
X77.75Y-172.74
X77.75Y-191.79
X77.75Y-210.84
X77.75Y-229.89
X77.75Y-248.94
X77.75Y-267.99
X77.75Y-287.04
X84.1Y-94.0
X84.1Y-113.05
X84.1Y-132.1
X84.1Y-151.15
X84.1Y-170.2
X84.1Y-189.25
X84.1Y-208.3
X84.1Y-227.35
X84.1Y-246.4
X84.1Y-265.45
X84.1Y-284.5
X96.8Y-106.065
X96.8Y-125.115
X96.8Y-144.165
X96.8Y-163.215
X96.8Y-182.265
X96.8Y-201.315
X96.8Y-220.365
X96.8Y-239.415
X96.8Y-258.465
X96.8Y-277.515
X103.15Y-103.525
X103.15Y-122.575
X103.15Y-141.625
X103.15Y-160.675
X103.15Y-179.725
X103.15Y-198.775
X103.15Y-217.825
X103.15Y-236.875
X103.15Y-255.925
X103.15Y-274.975
X220.86Y-49.88
X227.21Y-47.34
X253.65Y-137.29
X253.65Y-156.34
X253.65Y-175.39
X253.65Y-194.44
X253.65Y-213.49
X253.65Y-232.54
X260.0Y-134.75
X260.0Y-153.8
X260.0Y-172.85
X260.0Y-191.9
X260.0Y-210.95
X260.0Y-230.0
X272.7Y-137.29
X272.7Y-156.34
X272.7Y-175.39
X272.7Y-194.44
X272.7Y-213.49
X272.7Y-232.54
X279.05Y-134.75
X279.05Y-153.8
X279.05Y-172.85
X279.05Y-191.9
X279.05Y-210.95
X279.05Y-230.0
X291.75Y-137.29
X291.75Y-156.34
X291.75Y-175.39
X291.75Y-194.44
X291.75Y-213.49
X291.75Y-232.54
X298.1Y-134.75
X298.1Y-153.8
X298.1Y-172.85
X298.1Y-191.9
X298.1Y-210.95
X298.1Y-230.0
T6
X38.18Y-36.5
X38.18Y-56.5
X71.2Y-36.5
X71.2Y-56.5
T3
G00X144.55Y-32.885
M15
G01X144.8Y-32.885
M16
G05
G00X144.55Y-37.185
M15
G01X144.8Y-37.185
M16
G05
G00X149.35Y-32.885
M15
G01X149.6Y-32.885
M16
G05
G00X149.35Y-37.185
M15
G01X149.6Y-37.185
M16
G05
M30
