M48
; DRILL file {KiCad 9.0.5} date 2026-03-31T15:22:02+0200
; FORMAT={-:-/ absolute / metric / decimal}
; #@! TF.CreationDate,2026-03-31T15:22:02+02:00
; #@! TF.GenerationSoftware,Kicad,Pcbnew,9.0.5
; #@! TF.FileFunction,NonPlated,1,2,NPTH
FMAT,2
METRIC
; #@! TA.AperFunction,NonPlated,NPTH,ComponentDrill
T1C0.520
; #@! TA.AperFunction,NonPlated,NPTH,ComponentDrill
T2C1.700
; #@! TA.AperFunction,NonPlated,NPTH,ComponentDrill
T3C2.200
; #@! TA.AperFunction,NonPlated,NPTH,ComponentDrill
T4C4.000
%
G90
G05
T1
X143.325Y-35.035
X150.825Y-35.035
T2
X38.38Y-99.08
X38.38Y-118.13
X38.38Y-137.18
X38.38Y-156.23
X38.38Y-175.28
X38.38Y-194.33
X38.38Y-213.38
X38.38Y-232.43
X38.38Y-251.48
X38.38Y-270.53
X38.38Y-289.58
X48.54Y-99.08
X48.54Y-118.13
X48.54Y-137.18
X48.54Y-156.23
X48.54Y-175.28
X48.54Y-194.33
X48.54Y-213.38
X48.54Y-232.43
X48.54Y-251.48
X48.54Y-270.53
X48.54Y-289.58
X57.43Y-89.555
X57.43Y-108.605
X57.43Y-127.655
X57.43Y-146.705
X57.43Y-165.755
X57.43Y-184.805
X57.43Y-203.855
X57.43Y-222.905
X57.43Y-241.955
X57.43Y-261.005
X57.43Y-280.055
X57.43Y-299.105
X67.59Y-89.555
X67.59Y-108.605
X67.59Y-127.655
X67.59Y-146.705
X67.59Y-165.755
X67.59Y-184.805
X67.59Y-203.855
X67.59Y-222.905
X67.59Y-241.955
X67.59Y-261.005
X67.59Y-280.055
X67.59Y-299.105
X76.48Y-99.08
X76.48Y-118.13
X76.48Y-137.18
X76.48Y-156.23
X76.48Y-175.28
X76.48Y-194.33
X76.48Y-213.38
X76.48Y-232.43
X76.48Y-251.48
X76.48Y-270.53
X76.48Y-289.58
X86.64Y-99.08
X86.64Y-118.13
X86.64Y-137.18
X86.64Y-156.23
X86.64Y-175.28
X86.64Y-194.33
X86.64Y-213.38
X86.64Y-232.43
X86.64Y-251.48
X86.64Y-270.53
X86.64Y-289.58
X95.53Y-108.605
X95.53Y-127.655
X95.53Y-146.705
X95.53Y-165.755
X95.53Y-184.805
X95.53Y-203.855
X95.53Y-222.905
X95.53Y-241.955
X95.53Y-261.005
X95.53Y-280.055
X105.69Y-108.605
X105.69Y-127.655
X105.69Y-146.705
X105.69Y-165.755
X105.69Y-184.805
X105.69Y-203.855
X105.69Y-222.905
X105.69Y-241.955
X105.69Y-261.005
X105.69Y-280.055
X218.32Y-44.8
X228.48Y-44.8
X252.38Y-139.83
X252.38Y-158.88
X252.38Y-177.93
X252.38Y-196.98
X252.38Y-216.03
X252.38Y-235.08
X262.54Y-139.83
X262.54Y-158.88
X262.54Y-177.93
X262.54Y-196.98
X262.54Y-216.03
X262.54Y-235.08
X271.43Y-139.83
X271.43Y-158.88
X271.43Y-177.93
X271.43Y-196.98
X271.43Y-216.03
X271.43Y-235.08
X281.59Y-139.83
X281.59Y-158.88
X281.59Y-177.93
X281.59Y-196.98
X281.59Y-216.03
X281.59Y-235.08
X290.48Y-139.83
X290.48Y-158.88
X290.48Y-177.93
X290.48Y-196.98
X290.48Y-216.03
X290.48Y-235.08
X300.64Y-139.83
X300.64Y-158.88
X300.64Y-177.93
X300.64Y-196.98
X300.64Y-216.03
X300.64Y-235.08
T3
X32.1Y-41.7
X34.9Y-309.3
X306.0Y-310.0
X307.0Y-39.1
T4
X43.46Y-99.08
X43.46Y-118.13
X43.46Y-137.18
X43.46Y-156.23
X43.46Y-175.28
X43.46Y-194.33
X43.46Y-213.38
X43.46Y-232.43
X43.46Y-251.48
X43.46Y-270.53
X43.46Y-289.58
X62.51Y-89.555
X62.51Y-108.605
X62.51Y-127.655
X62.51Y-146.705
X62.51Y-165.755
X62.51Y-184.805
X62.51Y-203.855
X62.51Y-222.905
X62.51Y-241.955
X62.51Y-261.005
X62.51Y-280.055
X62.51Y-299.105
X81.56Y-99.08
X81.56Y-118.13
X81.56Y-137.18
X81.56Y-156.23
X81.56Y-175.28
X81.56Y-194.33
X81.56Y-213.38
X81.56Y-232.43
X81.56Y-251.48
X81.56Y-270.53
X81.56Y-289.58
X100.61Y-108.605
X100.61Y-127.655
X100.61Y-146.705
X100.61Y-165.755
X100.61Y-184.805
X100.61Y-203.855
X100.61Y-222.905
X100.61Y-241.955
X100.61Y-261.005
X100.61Y-280.055
X223.4Y-44.8
X257.46Y-139.83
X257.46Y-158.88
X257.46Y-177.93
X257.46Y-196.98
X257.46Y-216.03
X257.46Y-235.08
X276.51Y-139.83
X276.51Y-158.88
X276.51Y-177.93
X276.51Y-196.98
X276.51Y-216.03
X276.51Y-235.08
X295.56Y-139.83
X295.56Y-158.88
X295.56Y-177.93
X295.56Y-196.98
X295.56Y-216.03
X295.56Y-235.08
M30
